<?xml version="1.0" encoding="UTF-8"?>
<svg xmlns="http://www.w3.org/2000/svg" xmlns:xlink="http://www.w3.org/1999/xlink" version="1.1" id="Capa_1" x="0px" y="0px" viewBox="0 0 512 512" style="enable-background:new 0 0 512 512;" xml:space="preserve" width="512" height="512">
<g>
	
		<line style="fill:none;stroke:#ffffff;stroke-width:15;stroke-linecap:round;stroke-linejoin:round;stroke-miterlimit:10;" x1="361" y1="415.75" x2="361" y2="430.75"/>
	
		<line style="fill:none;stroke:#ffffff;stroke-width:15;stroke-linecap:round;stroke-linejoin:round;stroke-miterlimit:10;" x1="151" y1="415.75" x2="151" y2="430.75"/>
	
		<line style="fill:none;stroke:#ffffff;stroke-width:15;stroke-linecap:round;stroke-linejoin:round;stroke-miterlimit:10;" x1="203.5" y1="415.75" x2="203.5" y2="430.75"/>
	
		<line style="fill:none;stroke:#ffffff;stroke-width:15;stroke-linecap:round;stroke-linejoin:round;stroke-miterlimit:10;" x1="256" y1="415.75" x2="256" y2="430.75"/>
	
		<line style="fill:none;stroke:#ffffff;stroke-width:15;stroke-linecap:round;stroke-linejoin:round;stroke-miterlimit:10;" x1="46" y1="415.75" x2="46" y2="430.75"/>
	
		<line style="fill:none;stroke:#ffffff;stroke-width:15;stroke-linecap:round;stroke-linejoin:round;stroke-miterlimit:10;" x1="98.5" y1="415.75" x2="98.5" y2="430.75"/>
	
		<line style="fill:none;stroke:#ffffff;stroke-width:15;stroke-linecap:round;stroke-linejoin:round;stroke-miterlimit:10;" x1="413.5" y1="415.75" x2="413.5" y2="430.75"/>
	
		<line style="fill:none;stroke:#ffffff;stroke-width:15;stroke-linecap:round;stroke-linejoin:round;stroke-miterlimit:10;" x1="466" y1="415.75" x2="466" y2="430.75"/>
	
		<line style="fill:none;stroke:#ffffff;stroke-width:15;stroke-linecap:round;stroke-linejoin:round;stroke-miterlimit:10;" x1="308.5" y1="96.25" x2="308.5" y2="81.25"/>
	
		<line style="fill:none;stroke:#ffffff;stroke-width:15;stroke-linecap:round;stroke-linejoin:round;stroke-miterlimit:10;" x1="308.5" y1="430.75" x2="308.5" y2="415.75"/>
	
		<line style="fill:none;stroke:#ffffff;stroke-width:15;stroke-linecap:round;stroke-linejoin:round;stroke-miterlimit:10;" x1="361" y1="96.25" x2="361" y2="81.25"/>
	
		<line style="fill:none;stroke:#ffffff;stroke-width:15;stroke-linecap:round;stroke-linejoin:round;stroke-miterlimit:10;" x1="151" y1="96.25" x2="151" y2="81.25"/>
	
		<line style="fill:none;stroke:#ffffff;stroke-width:15;stroke-linecap:round;stroke-linejoin:round;stroke-miterlimit:10;" x1="203.5" y1="96.25" x2="203.5" y2="81.25"/>
	
		<line style="fill:none;stroke:#ffffff;stroke-width:15;stroke-linecap:round;stroke-linejoin:round;stroke-miterlimit:10;" x1="256" y1="96.25" x2="256" y2="81.25"/>
	
		<line style="fill:none;stroke:#ffffff;stroke-width:15;stroke-linecap:round;stroke-linejoin:round;stroke-miterlimit:10;" x1="46" y1="96.25" x2="46" y2="81.25"/>
	
		<line style="fill:none;stroke:#ffffff;stroke-width:15;stroke-linecap:round;stroke-linejoin:round;stroke-miterlimit:10;" x1="98.5" y1="96.25" x2="98.5" y2="81.25"/>
	
		<line style="fill:none;stroke:#ffffff;stroke-width:15;stroke-linecap:round;stroke-linejoin:round;stroke-miterlimit:10;" x1="413.5" y1="96.25" x2="413.5" y2="81.25"/>
	
		<line style="fill:none;stroke:#ffffff;stroke-width:15;stroke-linecap:round;stroke-linejoin:round;stroke-miterlimit:10;" x1="466" y1="96.25" x2="466" y2="81.25"/>
	
		<line style="fill:none;stroke:#ffffff;stroke-width:15;stroke-linecap:round;stroke-linejoin:round;stroke-miterlimit:10;" x1="383.5" y1="460.75" x2="7.5" y2="460.75"/>
	
		<line style="fill:none;stroke:#ffffff;stroke-width:15;stroke-linecap:round;stroke-linejoin:round;stroke-miterlimit:10;" x1="504.5" y1="460.75" x2="413.5" y2="460.75"/>
	
		<line style="fill:none;stroke:#ffffff;stroke-width:15;stroke-linecap:round;stroke-linejoin:round;stroke-miterlimit:10;" x1="128.5" y1="51.25" x2="504.5" y2="51.25"/>
	
		<line style="fill:none;stroke:#ffffff;stroke-width:15;stroke-linecap:round;stroke-linejoin:round;stroke-miterlimit:10;" x1="7.5" y1="51.25" x2="98.5" y2="51.25"/>
	<path style="fill:none;stroke:#ffffff;stroke-width:15;stroke-linecap:round;stroke-linejoin:round;stroke-miterlimit:10;" d="&#10;&#9;&#9;M468.5,276.765V141.25c0-8.25-6.75-15-15-15h-396c-8.25,0-15,6.75-15,15v67.375"/>
	<path style="fill:none;stroke:#ffffff;stroke-width:15;stroke-linecap:round;stroke-linejoin:round;stroke-miterlimit:10;" d="&#10;&#9;&#9;M42.5,238.625V370.75c0,8.25,6.75,15,15,15h396c8.25,0,15-6.75,15-15v-63.985"/>
	
		<polyline style="fill:none;stroke:#ffffff;stroke-width:15;stroke-linecap:round;stroke-linejoin:round;stroke-miterlimit:10;" points="&#10;&#9;&#9;398.5,355.75 438.5,355.75 438.5,315.75 &#9;"/>
	
		<polyline style="fill:none;stroke:#ffffff;stroke-width:15;stroke-linecap:round;stroke-linejoin:round;stroke-miterlimit:10;" points="&#10;&#9;&#9;438.5,196.25 438.5,156.25 398.5,156.25 &#9;"/>
	
		<polyline style="fill:none;stroke:#ffffff;stroke-width:15;stroke-linecap:round;stroke-linejoin:round;stroke-miterlimit:10;" points="&#10;&#9;&#9;112.5,355.75 72.5,355.75 72.5,315.75 &#9;"/>
	
		<polyline style="fill:none;stroke:#ffffff;stroke-width:15;stroke-linecap:round;stroke-linejoin:round;stroke-miterlimit:10;" points="&#10;&#9;&#9;72.5,196.25 72.5,156.25 112.5,156.25 &#9;"/>
	
		<line style="fill:none;stroke:#ffffff;stroke-width:15;stroke-linecap:round;stroke-linejoin:round;stroke-miterlimit:10;" x1="281.901" y1="208.625" x2="281.901" y2="303.375"/>
	
		<polyline style="fill:none;stroke:#ffffff;stroke-width:15;stroke-linecap:round;stroke-linejoin:round;stroke-miterlimit:10;" points="&#10;&#9;&#9;332.87,209.821 284.934,253.883 336.233,303.375 &#9;"/>
	<path style="fill:none;stroke:#ffffff;stroke-width:15;stroke-linecap:round;stroke-linejoin:round;stroke-miterlimit:10;" d="&#10;&#9;&#9;M235.266,275.41h-59.499c0,0,31.502-57.102,36.701-63.48c5.257-6.449,10.235-2.427,10.709,3.262l-0.237,88.182"/>
</g>















</svg>
