<?xml version="1.0" encoding="utf-8"?>
<!-- Generator: Adobe Illustrator 24.0.2, SVG Export Plug-In . SVG Version: 6.00 Build 0)  -->
<svg version="1.1" id="Layer_1" xmlns="http://www.w3.org/2000/svg" xmlns:xlink="http://www.w3.org/1999/xlink" x="0px" y="0px"
	 viewBox="0 0 349.2538 343.804" enable-background="new 0 0 349.2538 343.804" xml:space="preserve">
<g>
	<path d="M134.3302,245.5747c0.0222,3.1807-14.7421-8.2014-21.5892-1.7918c0,0-0.0151-0.0219-0.0396-0.0573
		c-1.2308,1.3054-2.592,2.8604-4.0973,4.7064c14.6845,5.6006,31.5203,13.3152,48.9965,22.7056
		c22.7331,12.2152,42.5277,25.0969,56.6787,36.3906c4.7235-14.3638-14.4108-38.0099-44.6672-54.7417l6.9699-12.9714
		c2.7295,0.546,5.6077-0.716,6.9935-3.2952c1.698-3.16,0.5128-7.0982-2.6473-8.7961c-3.16-1.698-7.0982-0.5128-8.7961,2.6472
		c-1.3859,2.5792-0.8496,5.6757,1.1121,7.6505l-6.97,12.9715c-11.1937-5.8416-22.3339-9.937-32.431-12.2053
		C133.4402,240.9294,134.3171,243.7037,134.3302,245.5747z M122.3364,247.7537c-0.5918-0.0163-1.0584-0.5093-1.0421-1.1012
		s0.5093-1.0585,1.1011-1.0422c0.5921,0.0163,1.0587,0.5093,1.0424,1.1012C123.4214,247.3034,122.9285,247.77,122.3364,247.7537z
		 M144.7535,243.1885c0.941,0.0259,1.6826,0.8094,1.6567,1.7503s-0.8094,1.6824-1.7505,1.6566
		c-0.9406-0.0259-1.6822-0.8094-1.6563-1.7503S143.8128,243.1626,144.7535,243.1885z M139.1005,249.8771
		c-0.5918-0.0163-1.0584-0.5092-1.0421-1.1012c0.0163-0.5919,0.5093-1.0585,1.1011-1.0422
		c0.5921,0.0163,1.0587,0.5093,1.0424,1.1012S139.6926,249.8934,139.1005,249.8771z M138.9638,241.8635
		c0.5921,0.0163,1.0587,0.5093,1.0424,1.1012s-0.5093,1.0585-1.1013,1.0422c-0.5918-0.0163-1.0584-0.5093-1.0421-1.1012
		C137.879,242.3138,138.372,241.8472,138.9638,241.8635z"/>
	<path d="M88.6584,165.1222c-0.0305,1.1107,0.8449,2.0356,1.9553,2.0662c1.1109,0.0306,2.0359-0.8448,2.0664-1.9555
		c0.0306-1.1107-0.8448-2.0356-1.9557-2.0662C89.614,163.1361,88.689,164.0115,88.6584,165.1222z"/>
	<path d="M95.3211,141.665c0.0305-1.1107-0.8448-2.0356-1.9558-2.0662c-1.1104-0.0306-2.0354,0.8449-2.0659,1.9555
		c-0.0306,1.1107,0.8448,2.0356,1.9553,2.0662C94.3655,143.6511,95.2905,142.7756,95.3211,141.665z"/>
	<path d="M106.6636,247.6943c-0.2564-1.0829-0.8008-2.0912-1.5515-3.0556c0.4569-0.9152,0.9207-1.8458,1.3866-2.7889
		c-1.4359-0.7785-2.6896-2.129-3.5962-3.2571c-1.2595-1.4329-2.0668-3.1608-3.3261-4.5939
		c-1.5087-1.554-4.1856-3.8799-6.5044-3.9755c3.3101-0.0404,4.9605-0.4749,7.1149-0.2529c1.9476,0.2243,3.166,1.7405,4.6727,3.0872
		c1.0042,0.9434,2.3461,2.7389,3.8561,4.397c0.0073-0.0156,0.0144-0.0311,0.0217-0.0468
		c-2.8243-5.1889-5.8932-12.286-4.6039-16.8383c3.633,7.7943,9.1228,2.3364,9.1228,2.3364s-13.0657-11.6321-6.587-21.4988
		c2.3721,11.4791,12.6592,10.8716,12.6592,10.8716s2.5597-6.8918-3.5441-17.3859c19.4139,9.8345,16.8052,19.823,15.2546,21.792
		c0,0,4.64,3.5897,4.3123-11.3633c5.8383,8.4686,7.3465,17.718,6.3689,23.821c6.8078-6.0866,11.98-22.5469,2.2773-39.6362
		c-0.6657-1.1725-1.3863-2.3474-2.1965-3.5225c0.1902,8.6783-0.6705,13.4285-1.8404,15.9745
		c0.4863-7.5142-1.3976-16.3439-7.4779-25.1635c0.066,3.0124,0.0049,5.5499-0.1511,7.6896
		c-1.0785,14.7959-6.725,10.4299-6.725,10.4299c1.6176-2.0542,3.9535-9.5825-3.2909-18.9339
		c-3.8285-4.942-10.33-10.3926-21.0334-15.8147c8.5183,14.6453,6.4548,24.8906,5.8072,27.2194
		c-0.0923,0.332-0.1559,0.5034-0.1559,0.5034s-0.3975,0.1636-1.0398,0.3029c-0.0474-0.0914-0.0972-0.1774-0.1439-0.2706
		c-1.2849-2.5697-2.257-5.8342-2.5637-9.972c-1.8788,2.8614-2.9548,5.8754-3.4702,8.8916
		c-2.0178-1.6475-3.7916-4.9207-4.2578-11.2104c-10.3306,15.733,1.7928,29.2041,1.7928,29.2041s-7.0485,4.4873-12.8414-7.9411
		c-15.1307,18.9245-5.605,35.1839,4.2426,45.056C94.115,243.2711,100.165,245.2672,106.6636,247.6943z M100.6439,216.4463
		c-0.0163,0.592-0.5092,1.0585-1.1013,1.0422c-0.5918-0.0163-1.0583-0.5093-1.0421-1.1012s0.5093-1.0585,1.1011-1.0422
		C100.1936,215.3614,100.6602,215.8544,100.6439,216.4463z M96.7653,225.2511c-0.9011-0.0248-1.6115-0.7754-1.5867-1.6767
		c0.0248-0.9012,0.7755-1.6116,1.6765-1.5869c0.9015,0.0248,1.6119,0.7755,1.587,1.6767
		C98.4174,224.5655,97.6667,225.2759,96.7653,225.2511z M86.6212,212.1348c0.0163-0.5919,0.5093-1.0585,1.1011-1.0422
		c0.5921,0.0163,1.0587,0.5093,1.0424,1.1012c-0.0163,0.592-0.5093,1.0585-1.1013,1.0422
		C87.0715,213.2197,86.6049,212.7267,86.6212,212.1348z"/>
	<path d="M53.3645,209.4957c0.5759,6.1276,3.5074,12.0858,10.1212,13.6626c4.8472,0.9188,9.6945,1.8377,10.372,8.1235
		c0.7626-3.3466-1.1532-5.9803-2.795-7.8385c-1.5967-1.4389-3.4197-1.8355-4.4839-3.8408
		c-0.6564-1.3706-0.2027-3.4546-0.5422-5.0288c-1.6062-7.0339-7.0946-9.184-13.7573-11.9984
		c5.1447,3.9391,9.9078,7.7501,9.6453,13.9676C57.8925,216.8929,54.5073,213.0184,53.3645,209.4957z"/>
	<path d="M67.3439,181.8738c2.6282,3.9378,4.8,9.8419,1.3296,12.847c-1.289-0.7297-1.6165-2.946-1.7297-4.2012
		c-2.9247,5.2877,1.9687,16.3287,5.4974,19.0739c-0.7966-2.5607-0.4445-9.4218,1.6489-11.013
		c4.1422-3.1481,2.3208-9.8738,1.1978-11.2575c0.3298,3.9078-1.4045,7.533-2.8936,8.1187
		C74.0255,191.2377,73.8163,186.7167,67.3439,181.8738z"/>
	<path d="M151.7578,192.0932c2.0995,1.5831,3.0909,7.7828,2.3043,10.3466c3.518-2.7589,8.3685-13.8187,5.4233-19.0951
		c-0.1083,1.2557-0.4272,3.4732-1.7134,4.2079c-3.4821-2.9916-0.5031-8.518,2.1098-12.4659
		c-6.4536,4.868-7.4753,9.0037-5.8278,13.2012c-1.4913-0.58-3.2397-4.1984-2.9251-8.1074
		C150.0113,181.5685,147.6034,188.9612,151.7578,192.0932z"/>
	<path d="M68.772,157.4565c-2.192-0.0604-4.0179,1.6678-4.0782,3.8602c-0.0604,2.1925,1.6678,4.0184,3.8597,4.0787
		c2.1929,0.0604,4.0189-1.6677,4.0792-3.8602C72.693,159.3428,70.9649,157.5168,68.772,157.4565z"/>
	<path d="M85.2728,180.3326c0.0483-1.7534-1.3338-3.2137-3.0876-3.262c-1.7531-0.0483-3.2134,1.3338-3.2616,3.0872
		c-0.0483,1.7535,1.3338,3.2137,3.0869,3.262C83.7643,183.4681,85.2245,182.086,85.2728,180.3326z"/>
	<path d="M110.4227,159.4286c-0.0259,0.9409,0.7157,1.7244,1.6564,1.7504c0.941,0.0259,1.7246-0.7157,1.7505-1.6566
		c0.0259-0.9409-0.7156-1.7244-1.6567-1.7504C111.2322,157.7462,110.4486,158.4878,110.4227,159.4286z"/>
	<path d="M118.5521,160.0377c-0.0386,1.4026,1.0669,2.5707,2.4692,2.6093c1.4029,0.0386,2.571-1.0669,2.6096-2.4695
		c0.0386-1.4025-1.0669-2.5707-2.4698-2.6093C119.7589,157.5295,118.5907,158.6351,118.5521,160.0377z"/>
	<path d="M34.6439,156.7049c-3.5031,0-6.3432,2.8401-6.3432,6.3432c0,3.504,2.8401,6.3442,6.3432,6.3442
		c3.5035,0,6.3432-2.8402,6.3432-6.3442C40.9871,159.545,38.1473,156.7049,34.6439,156.7049z"/>
	<path d="M53.6297,193.2445c1.5919,0,2.8825-1.2906,2.8825-2.8828c0-1.5915-1.2906-2.8822-2.8825-2.8822
		c-1.5921,0-2.8824,1.2907-2.8824,2.8822C50.7473,191.9539,52.0376,193.2445,53.6297,193.2445z"/>
	<path d="M54.8318,174.8578c0-2.5572-2.0739-4.631-4.6315-4.631c-2.5582,0-4.6315,2.0739-4.6315,4.631
		c0,2.5582,2.0733,4.6321,4.6315,4.6321C52.7579,179.4899,54.8318,177.4161,54.8318,174.8578z"/>
	<path d="M19.8707,96.8582c9.1866,0,16.8948-6.2426,19.1699-14.7103c0.4682,0.5863,0.9602,1.1521,1.4745,1.6973
		c-1.6027,7.1954-7.1017,12.9031-14.1721,14.8222c0.3713,3.026,1.4206,5.8375,2.9948,8.2851
		c-7.2006,1.4598-12.621,7.8242-12.621,15.4538c0,8.71,7.0607,15.7716,15.7708,15.7716c0.0786,0,0.1544-0.0106,0.2326-0.0117
		c-0.3533,1.0975-0.5486,2.2657-0.5486,3.4806c0,6.2706,5.084,11.3547,11.3547,11.3547c6.2725,0,11.3556-5.084,11.3556-11.3547
		c0-4.2645-2.3541-7.9757-5.8314-9.9167c-2.8846,3.7243-7.3876,6.1318-12.4628,6.1318c-0.2649,0-0.5229-0.0267-0.7847-0.0396
		c7.1167-1.524,12.4545-7.8441,12.4545-15.416c0-2.2614-0.4846-4.4069-1.342-6.3514c1.3665-0.0591,2.6946-0.2538,3.9759-0.5753
		c8.6299-2.1652,15.0294-9.951,15.0294-19.2517c0-1.5013-0.1807-2.9583-0.4963-4.3645c8.5223-1.6492,15.6238-7.2823,19.2802-14.8889
		c0.9609,0.2104,1.956,0.3289,2.98,0.3289c6.8399,0,12.5107-4.9533,13.6542-11.4668c0.1378-0.7849,0.2232-1.5879,0.2232-2.4123
		c0-7.6641-6.2134-13.8774-13.8774-13.8774c-5.6848,0-10.564,3.4207-12.7097,8.3121c0.7063-4.0234,3.1407-7.441,6.5148-9.4728
		c-4.9694-6.2567-12.6373-10.2735-21.2475-10.2735c-4.1579,0-8.0956,0.9385-11.6175,2.6108
		c-3.1883-6.534-9.8769-11.0474-17.636-11.0474c-0.5325,0-1.0555,0.038-1.5774,0.0797
		c-10.1047,0.8055-18.0568,9.2442-18.0568,19.5546c0,10.312,7.952,18.7491,18.0568,19.5545
		c-0.5218,0.0416-1.0449,0.0797-1.5773,0.0797c-7.2079,0-13.4909-3.8954-16.9058-9.6846C4.4509,62.5343,0,69.2338,0,76.9875
		c0,3.6682,1.0114,7.0925,2.7447,10.0419C6.1968,92.9034,12.5643,96.8582,19.8707,96.8582z"/>
	<path d="M56.1423,33.7753c4.355,0,7.8849-3.5299,7.8849-7.8839c0-4.3561-3.5299-7.8859-7.8849-7.8859
		c-4.3551,0-7.8849,3.5298-7.8849,7.8859C48.2574,30.2454,51.7872,33.7753,56.1423,33.7753z"/>
	<path d="M87.2097,18.0055c-6.1837,0-11.1967,5.012-11.1967,11.1976c0,6.1837,5.0129,11.1957,11.1967,11.1957
		s11.1976-5.0121,11.1976-11.1957C98.4073,23.0175,93.3934,18.0055,87.2097,18.0055z"/>
	<path d="M55.3145,4.416C55.3145,1.9766,53.3378,0,50.899,0c-2.4388,0-4.4154,1.9766-4.4154,4.416
		c0,2.4382,1.9766,4.4149,4.4154,4.4149C53.3378,8.8308,55.3145,6.8541,55.3145,4.416z"/>
	<path d="M117.0121,36.6224c-2.4388,0-4.4154,1.9766-4.4154,4.4159c0,2.4382,1.9766,4.4149,4.4154,4.4149
		c2.4387,0,4.4154-1.9767,4.4154-4.4149C121.4275,38.5991,119.4508,36.6224,117.0121,36.6224z"/>
	<rect x="217.4279" y="215.2097" width="1.5897" height="60.3768"/>
	<rect x="207.8895" y="202.6312" width="1.5897" height="60.3768"/>
	<rect x="212.6587" y="165.0529" width="1.5897" height="86.6345"/>
	<rect x="166.045" y="112.0288" width="1.5897" height="60.3769"/>
	<rect x="156.5067" y="99.4503" width="1.5897" height="60.3769"/>
	<rect x="161.2759" y="61.872" width="1.5897" height="86.6345"/>
	<path d="M136.2357,310.8988c48.9536,26.3043,92.9776,39.5522,98.3306,29.5901c0.3343-0.6221,0.5097-1.32,0.5331-2.0882
		c0.3522-11.5337-33.5824-38.9161-79.479-63.5778c-45.8969-24.6617-87.4604-37.8467-96.8835-31.187
		c-0.6276,0.4435-1.1128,0.975-1.447,1.597C51.937,255.1949,87.2822,284.5946,136.2357,310.8988z M157.9073,303.8854
		c-0.6367,1.185-7.3726-1.1964-15.045-5.319s-13.376-8.4253-12.7393-9.6103c0.6368-1.1851,7.3727,1.1964,15.0451,5.319
		C152.8406,298.3978,158.5441,302.7004,157.9073,303.8854z M104.9063,270.8185c2.0721-3.8563,22.118,2.8862,44.7737,15.0599
		c22.6558,12.1736,39.3421,25.1685,37.27,29.0247c-1.001,1.8629-6.2042,1.2465-13.8621-1.2548
		c3.0104,0.5237,4.9838,0.3335,5.5379-0.6976c1.7891-3.3297-11.8702-14.1478-30.509-24.1629
		c-18.6387-10.0152-35.1988-15.4349-36.9879-12.1053c-0.5541,1.0311,0.3763,2.7816,2.4745,5.0028
		C107.2909,276.68,103.9053,272.6815,104.9063,270.8185z"/>
	<path d="M48.52,255.8139c0.4882,0.2543,1.0884,0.0651,1.345-0.4223c0.0177-0.0331,0.0331-0.067,0.0465-0.1013
		c0.183-0.4669-0.0109-1.0076-0.4641-1.2484c-0.0196-0.0103-1.9819-1.0729-2.5569-3.0794c-0.3686-1.2847-0.0999-2.726,0.8006-4.282
		c0.2753-0.4774,0.1125-1.0898-0.3654-1.3663c-0.4785-0.2765-1.0898-0.1125-1.3664,0.3657
		c-1.1872,2.0546-1.5186,4.0252-0.9843,5.8583C45.7991,254.369,48.4094,255.7562,48.52,255.8139z"/>
	<path d="M44.8384,258.9175c0.4744,0.2803,1.0851,0.123,1.3668-0.3508c0.0282-0.0477,0.0521-0.0968,0.0717-0.1468
		c0.1753-0.4471,0.0063-0.9686-0.4189-1.2231c-0.0306-0.0183-3.0677-1.8686-3.8647-5.2043
		c-0.5225-2.1846,0.0126-4.5638,1.5959-7.0723c0.2925-0.4694,0.1536-1.085-0.3131-1.3794
		c-0.4672-0.2946-1.0844-0.1544-1.3792,0.3127c-1.8842,2.9911-2.5048,5.8935-1.843,8.6284
		C41.0608,256.6443,44.6843,258.8264,44.8384,258.9175z"/>
	<path d="M240.9301,338.088c0.4169,0.3629,1.0482,0.3187,1.4111-0.0977c1.558-1.7899,2.26-3.6607,2.0859-5.5622
		c-0.2678-2.936-2.5648-4.7966-2.6623-4.8745c-0.4306-0.343-1.056-0.2719-1.4009,0.1574c-0.0237,0.0292-0.0453,0.0594-0.0651,0.0906
		c-0.2689,0.4233-0.1818,0.9911,0.2169,1.3141c0.0172,0.0139,1.7403,1.432,1.9211,3.5114c0.1162,1.3314-0.423,2.6948-1.6043,4.05
		C240.4711,337.093,240.5138,337.7252,240.9301,338.088z"/>
	<path d="M245.9796,340.5594c2.4211-2.5758,3.5851-5.306,3.4583-8.117c-0.1927-4.2781-3.3323-7.1126-3.4661-7.2315
		c-0.412-0.3658-1.0416-0.3281-1.4087,0.0831c-0.0367,0.0414-0.0696,0.0851-0.0984,0.1304
		c-0.2575,0.4053-0.1913,0.9495,0.1774,1.2806c0.0266,0.0238,2.654,2.4205,2.7988,5.847c0.0952,2.2442-0.8848,4.4773-2.9184,6.6369
		c-0.3768,0.4048-0.3582,1.0356,0.0437,1.4138C244.9683,340.9811,245.6009,340.9615,245.9796,340.5594z"/>
	<path d="M286.3082,110.0139l-0.3927-0.4986l-50.8352,1.3819l-0.4724-0.1711l-2.5668-2.309l-2.1196-2.7801l0.8087-0.5386
		l4.8546,4.3669l51.1091-1.3893l0.7236,0.9187l21.4146-4.636l-0.4561-2.1068l2.6314-0.6107c0,0,22.4861-6.5352,21.967-8.9327
		c-0.4634-2.1405-20.6398-2.759-24.9612-2.8671c-3.2931-2.5404-10.7216-4.8366-16.6234-4.2038
		c-3.5555,0.3812-7.4639,1.7769-10.7244,3.8293c-2.2461,1.4139-3.7806,2.8806-4.4294,4.1613
		c-9.1317,1.6292-25.0086,5.7954-28.927,6.1731c-4.9335,0.4755-20.1359,2.604-20.1359,2.604l-1.1605,0.3837l-1.702,0.5628
		l-15.4659-12.6725l-0.195-0.1598l-13.5662,4.5539l12.064,13.9166l-3.6693,0.7944l0.4642,2.1443l-4.6219,0.436l1.2961,1.1771
		l1.1127,1.0106l17.3079-0.9117l1.0803,1.2311l-15.3627,0.8091l0.9155,4.2286l6.8973-1.4932l0.498,2.3005l32.8298-4.1799
		l7.2837,2.6389l3.541-0.8453c0.3175,1.0821,1.4219,1.7615,2.5406,1.5193l15.8631-3.4342c1.1704-0.2534,1.9207-1.4183,1.6673-2.5887
		c-0.0202-0.0934-0.0555-0.1791-0.0869-0.2669l10.4349-2.491L286.3082,110.0139z M281.3151,90.499
		c2.4566-1.5464,5.2947-2.7013,8.0436-3.2964c0.7294-0.158,1.4529-0.2765,2.161-0.3524c5.46-0.5855,11.3146,1.3119,14.5251,3.1577
		c-4.313,0.6919-19.6693,3.0925-24.3895,2.9726c-0.8587-0.0219-2.1644,0.1174-3.7748,0.3694
		C278.57,92.5126,279.7057,91.5121,281.3151,90.499z"/>
	<path d="M326.6611,37.369c-1.9313,0.2071-4.0542,0.9651-5.8253,2.08c-1.22,0.768-2.0535,1.5647-2.4059,2.2603
		c-4.9601,0.8851-13.5841,3.1479-15.7125,3.3531c-2.6797,0.2583-10.9374,1.4144-10.9374,1.4144l-0.6303,0.2084l-0.9245,0.3057
		l-8.4007-6.8835l-0.106-0.0868l-7.3689,2.4736l6.5529,7.5592l-1.993,0.4315l0.2521,1.1648l-2.5106,0.2368l0.704,0.6393
		l0.6044,0.549l9.4012-0.4952l0.5869,0.6687l-8.3447,0.4395l0.4973,2.2969l3.7465-0.8111l0.2705,1.2496l17.8325-2.2704
		l3.9562,1.4333l1.9316-0.4611c0.1735,0.5862,0.765,0.9586,1.3717,0.8273l8.6165-1.8654c0.6357-0.1376,1.0433-0.7704,0.9056-1.4061
		c-0.0114-0.0524-0.0443-0.0923-0.0621-0.1415l5.6829-1.3566l-0.4514-0.5731l-0.2133-0.2708l-27.6127,0.7506l-0.2565-0.0929
		l-1.3942-1.2542l-1.1513-1.5101l0.4393-0.2925l2.6369,2.3721l27.7614-0.7546l0.393,0.499l11.632-2.5182l-0.2477-1.1443
		l1.4293-0.3317c0,0,12.214-3.5498,11.9321-4.8521c-0.252-1.1639-11.2327-1.4993-13.5654-1.5576
		C333.8945,38.2725,329.8664,37.0253,326.6611,37.369z M321.1887,40.0095c1.3344-0.84,2.876-1.4673,4.3691-1.7905
		c0.3962-0.0858,0.7892-0.1501,1.1738-0.1914c2.9658-0.3181,6.1459,0.7126,7.8898,1.7152
		c-2.3427,0.3759-10.684,1.6798-13.2479,1.6146c-0.4664-0.0118-1.1756,0.0638-2.0503,0.2007
		C319.6977,41.1032,320.3146,40.5598,321.1887,40.0095z"/>
</g>
</svg>
