<?xml version="1.0" encoding="utf-8"?>
<!-- Generator: Adobe Illustrator 24.0.2, SVG Export Plug-In . SVG Version: 6.00 Build 0)  -->
<svg version="1.1" id="Layer_1" xmlns="http://www.w3.org/2000/svg" xmlns:xlink="http://www.w3.org/1999/xlink" x="0px" y="0px"
	 viewBox="0 0 578.9553 435.0224" enable-background="new 0 0 578.9553 435.0224" xml:space="preserve">
<g>
	<path fill="#fff" d="M186.5176,224.7363c0.6235-1.7273-0.2745-3.6396-2.0013-4.2631c-1.7269-0.6235-3.6394,0.274-4.2631,2.0013
		c-0.6237,1.7272,0.2744,3.6395,2.0012,4.263C183.9813,227.3611,185.8938,226.4636,186.5176,224.7363z"/>
	<path fill="#fff" d="M519.825,348.6179c1.7268,0.6235,3.6394-0.274,4.2631-2.0013s-0.2745-3.6396-2.0013-4.2631s-3.6394,0.274-4.2629,2.0013
		C517.2,346.0822,518.0981,347.9944,519.825,348.6179z"/>
	<path fill="#fff" d="M531.6824,412.4895l-3.8319-56.7965c2.0929-1.4111,3.7799-3.464,4.7028-6.02c2.3126-6.4051-1.005-13.4722-7.4102-15.7848
		c-1.4047-0.5071-2.8396-0.7286-4.2507-0.7211l-5.0156-6.7654c25.8879-6.196,42.9771-15.2078,45.739-22.8577
		c0.2758-0.7637,0.4126-1.5706,0.4438-2.4095c-5.5532,3.1535-14.3733,4.6035-25.6851,4.6035
		c-40.0498,0-111.0713-18.022-176.7822-41.7466c-51.2871-18.5171-98.1465-39.7661-131.9473-59.833
		c-27.6841-16.435-43.613-30.1204-47.6121-40.8525c-0.4823,0.6424-0.8704,1.3244-1.135,2.0574
		c-2.762,7.6498,4.6283,25.4998,20.5868,46.8045l-8.181,2.001c-1.0808-0.9073-2.3264-1.6536-3.731-2.1608
		c-6.4053-2.3126-13.4723,1.0051-15.7849,7.4102c-0.9227,2.5558-0.9363,5.2129-0.2277,7.6354l-39.2313,41.2488
		c-7.5005-1.0228-14.9552,3.2739-17.6296,10.6815c-3.0767,8.5211,27.781,19.6623,30.8575,11.1412
		c1.9882-5.5067,0.8345-11.371-2.5206-15.6685l37.0703-38.9766c6.1519,1.7047,12.6726-1.5832,14.8765-7.6872
		c0.2761-0.7648,0.4668-1.5392,0.5868-2.3137l12.124-2.9655c26.8483,32.0309,70.9856,69.0203,127.7057,90.8149l-9.3015,25.7618
		c-6.5403,0.187-12.6094,4.289-14.9659,10.8159c-3.0765,8.5211,27.7811,19.6623,30.8577,11.1412
		c2.3566-6.5268,0.3077-13.5598-4.6046-17.8818l9.3015-25.7618c57.5603,19.4665,115.147,19.205,156.2648,11.7136l7.4333,10.0266
		c-0.4025,0.6723-0.7504,1.3898-1.0264,2.1545c-2.2037,6.1038,0.7123,12.7987,6.5338,15.4174l3.6211,53.6684
		c-5.3264,1.163-9.9602,4.9377-11.9485,10.4443c-3.0764,8.5211,27.7813,19.6624,30.8577,11.1412
		C541.0969,424.5622,538.1064,416.4942,531.6824,412.4895z M180.896,230.4999c-3.8018-1.3727-5.7778-5.582-4.4052-9.3837
		c1.3727-3.8018,5.5819-5.7778,9.3837-4.4052c3.8019,1.3726,5.778,5.5819,4.4053,9.3837
		C188.9072,229.8965,184.6979,231.8726,180.896,230.4999z M222.9531,225.2993c-2.8398-0.0402-5.0955-3.3617-5.0381-7.4188
		s2.4063-7.3134,5.2462-7.2731s5.0956,3.3617,5.0382,7.4188C228.142,222.0833,225.7932,225.3395,222.9531,225.2993z
		 M306.403,282.711c-4.4685-0.0633-8.0177-5.2895-7.9274-11.6731c0.0905-6.3835,3.7861-11.5071,8.2546-11.4439
		c4.4685,0.0633,8.0177,5.2895,7.9272,11.6731C314.5671,277.6506,310.8715,282.7742,306.403,282.711z M402.1099,308.4552
		c-4.0084,4.9689-10.0776,6.7224-13.5559,3.9165s-3.0485-9.1087,0.96-14.0776c4.0085-4.9689,10.0776-6.7224,13.5559-3.9165
		S406.1184,303.4863,402.1099,308.4552z M489.4321,321.5119c-2.2106-1.7833-1.9374-5.789,0.6101-8.947
		c2.5476-3.158,6.4049-4.2724,8.6155-2.4891c2.2107,1.7833,1.9375,5.789-0.6101,8.947S491.6428,323.2952,489.4321,321.5119z
		 M514.0614,342.9965c1.3727-3.8018,5.5819-5.7778,9.3837-4.4052s5.7778,5.5819,4.4053,9.3837
		c-1.3727,3.8018-5.582,5.7778-9.3838,4.4052S512.6887,346.7982,514.0614,342.9965z"/>
	<path fill="#fff" d="M210.9292,149.2892c-16.4873,0-24.1836,3.1724-25.6211,7.1523c-2.2432,6.2124,8.5059,20.6548,45.3994,42.5576
		c33.4854,19.8789,79.9814,40.9561,130.9219,59.3486c50.9414,18.3926,100.1777,31.8794,138.6387,37.9766
		c42.3711,6.7168,59.8701,2.4731,62.1152-3.7397c2.2422-6.2129-8.5059-20.6553-45.3994-42.5576
		c-4.4142-2.6205-9.0603-5.2622-13.9071-7.9155c-0.5033,1.7687-1.0647,3.529-1.696,5.2776
		c-3.6899,10.22-15.6766,21.938-51.8251,19.7245c-23.2224-1.4218-53.0667-8.3628-84.0347-19.5439
		c-30.1774-10.8956-57.2118-24.3879-76.1216-37.9905c-30.1528-21.6894-32.0256-38.5848-28.2871-48.9393
		c0.6313-1.7486,1.324-3.4615,2.0667-5.1438c-5.4237-1.0549-10.6857-1.9906-15.7556-2.7943
		C232.1948,150.2872,220.1782,149.2892,210.9292,149.2892z"/>
	<path fill="#fff" d="M392.3374,201.0107l2.9004,0.3223c-2.0818-1.8737-3.0559-4.7792-2.3994-7.6027c-2.312-0.8526-4.6311-1.701-6.9609-2.5422
		c-7.1501-2.5815-14.2671-5.062-21.335-7.4473c0.9692,1.5804,2.08,3.4099,3.1761,5.2695l2.4054,4.0369
		c4.444,1.5387,8.9026,3.1096,13.3765,4.7249C386.4624,198.8415,389.4052,199.9231,392.3374,201.0107z"/>
	<path fill="#fff" d="M405.9287,201.1194l0.1743,1.848c1.9714,0.9442,3.3774,2.6967,3.863,4.764
		c27.7742,10.8721,53.7559,22.4286,76.4331,34.0266c0.8059-2.2546,1.474-4.5329,2.0187-6.8284
		c-24.0079-12.2167-51.5985-24.371-81.047-35.7195C406.989,199.9151,406.5081,200.5622,405.9287,201.1194z"/>
	<path fill="#fff" d="M327.842,179.4285c1.7412-2.3094,3.5535-4.1948,5.3923-5.6995c-18.8871-5.6909-37.1028-10.5265-54.1929-14.387
		c-1.0466,2.113-1.9873,4.2916-2.8071,6.5397C292.5114,169.524,309.8563,174.0836,327.842,179.4285z"/>
	<path fill="#fff" d="M324.5338,184.2722c-16.8302-4.978-33.0909-9.264-48.4474-12.7604c0.276,1.0739,0.7024,2.1979,1.2788,3.3674
		c14.4639,3.3396,29.7181,7.3752,45.4785,12.0205C323.3889,186.0369,323.9525,185.1609,324.5338,184.2722z"/>
	<path fill="#fff" d="M407.2471,215.1011l0.0784,0.8299c22.8181,8.9386,44.4331,18.3383,64.0017,27.8467l-39.5228-14.1804
		c-6.377-2.2762-13.2374-2.8488-19.9036-1.6612l-6.3503,1.1313l-1.1967-12.6924c-0.5035,0.098-1.022,0.1485-1.5524,0.133
		l-2.4231-0.0782l1.2571,13.335l-25.5826,4.5576c26.9993,9.361,52.8967,15.2604,73.4109,16.6865
		c15.8835,1.1042,27.7239-0.6754,33.4558-4.8244c-22.105-11.201-47.209-22.3401-73.9819-32.8445
		C408.4774,214.0199,407.9041,214.6149,407.2471,215.1011z"/>
	<path fill="#fff" d="M405.0293,197.1462c0.9087-2.5167-0.395-5.2929-2.9109-6.2012c-2.5167-0.9087-5.2922,0.3947-6.2009,2.9114
		c-0.9084,2.5158,0.3943,5.2921,2.9109,6.2008c0.002,0.0007,0.0049,0.0012,0.0066,0.0018l0.1595,1.6915l4.0226,0.4471
		l-0.2321-2.4619C403.7882,199.1889,404.6111,198.3044,405.0293,197.1462z"/>
	
		<rect x="438.0615" y="159.3183" transform="matrix(0.9052 -0.425 0.425 0.9052 -34.6134 203.5316)" width="1.678" height="40.0638" fill="#fff"/>
	
		<rect x="444.8209" y="156.1451" transform="matrix(0.9052 -0.4249 0.4249 0.9052 -32.6259 206.073)" width="1.678" height="40.0638" fill="#fff"/>
	
		<rect x="441.4412" y="136.208" transform="matrix(0.9052 -0.425 0.425 0.9052 -33.6198 204.7979)" width="1.678" height="83.1111" fill="#fff"/>
	<path fill="#fff" d="M352.9873,149.704c-0.1407,12.5934,14.584,33.318,22.4314,33.4057c7.8474,0.0876,23.0315-20.3029,23.1721-32.8962
		c0.1406-12.5935-9.9526-22.9158-22.5471-23.0566C363.4513,127.0163,353.1279,137.1106,352.9873,149.704z M376.8774,151.8634
		c2.0159-2.0229,6.071-1.2504,9.0573,1.7255s3.5383,10.3463,3.5383,10.3463s-7.8521-0.0448-10.8383-3.0207
		C375.6484,157.9386,374.8617,153.8863,376.8774,151.8634z"/>
	<path fill="#fff" d="M355.5181,197.3292l8.5452,12.4914l0.2141,0.313c0.8711,1.2567,2.3035,2.1031,3.9497,2.1648l17.328,0.6517l17.3344,0.5591
		c2.1299,0.0624,4.0022-1.5203,4.2417-3.676c0.2524-2.2693-1.3831-4.3134-3.6519-4.5657l-17.2371-1.9157l-14.3755-1.5195
		l-6.733-11.2988c-1.3275-2.2527-2.6891-4.4833-4.0604-6.7067c-1.2468-1.9988-2.5264-3.9766-3.8582-5.9214
		c-0.6536-1.4622-1.5471-2.7141-2.7267-3.6398c-5.8644-4.6061-16.7913-3.9787-25.2439,8.3409
		c-6.0321,8.8909-10.3439,16.4058-13.7996,24.6648c8.3552,4.8195,17.6705,9.5396,27.6923,14.0325
		c3.74-7.952,7.812-15.3483,11.0244-21.4857C354.6577,199.022,355.1018,198.1834,355.5181,197.3292z"/>
	<path fill="#fff" d="M265.8152,162.3379c-4.5221,12.525,4.6431,27.4575,26.5043,43.1827c18.5446,13.3399,45.1447,26.6033,74.8994,37.3463
		c57.4567,20.7448,119.7688,29.6632,129.459,2.8243c17.5582-48.6306-18.0394-106.3843-79.6044-130.208l1.6986-4.7048
		l15.9406-44.1505c3.6453-0.1918,6.9963-2.52,8.3138-6.1691c1.7551-4.8611-0.7628-10.2245-5.6238-11.9796
		c-4.8611-1.7551-10.2245,0.7628-11.9796,5.6238c-1.3174,3.6491-0.2267,7.581,2.4553,10.0573l-15.9407,44.1505l-1.6986,4.7048
		C347.6549,92.0151,283.3733,113.7073,265.8152,162.3379z M491.0344,243.6536c-3.4652,9.5977-18.3523,13.9813-41.9172,12.3434
		c-22.2522-1.5466-50.6139-8.2139-79.8607-18.7736s-55.3263-23.5483-73.4341-36.5737
		c-19.176-13.7937-27.829-26.6765-24.3636-36.2742c16.7556-46.4081,79.6381-66.3822,140.1754-44.5251
		C472.1715,141.7074,507.7902,197.2454,491.0344,243.6536z M429.1851,55.461c1.0032-2.7786,4.0798-4.2229,6.8594-3.2194
		c2.7784,1.0032,4.2228,4.0798,3.2196,6.8584c-1.0033,2.779-4.08,4.2233-6.8585,3.2202
		C429.626,61.3167,428.1816,58.24,429.1851,55.461z"/>
	<path fill="#fff" d="M178.7798,144.6938c-2.3347,1.8003-2.6736,4.7368-2.687,4.8608c-0.0586,0.5474,0.3367,1.0371,0.884,1.0981
		c0.0374,0.0044,0.0745,0.0063,0.1113,0.0063c0.5015,0,0.9341-0.3779,0.9929-0.8877c0.0024-0.022,0.2756-2.2368,1.9338-3.5044
		c1.0615-0.812,2.5015-1.0879,4.2788-0.8174c0.5449,0.082,1.0557-0.293,1.1387-0.8389c0.0828-0.5464-0.293-1.0557-0.8391-1.1387
		C182.2471,143.1167,180.2915,143.5273,178.7798,144.6938z"/>
	<path fill="#fff" d="M184.811,139.0234c-3.4724-0.6626-6.4011-0.1812-8.7058,1.4331c-3.5078,2.4565-4.217,6.6265-4.2456,6.8032
		c-0.0879,0.5439,0.2815,1.0552,0.8254,1.1445c0.0547,0.0088,0.1091,0.0132,0.1628,0.0132c0.4802,0,0.9041-0.3477,0.9858-0.8364
		c0.0059-0.0352,0.6201-3.5381,3.4348-5.4976c1.8433-1.2837,4.2537-1.6538,7.167-1.0952c0.5437,0.1011,1.0662-0.2529,1.1699-0.7949
		C185.7092,139.6509,185.3535,139.1274,184.811,139.0234z"/>
	<path fill="#fff" d="M571.9275,285.3047c0.1953,1.3221-0.2618,2.7152-1.3605,4.1382c-0.3361,0.4368-0.2559,1.0653,0.1813,1.4026
		c0.4377,0.3374,1.0652,0.2559,1.4028-0.1815c1.4487-1.8793,2.0381-3.7886,1.7512-5.6764
		c-0.4419-2.9149-2.8455-4.6356-2.9474-4.7075c-0.4503-0.3167-1.0702-0.2086-1.3892,0.2405
		c-0.0219,0.0305-0.0416,0.062-0.0594,0.0942c-0.2433,0.4385-0.1226,1.0002,0.2947,1.2989
		C569.819,281.9266,571.6233,283.2398,571.9275,285.3047z"/>
	<path fill="#fff" d="M576.9182,284.9322c0.2285,2.2346-0.6169,4.522-2.5186,6.7988c-0.3521,0.4264-0.2959,1.055,0.1277,1.4086
		c0.4241,0.3539,1.0544,0.2967,1.4084-0.1273c2.2637-2.7153,3.2632-5.5099,2.9694-8.3083c-0.4468-4.259-3.7494-6.9018-3.89-7.0125
		c-0.4331-0.3407-1.0593-0.2656-1.4014,0.1667c-0.0342,0.0436-0.0645,0.0891-0.0906,0.136
		c-0.2329,0.4199-0.1344,0.9592,0.2534,1.2678C573.8044,279.2842,576.5698,281.5204,576.9182,284.9322z"/>
	<polygon points="440.6487,40.7636 454.6106,19.414 444.842,18.6093 453.1389,1.5839 449.2053,0 440.5452,21.3183 449.3723,21.4277 
		439.7659,40.3613 	" fill="#fff"/>
	<polygon points="449.4034,48.1983 449.613,48.9895 471.0713,46.7033 466.3633,39.8729 481.9568,36.19 480.889,32.7661 
		462.2889,38.5107 466.9451,44.351 	" fill="#fff"/>
	<polygon points="421.8142,24.4678 427.8563,41.0865 428.5996,40.783 423.5699,20.137 417.5177,25.617 411.8901,10.881 
		408.6843,12.3711 416.7195,29.7714 	" fill="#fff"/>
	<rect x="218.9243" y="69.3595" width="147.9714" height="2.6429" fill="#fff"/>
	<rect x="188.0969" y="85.2167" width="147.9714" height="2.6428" fill="#fff"/>
	<rect x="96" y="77.2881" width="212.3237" height="2.6429" fill="#fff"/>
	<polygon points="274.1985,319.3785 274.1985,316.7357 200.4524,316.7357 173.6011,316.7357 124.4229,316.7357 124.4229,319.3785 
		174.4598,319.3785 199.5936,319.3785 	" fill="#fff"/>
	<rect x="93.2197" y="332.5928" width="149.7754" height="2.6428" fill="#fff"/>
	<polygon points="189.7659,327.3071 214.9124,327.3071 214.9124,324.6642 195.4709,324.6642 178.5825,324.6642 0,324.6642 
		0,327.3071 184.2876,327.3071 	" fill="#fff"/>
	<path fill="#fff" d="M138.2521,164.7078l-0.3141,3.6534l6.8153,0.5519c-0.0302,6.1833-4.755,11.4459-11.0369,12.0144
		c-6.4152,0.5793-12.1014-3.9496-13.0709-10.2294c0.15-0.0091,0.2979-0.0042,0.4485-0.0179
		c3.1165-0.2816,5.9202-1.5024,8.1641-3.3543c-1.3572,0.679-2.8555,1.1306-4.4578,1.2756
		c-6.8755,0.6234-12.9523-4.4449-13.5757-11.3203c-0.6216-6.8745,4.4482-12.9521,11.3221-13.5748
		c3.2609-0.2946,6.3342,0.7021,8.7394,2.5539c-1.0687-1.2932-2.3544-2.3878-3.7864-3.2583
		c1.9879-2.6946,5.0654-4.5666,8.6626-4.8922c6.6729-0.6052,12.5739,4.3165,13.1779,10.9898c0.2101,2.319-0.2592,4.538-1.225,6.4805
		l-6.3944-2.6914l-1.4067,3.3878l11.8336,4.2801l15.2771,5.5256l0.7441-2.0613l-16.6653-7.0145
		c1.5779-2.6702,2.3751-5.8345,2.0746-9.159c-0.7634-8.4293-8.2152-14.6458-16.6464-13.8832
		c-5.2354,0.4733-9.613,3.5302-11.9989,7.7964c-2.0259-0.7512-4.2396-1.0894-6.535-0.8815
		c-8.2297,0.7451-14.2976,8.0187-13.5531,16.2473c0.6591,7.2878,6.4393,12.8689,13.4668,13.5381
		c-0.0085,0.5201,0.0066,1.0449,0.0546,1.5747c0.7264,8.0291,7.8231,13.9478,15.8528,13.2227
		c8.0286-0.7277,13.9485-7.825,13.2222-15.8541c-0.0149-0.1638-0.0483-0.3209-0.0685-0.4828l19.1666,1.5519l0.2893-2.1686
		l-15.7308-2.0922L138.2521,164.7078z"/>
	<path fill="#fff" d="M490.7163,163.9764c0.021,0.007,2.1304,0.735,3.0253,2.6206c0.5734,1.2072,0.5437,2.673-0.0907,4.3552
		c-0.1936,0.5159,0.0669,1.0935,0.5836,1.2883c0.5172,0.1946,1.0935-0.0669,1.2883-0.5838
		c0.8358-2.2209,0.8409-4.2191,0.0145-5.9404c-1.2751-2.6582-4.0769-3.6006-4.1953-3.6395
		c-0.5232-0.1712-1.0845,0.1135-1.2581,0.6362c-0.0122,0.0356-0.0217,0.0715-0.0294,0.1076
		C489.9502,163.311,490.2299,163.8127,490.7163,163.9764z"/>
	<path fill="#fff" d="M493.7424,160.2777c0.0332,0.0131,3.3315,1.3427,4.6626,4.5034c0.8721,2.07,0.7327,4.5047-0.4199,7.238
		c-0.2119,0.5108,0.0256,1.0955,0.5342,1.3097c0.509,0.2144,1.095-0.0247,1.3096-0.5336c1.3706-3.2585,1.509-6.2233,0.4095-8.8135
		c-1.673-3.9421-5.6041-5.5034-5.7711-5.5681c-0.5137-0.1992-1.0906,0.0558-1.2911,0.5693
		c-0.0199,0.0516-0.0355,0.104-0.0468,0.1565C493.0295,159.6091,493.2813,160.096,493.7424,160.2777z"/>
</g>
</svg>
