<?xml version="1.0" encoding="UTF-8" standalone="no"?>
<!-- Created with Inkscape (http://www.inkscape.org/) -->

<svg
   version="1.1"
   id="svg3084"
   xml:space="preserve"
   width="682.66669"
   height="682.66669"
   viewBox="0 0 682.66669 682.66669"
   xmlns="http://www.w3.org/2000/svg"
   xmlns:svg="http://www.w3.org/2000/svg"><defs
     id="defs3088"><clipPath
       clipPathUnits="userSpaceOnUse"
       id="clipPath3098"><path
         d="M 0,512 H 512 V 0 H 0 Z"
         id="path3096" /></clipPath></defs><g
     id="g3090"
     transform="matrix(1.3333333,0,0,-1.3333333,0,682.66667)"><g
       id="g3092"><g
         id="g3094"
         clip-path="url(#clipPath3098)"><g
           id="g3100"
           transform="translate(36.168,419.915)"><path
             d="m 0,0 v 54.585 c 0,16.568 13.432,30 30,30 h 325.688 c 16.569,0 30,-13.432 30,-30 v -157.42"
             style="fill:none;stroke:#000000;stroke-width:15;stroke-linecap:round;stroke-linejoin:round;stroke-miterlimit:10;stroke-dasharray:none;stroke-opacity:1"
             id="path3102" /></g><g
           id="g3104"
           transform="translate(241.4004,85.1006)"><path
             d="m 0,0 h -175.232 c -16.569,0 -30,13.432 -30,30 v 269.515"
             style="fill:none;stroke:#000000;stroke-width:15;stroke-linecap:round;stroke-linejoin:round;stroke-miterlimit:10;stroke-dasharray:none;stroke-opacity:1"
             id="path3106" /></g><g
           id="g3108"
           transform="translate(147.4248,464.3965)"><path
             d="M 0,0 H 19.015 V -88.963"
             style="fill:none;stroke:#000000;stroke-width:15;stroke-linecap:round;stroke-linejoin:round;stroke-miterlimit:10;stroke-dasharray:none;stroke-opacity:1"
             id="path3110" /></g><g
           id="g3112"
           transform="translate(198.8174,464.3965)"><path
             d="M 0,0 H 19.015 V -88.963"
             style="fill:none;stroke:#000000;stroke-width:15;stroke-linecap:round;stroke-linejoin:round;stroke-miterlimit:10;stroke-dasharray:none;stroke-opacity:1"
             id="path3114" /></g><g
           id="g3116"
           transform="translate(126.5791,399.3447)"><path
             d="m 0,0 c 0,-14.208 -11.518,-25.727 -25.726,-25.727 -14.208,0 -25.725,11.519 -25.725,25.727 v 41.142 c 0,14.208 11.517,25.725 25.725,25.725 C -11.518,66.867 0,55.35 0,41.142 Z"
             style="fill:none;stroke:#000000;stroke-width:15;stroke-linecap:round;stroke-linejoin:round;stroke-miterlimit:10;stroke-dasharray:none;stroke-opacity:1"
             id="path3118" /></g><g
           id="g3120"
           transform="translate(301.9316,399.3447)"><path
             d="m 0,0 c 0,-14.208 -11.519,-25.727 -25.727,-25.727 -14.207,0 -25.725,11.519 -25.725,25.727 v 41.142 c 0,14.208 11.518,25.725 25.725,25.725 C -11.519,66.867 0,55.35 0,41.142 Z"
             style="fill:none;stroke:#000000;stroke-width:15;stroke-linecap:round;stroke-linejoin:round;stroke-miterlimit:10;stroke-dasharray:none;stroke-opacity:1"
             id="path3122" /></g><g
           id="g3124"
           transform="translate(382.8965,399.3447)"><path
             d="m 0,0 c 0,-14.208 -11.518,-25.727 -25.726,-25.727 -14.208,0 -25.725,11.519 -25.725,25.727 v 41.142 c 0,14.208 11.517,25.725 25.725,25.725 C -11.518,66.867 0,55.35 0,41.142 Z"
             style="fill:none;stroke:#000000;stroke-width:15;stroke-linecap:round;stroke-linejoin:round;stroke-miterlimit:10;stroke-dasharray:none;stroke-opacity:1"
             id="path3126" /></g><g
           id="g3128"
           transform="translate(75.1279,339.2812)"><path
             d="M 0,0 H 19.015 V -88.962"
             style="fill:none;stroke:#000000;stroke-width:15;stroke-linecap:round;stroke-linejoin:round;stroke-miterlimit:10;stroke-dasharray:none;stroke-opacity:1"
             id="path3130" /></g><g
           id="g3132"
           transform="translate(198.0371,339.2812)"><path
             d="M 0,0 H 19.015 V -88.962"
             style="fill:none;stroke:#000000;stroke-width:15;stroke-linecap:round;stroke-linejoin:round;stroke-miterlimit:10;stroke-dasharray:none;stroke-opacity:1"
             id="path3134" /></g><g
           id="g3136"
           transform="translate(336.1836,339.2812)"><path
             d="M 0,0 H 19.015 V -39.247"
             style="fill:none;stroke:#000000;stroke-width:15;stroke-linecap:round;stroke-linejoin:round;stroke-miterlimit:10;stroke-dasharray:none;stroke-opacity:1"
             id="path3138" /></g><g
           id="g3140"
           transform="translate(175.9922,274.2295)"><path
             d="m 0,0 c 0,-14.208 -11.518,-25.726 -25.726,-25.726 -14.208,0 -25.725,11.518 -25.725,25.726 v 41.142 c 0,14.208 11.517,25.725 25.725,25.725 C -11.518,66.867 0,55.35 0,41.142 Z"
             style="fill:none;stroke:#000000;stroke-width:15;stroke-linecap:round;stroke-linejoin:round;stroke-miterlimit:10;stroke-dasharray:none;stroke-opacity:1"
             id="path3142" /></g><g
           id="g3144"
           transform="translate(250.4795,286.6885)"><path
             d="m 0,0 v 28.683 c 0,14.208 11.519,25.725 25.726,25.725 14.208,0 25.726,-11.517 25.726,-25.725 V -0.271"
             style="fill:none;stroke:#000000;stroke-width:15;stroke-linecap:round;stroke-linejoin:round;stroke-miterlimit:10;stroke-dasharray:none;stroke-opacity:1"
             id="path3146" /></g><g
           id="g3148"
           transform="translate(156.0928,190.2559)"><path
             d="M 0,0 C 0,14.208 11.519,25.726 25.727,25.726 39.934,25.726 51.452,14.208 51.452,0 V -41.142 C 51.452,-55.35 39.934,-66.867 25.727,-66.867 11.519,-66.867 0,-55.35 0,-41.142 Z"
             style="fill:none;stroke:#000000;stroke-width:15;stroke-linecap:round;stroke-linejoin:round;stroke-miterlimit:10;stroke-dasharray:none;stroke-opacity:1"
             id="path3150" /></g><g
           id="g3152"
           transform="translate(75.1279,190.2559)"><path
             d="M 0,0 C 0,14.208 11.518,25.726 25.726,25.726 39.934,25.726 51.451,14.208 51.451,0 V -41.142 C 51.451,-55.35 39.934,-66.867 25.726,-66.867 11.518,-66.867 0,-55.35 0,-41.142 Z"
             style="fill:none;stroke:#000000;stroke-width:15;stroke-linecap:round;stroke-linejoin:round;stroke-miterlimit:10;stroke-dasharray:none;stroke-opacity:1"
             id="path3154" /></g><g
           id="g3156"
           transform="translate(380.5059,65.0098)"><path
             d="m 0,0 v -42.51 c 0,-8.284 -6.716,-15 -15,-15 h -16.67 c -8.284,0 -15,6.716 -15,15 v 42.509"
             style="fill:none;stroke:#000000;stroke-width:15;stroke-linecap:round;stroke-linejoin:round;stroke-miterlimit:10;stroke-dasharray:none;stroke-opacity:1"
             id="path3158" /></g><g
           id="g3160"
           transform="translate(436.0479,214.6934)"><path
             d="m 0,0 c 4.331,-10.241 6.727,-21.501 6.727,-33.321 0,-47.278 -38.327,-85.604 -85.604,-85.604 -47.277,0 -85.603,38.326 -85.603,85.604 0,47.278 38.326,85.603 85.603,85.603 23.639,0 45.04,-9.581 60.531,-25.072"
             style="fill:none;stroke:#000000;stroke-width:15;stroke-linecap:round;stroke-linejoin:round;stroke-miterlimit:10;stroke-dasharray:none;stroke-opacity:1"
             id="path3162" /></g><g
           id="g3164"
           transform="translate(475.832,181.3721)"><path
             d="m 0,0 c 0,-65.534 -53.126,-118.661 -118.661,-118.661 -65.534,0 -118.661,53.127 -118.661,118.661 0,65.535 53.127,118.662 118.661,118.662 C -53.126,118.662 0,65.535 0,0 Z"
             style="fill:none;stroke:#000000;stroke-width:15;stroke-linecap:round;stroke-linejoin:round;stroke-miterlimit:10;stroke-dasharray:none;stroke-opacity:1"
             id="path3166" /></g><g
           id="g3168"
           transform="translate(382.8965,160.8018)"><path
             d="m 0,0 c 0,-14.208 -11.518,-25.726 -25.726,-25.726 -14.208,0 -25.725,11.518 -25.725,25.726 v 41.142 c 0,14.208 11.517,25.725 25.725,25.725 C -11.518,66.867 0,55.35 0,41.142 Z"
             style="fill:none;stroke:#000000;stroke-width:15;stroke-linecap:round;stroke-linejoin:round;stroke-miterlimit:10;stroke-dasharray:none;stroke-opacity:1"
             id="path3170" /></g></g></g></g></svg>
