<?xml version="1.0" encoding="UTF-8"?>
<svg xmlns="http://www.w3.org/2000/svg" xmlns:xlink="http://www.w3.org/1999/xlink" version="1.1" id="Capa_1" x="0px" y="0px" viewBox="0 0 511.995 511.995" style="enable-background:new 0 0 511.995 511.995;" xml:space="preserve" width="512" height="512">
<g>
	
		<circle style="fill:none;stroke:#ffffff;stroke-width:15;stroke-linecap:round;stroke-linejoin:round;stroke-miterlimit:10;" cx="410.904" cy="49.908" r="42.408"/>
	
		<circle style="fill:none;stroke:#ffffff;stroke-width:15;stroke-linecap:round;stroke-linejoin:round;stroke-miterlimit:10;" cx="444.351" cy="336.407" r="34.165"/>
	
		<circle style="fill:none;stroke:#ffffff;stroke-width:15;stroke-linecap:round;stroke-linejoin:round;stroke-miterlimit:10;" cx="67.644" cy="285.127" r="34.165"/>
	
		<circle style="fill:none;stroke:#ffffff;stroke-width:15;stroke-linecap:round;stroke-linejoin:round;stroke-miterlimit:10;" cx="176.034" cy="451.751" r="52.745"/>
	
		<line style="fill:none;stroke:#ffffff;stroke-width:15;stroke-linecap:round;stroke-linejoin:round;stroke-miterlimit:10;" x1="355.767" y1="286.781" x2="412.718" y2="318.685"/>
	
		<line style="fill:none;stroke:#ffffff;stroke-width:15;stroke-linecap:round;stroke-linejoin:round;stroke-miterlimit:10;" x1="150.336" y1="118.398" x2="222.831" y2="188.198"/>
	
		<line style="fill:none;stroke:#ffffff;stroke-width:15;stroke-linecap:round;stroke-linejoin:round;stroke-miterlimit:10;" x1="199.235" y1="261.099" x2="104.037" y2="278.481"/>
	
		<line style="fill:none;stroke:#ffffff;stroke-width:15;stroke-linecap:round;stroke-linejoin:round;stroke-miterlimit:10;" x1="386.519" y1="87.183" x2="328.749" y2="175.487"/>
	
		<line style="fill:none;stroke:#ffffff;stroke-width:15;stroke-linecap:round;stroke-linejoin:round;stroke-miterlimit:10;" x1="201.571" y1="402.464" x2="244.076" y2="320.427"/>
	<path style="fill:none;stroke:#ffffff;stroke-width:15;stroke-linecap:round;stroke-linejoin:round;stroke-miterlimit:10;" d="&#10;&#9;&#9;M127.65,129.73c20.667-7.23,35.496-26.89,35.496-50.025c0-29.269-23.727-52.996-52.996-52.996S57.153,50.436,57.153,79.705&#10;&#9;&#9;c0,23.135,14.829,42.795,35.496,50.025"/>
	<path style="fill:none;stroke:#ffffff;stroke-width:15;stroke-linecap:round;stroke-linejoin:round;stroke-miterlimit:10;" d="&#10;&#9;&#9;M362.371,226.099c-8.845-35.778-41.146-62.31-79.657-62.31c-45.324,0-82.067,36.743-82.067,82.067s36.743,82.067,82.067,82.067&#10;&#9;&#9;c40.113,0,73.483-28.787,80.631-66.824"/>
</g>















</svg>
