<?xml version="1.0" encoding="UTF-8" standalone="no"?>
<!DOCTYPE svg PUBLIC "-//W3C//DTD SVG 1.1//EN" "http://www.w3.org/Graphics/SVG/1.1/DTD/svg11.dtd">
<svg width="100%" height="100%" viewBox="0 0 40 40" version="1.1" xmlns="http://www.w3.org/2000/svg" xmlns:xlink="http://www.w3.org/1999/xlink" xml:space="preserve" xmlns:serif="http://www.serif.com/" style="fill-rule:evenodd;clip-rule:evenodd;stroke-linejoin:round;stroke-miterlimit:2;">
    <g transform="matrix(1,0,0,1,-4,-4)">
        <path d="M9.7,44C8.117,44 6.771,43.451 5.663,42.352C4.554,41.253 4,39.919 4,38.35C4,37.083 4.375,35.961 5.125,34.984C5.875,34.006 6.833,33.328 8,32.95L8,28.1C8,26.567 8.55,25.25 9.65,24.15C10.75,23.05 12.067,22.5 13.6,22.5L22.5,22.5L22.5,15.1C21.3,14.767 20.308,14.1 19.525,13.1C18.742,12.1 18.35,10.95 18.35,9.65C18.35,8.081 18.903,6.747 20.008,5.648C21.112,4.549 22.454,4 24.033,4C25.611,4 26.942,4.549 28.025,5.648C29.108,6.747 29.65,8.081 29.65,9.65C29.65,10.95 29.258,12.1 28.475,13.1C27.692,14.1 26.7,14.767 25.5,15.1L25.5,22.5L34.4,22.5C35.933,22.5 37.25,23.05 38.35,24.15C39.45,25.25 40,26.567 40,28.1L40,32.95C41.167,33.328 42.125,34.006 42.875,34.984C43.625,35.961 44,37.083 44,38.35C44,39.919 43.456,41.253 42.367,42.352C41.278,43.451 39.956,44 38.4,44C36.817,44 35.471,43.451 34.363,42.352C33.254,41.253 32.7,39.919 32.7,38.35C32.7,37.017 33.108,35.842 33.925,34.825C34.742,33.808 35.767,33.15 37,32.85L37,28.1C37,27.4 36.742,26.792 36.225,26.275C35.708,25.758 35.1,25.5 34.4,25.5L13.6,25.5C12.9,25.5 12.292,25.758 11.775,26.275C11.258,26.792 11,27.4 11,28.1L11,32.85C12.233,33.15 13.258,33.808 14.075,34.825C14.892,35.842 15.3,37.017 15.3,38.35C15.3,39.919 14.756,41.253 13.666,42.352C12.578,43.451 11.256,44 9.7,44ZM9.704,41C10.439,41 11.056,40.742 11.554,40.225C12.051,39.708 12.3,39.083 12.3,38.35C12.3,37.617 12.051,36.992 11.554,36.475C11.056,35.958 10.439,35.7 9.704,35.7C8.968,35.7 8.333,35.958 7.8,36.475C7.267,36.992 7,37.617 7,38.35C7,39.083 7.267,39.708 7.8,40.225C8.333,40.742 8.968,41 9.704,41ZM38.404,41C39.139,41 39.756,40.742 40.254,40.225C40.751,39.708 41,39.083 41,38.35C41,37.617 40.751,36.992 40.254,36.475C39.756,35.958 39.139,35.7 38.404,35.7C37.668,35.7 37.033,35.958 36.5,36.475C35.967,36.992 35.7,37.617 35.7,38.35C35.7,39.083 35.967,39.708 36.5,40.225C37.033,40.742 37.668,41 38.404,41ZM24.054,12.3C24.789,12.3 25.406,12.042 25.903,11.525C26.401,11.008 26.65,10.383 26.65,9.65C26.65,8.917 26.401,8.292 25.904,7.775C25.406,7.258 24.789,7 24.054,7C23.318,7 22.683,7.258 22.15,7.775C21.617,8.292 21.35,8.917 21.35,9.65C21.35,10.383 21.617,11.008 22.15,11.525C22.683,12.042 23.318,12.3 24.054,12.3Z" style="fill:rgb(117,117,117);fill-rule:nonzero;"/>
    </g>
</svg>
