<svg version="1.1" id="Capa_1" xmlns="http://www.w3.org/2000/svg" xmlns:xlink="http://www.w3.org/1999/xlink" x="0px" y="0px" viewBox="0 0 512 512" style="enable-background:new 0 0 512 512;" xml:space="preserve">
<g>
	<g>
		
			<line style="fill:none;stroke:#000000;stroke-width:15;stroke-linecap:round;stroke-linejoin:round;stroke-miterlimit:10;" x1="270.922" y1="207.201" x2="241.078" y2="282.236"/>
		<g>
			
				<polyline style="fill:none;stroke:#000000;stroke-width:15;stroke-linecap:round;stroke-linejoin:round;stroke-miterlimit:10;" points="&#10;&#9;&#9;&#9;&#9;320.959,210.799 341,244.04 320.959,278.638 &#9;&#9;&#9;"/>
		</g>
		<g>
			
				<polyline style="fill:none;stroke:#000000;stroke-width:15;stroke-linecap:round;stroke-linejoin:round;stroke-miterlimit:10;" points="&#10;&#9;&#9;&#9;&#9;191.041,210.799 171,244.04 191.041,278.638 &#9;&#9;&#9;"/>
		</g>
		<path style="fill:none;stroke:#000000;stroke-width:15;stroke-linecap:round;stroke-linejoin:round;stroke-miterlimit:10;" d="&#10;&#9;&#9;&#9;M191.249,453.31c0,0,9.909,9.971,20.7,3.981c5.325-2.956,8.538-8.657,8.538-14.747v-66.337"/>
		<path style="fill:none;stroke:#000000;stroke-width:15;stroke-linecap:round;stroke-linejoin:round;stroke-miterlimit:10;" d="&#10;&#9;&#9;&#9;M266.85,446.9c3.88,4.29,9.34,7.99,15.87,10.19c3.99,1.34,8.38,2.12,13.06,2.12c3.98,0,7.66-0.77,10.9-2.12&#10;&#9;&#9;&#9;c16.82-6.97,21.93-29.27-3.7-38.73c-12.7-4.68-24.14-9.79-24.14-9.79c-11.67-7.61-9.41-26.2,6.71-31.06&#10;&#9;&#9;&#9;c17.56-5.29,32.46,7.23,32.46,7.23"/>
	</g>
	<g>
		
			<line style="fill:none;stroke:#000000;stroke-width:15;stroke-linecap:round;stroke-linejoin:round;stroke-miterlimit:10;" x1="68.68" y1="117.733" x2="68.68" y2="330.91"/>
		<path style="fill:none;stroke:#000000;stroke-width:15;stroke-linecap:round;stroke-linejoin:round;stroke-miterlimit:10;" d="&#10;&#9;&#9;&#9;M443.32,330.91V158.52L296.05,7.5H94.72c-14.38,0-26.04,11.66-26.04,26.05v49.462"/>
		<path style="fill:none;stroke:#000000;stroke-width:15;stroke-linecap:round;stroke-linejoin:round;stroke-miterlimit:10;" d="&#10;&#9;&#9;&#9;M443.325,158.524h-121.23c-14.385,0-26.047-11.662-26.047-26.047V7.5L443.325,158.524z"/>
		<path style="fill:none;stroke:#000000;stroke-width:15;stroke-linecap:round;stroke-linejoin:round;stroke-miterlimit:10;" d="&#10;&#9;&#9;&#9;M398.239,504.5h64.818c11.921,0,21.584-9.664,21.584-21.584V352.498c0-11.921-9.664-21.584-21.584-21.584H48.943&#10;&#9;&#9;&#9;c-11.921,0-21.584,9.664-21.584,21.584v130.418c0,11.921,9.664,21.584,21.584,21.584H361.8"/>
	</g>
</g>
<g>
</g>
<g>
</g>
<g>
</g>
<g>
</g>
<g>
</g>
<g>
</g>
<g>
</g>
<g>
</g>
<g>
</g>
<g>
</g>
<g>
</g>
<g>
</g>
<g>
</g>
<g>
</g>
<g>
</g>
</svg>