<?xml version="1.0" encoding="UTF-8" standalone="no"?>
<!-- Created with Inkscape (http://www.inkscape.org/) -->

<svg
   version="1.1"
   id="svg1899"
   xml:space="preserve"
   width="682.66669"
   height="682.66669"
   viewBox="0 0 682.66669 682.66669"
   xmlns="http://www.w3.org/2000/svg"
   xmlns:svg="http://www.w3.org/2000/svg"><defs
     id="defs1903"><clipPath
       clipPathUnits="userSpaceOnUse"
       id="clipPath1913"><path
         d="M 0,512 H 512 V 0 H 0 Z"
         id="path1911" /></clipPath></defs><g
     id="g1905"
     transform="matrix(1.3333333,0,0,-1.3333333,0,682.66667)"><g
       id="g1907"><g
         id="g1909"
         clip-path="url(#clipPath1913)"><g
           id="g1915"
           transform="translate(333.4893,157.5322)"><path
             d="m 0,0 c -1.902,-1.903 -0.556,-5.156 2.136,-5.156 h 63.583 c 2.136,0 4.184,0.848 5.695,2.359 l 98.417,98.417 c 1.573,1.572 1.573,4.123 0,5.695 l -98.417,98.417 c -1.511,1.511 -3.559,2.36 -5.695,2.36 H 2.136 c -2.692,0 -4.038,-3.253 -2.136,-5.156 l 95.62,-95.621 c 1.573,-1.573 1.573,-4.122 0,-5.695 z"
             style="fill:none;stroke:#ffffff;stroke-width:15;stroke-linecap:round;stroke-linejoin:round;stroke-miterlimit:10;stroke-dasharray:none;stroke-opacity:1"
             id="path1917" /></g><g
           id="g1919"
           transform="translate(46.0459,215.7861)"><path
             d="m 0,0 -37.366,37.366 c -1.573,1.573 -1.573,4.122 0,5.696 l 98.417,98.417 c 1.511,1.51 3.558,2.359 5.695,2.359 h 63.583 c 2.692,0 4.038,-3.253 2.136,-5.156 l -95.62,-95.62 c -1.574,-1.573 -1.574,-4.124 0,-5.696 l 95.62,-95.62 c 1.902,-1.903 0.556,-5.156 -2.136,-5.156 H 66.746 c -2.137,0 -4.184,0.848 -5.695,2.359 l -36.304,36.304"
             style="fill:none;stroke:#ffffff;stroke-width:15;stroke-linecap:round;stroke-linejoin:round;stroke-miterlimit:10;stroke-dasharray:none;stroke-opacity:1"
             id="path1921" /></g><g
           id="g1923"
           transform="translate(283.4072,194.6904)"><path
             d="m 0,0 v 240.105 c 0,2.78 -2.254,5.034 -5.033,5.034 h -44.748 c -2.78,0 -5.033,-2.254 -5.033,-5.034 v -357.591 c 0,-2.78 2.253,-5.034 5.033,-5.034 h 44.748 c 2.779,0 5.033,2.254 5.033,5.034 L 0,-35"
             style="fill:none;stroke:#ffffff;stroke-width:15;stroke-linecap:round;stroke-linejoin:round;stroke-miterlimit:10;stroke-dasharray:none;stroke-opacity:1"
             id="path1925" /></g></g></g></g></svg>
