<?xml version="1.0" encoding="UTF-8" standalone="no"?>
<!DOCTYPE svg PUBLIC "-//W3C//DTD SVG 1.1//EN" "http://www.w3.org/Graphics/SVG/1.1/DTD/svg11.dtd">
<svg width="100%" height="100%" viewBox="0 0 415 553" version="1.1" xmlns="http://www.w3.org/2000/svg" xmlns:xlink="http://www.w3.org/1999/xlink" xml:space="preserve" xmlns:serif="http://www.serif.com/" style="fill-rule:evenodd;clip-rule:evenodd;stroke-linejoin:round;stroke-miterlimit:2;">
    <g id="Artboard1" transform="matrix(0.709717,0,0,1.00412,-88.9957,-2.32249)">
        <rect x="125.396" y="2.313" width="583.703" height="550.602" style="fill:none;"/>
        <g transform="matrix(1.40901,0,0,0.995901,-144.182,2.57825)">
            <path d="M327.146,424.362C327.146,424.362 306.177,436.556 342.069,440.683C385.552,445.643 407.775,444.932 455.693,435.863C455.693,435.863 468.291,443.762 485.886,450.604C378.466,496.642 242.773,447.937 327.146,424.362M314.02,364.285C314.02,364.285 290.501,381.694 326.42,385.41C372.869,390.202 409.551,390.594 473.026,378.371C473.026,378.371 481.806,387.272 495.611,392.139C365.733,430.117 221.074,395.134 314.02,364.285" style="fill:rgb(83,130,161);fill-rule:nonzero;"/>
        </g>
        <g transform="matrix(1.40901,0,0,0.995901,-144.182,2.57825)">
            <path d="M424.677,262.375C451.145,292.848 417.724,320.272 417.724,320.272C417.724,320.272 484.929,285.577 454.065,242.132C425.238,201.614 403.131,181.485 522.807,112.077C522.809,112.076 334.955,158.993 424.677,262.375" style="fill:rgb(231,111,0);fill-rule:nonzero;"/>
        </g>
        <g transform="matrix(1.40901,0,0,0.995901,-144.182,2.57825)">
            <path d="M566.748,468.799C566.748,468.799 582.266,481.586 549.659,491.476C487.654,510.259 291.591,515.931 237.125,492.226C217.546,483.707 254.262,471.887 265.812,469.407C277.857,466.795 284.74,467.281 284.74,467.281C262.966,451.942 144.003,497.398 224.313,510.418C443.329,545.936 623.56,494.424 566.748,468.799M337.23,302.038C337.23,302.038 237.499,325.726 301.913,334.328C329.11,337.969 383.327,337.145 433.828,332.914C475.101,329.432 516.545,322.032 516.545,322.032C516.545,322.032 501.992,328.264 491.463,335.452C390.188,362.089 194.545,349.696 250.868,322.452C298.501,299.427 337.23,302.038 337.23,302.038M516.134,402.04C619.084,348.543 571.486,297.131 538.26,304.059C530.117,305.754 526.486,307.222 526.486,307.222C526.486,307.222 529.51,302.487 535.281,300.437C601.009,277.329 651.559,368.59 514.063,404.737C514.063,404.737 515.659,403.314 516.134,402.04" style="fill:rgb(83,130,161);fill-rule:nonzero;"/>
        </g>
        <g transform="matrix(1.40901,0,0,0.995901,-144.182,2.57825)">
            <path d="M454.065,0C454.065,0 511.08,57.033 399.988,144.738C310.904,215.089 379.674,255.203 399.951,301.036C347.953,254.117 309.791,212.818 335.393,174.379C372.968,117.953 477.069,90.596 454.065,-0" style="fill:rgb(231,111,0);fill-rule:nonzero;"/>
        </g>
        <g transform="matrix(1.40901,0,0,0.995901,-144.182,2.57825)">
            <path d="M347.346,547.004C446.166,553.329 597.914,543.494 601.506,496.737C601.506,496.737 594.599,514.461 519.837,528.54C435.495,544.411 331.466,542.559 269.767,532.387C269.77,532.384 282.399,542.839 347.346,547.004" style="fill:rgb(83,130,161);fill-rule:nonzero;"/>
        </g>
    </g>
</svg>
