<?xml version="1.0" encoding="utf-8"?>
<!-- Generator: Adobe Illustrator 24.0.2, SVG Export Plug-In . SVG Version: 6.00 Build 0)  -->
<svg version="1.1" id="Layer_1" xmlns="http://www.w3.org/2000/svg" xmlns:xlink="http://www.w3.org/1999/xlink" x="0px" y="0px"
	 viewBox="0 0 415.7534 391.1487" enable-background="new 0 0 415.7534 391.1487" xml:space="preserve">
<g>
	<path d="M185.3687,0c-28.2488,0-52.0125,7.8194-59.0459,18.4438h118.0918C237.3811,7.8194,213.6174,0,185.3687,0z"/>
	<path d="M165.0273,132.756c-8.8306,11.6685-12.6445,19.9097-15.7992,34.9543c-1.4674,11.1779,5.3656,14.6602,11.3657,16.5798
		c1.5035,0.4814,2.8108,0.8575,3.9655,1.0054c1.4243,0.4895,2.9913,0.62,4.5698,0.2833l7.2908-1.5536l-13.7485,17.3652
		c-2.946,3.72-2.3179,9.1235,1.4021,12.0692c1.5787,1.2499,3.4595,1.8563,5.3281,1.8558c2.5345-0.0002,5.0457-1.1168,6.7411-3.2588
		l22.256-28.1089c1.0684,1.0636,2.4642,1.6135,3.8706,1.6135c1.3545,0,2.7117-0.4973,3.7743-1.5001
		c2.2076-2.0848,2.3082-5.5651,0.2235-7.7731l-1.0322-1.0933c1.7231-2.7532,1.776-6.2705,0.0342-9.0764
		c-1.9104-3.0781-5.5464-4.6254-9.0897-3.8719l-2.6378,0.562l-2.6528-2.8099l-1.3442-23.646
		c0.2145-3.7749-0.9927-7.2961-3.865-9.1243C180.5774,123.9811,171.5005,124.3073,165.0273,132.756z M175.1913,166.7184
		c1.3345-3.2871,2.8995-6.5044,4.5204-9.5708l0.4255,7.4825l0.813,0.8612L175.1913,166.7184z"/>
	
		<rect x="139.7621" y="93.1419" transform="matrix(0.707 -0.7072 0.7072 0.707 -21.6213 135.2998)" width="25.4309" height="1.2041"/>
	
		<rect x="144.1256" y="97.5056" transform="matrix(0.7071 -0.7071 0.7071 0.7071 -23.4354 139.6366)" width="25.4309" height="1.2041"/>
	
		<rect x="132.8367" y="95.3237" transform="matrix(0.7071 -0.7071 0.7071 0.7071 -22.5311 137.4566)" width="43.6452" height="1.2042"/>
	
		<rect x="197.7248" y="214.9694" transform="matrix(0.7071 -0.7071 0.7071 0.7071 -90.7955 211.9431)" width="25.4308" height="1.2042"/>
	
		<rect x="202.0883" y="219.3332" transform="matrix(0.7068 -0.7075 0.7075 0.7068 -92.605 216.4609)" width="25.4308" height="1.2041"/>
	
		<rect x="190.7993" y="217.1513" transform="matrix(0.7071 -0.7071 0.7071 0.7071 -91.6994 214.1273)" width="43.6453" height="1.2042"/>
	<path d="M254.4453,270.35h-99.3682l-0.8105,27.3657c-0.0061,0.1975-0.0248,0.3914-0.0427,0.5852h100.2214
		c1.8975,0,3.4365-1.5383,3.4365-3.4365v-14.2043v-6.8733C257.8818,271.8885,256.3428,270.35,254.4453,270.35z M200.8604,287.0452
		v-5.0402h10.9973v5.0402H200.8604z M218.2725,287.0452v-5.0402h10.9973v5.0402H218.2725z M235.6853,287.0452v-5.0402h10.9973
		v5.0402H235.6853z"/>
	<path d="M222.6915,139.1291c1.0963,0.3082,2.2349-0.3308,2.5431-1.4271c0.3081-1.0963-0.3309-2.2349-1.4272-2.543
		c-1.0964-0.3081-2.2349,0.3309-2.543,1.4271C220.9563,137.6826,221.5952,138.821,222.6915,139.1291z M222.3835,137.0192
		c0.1409-0.501,0.6611-0.793,1.1621-0.6522s0.793,0.661,0.6521,1.162s-0.661,0.793-1.162,0.6521
		C222.5348,138.0405,222.2428,137.5202,222.3835,137.0192z"/>
	<path d="M226.828,129.5556c-0.3053,1.0864,0.3279,2.2148,1.4144,2.5203c1.0864,0.3053,2.2148-0.3279,2.5203-1.4144
		c0.3053-1.0865-0.3279-2.215-1.4146-2.5203C228.2617,127.8359,227.1333,128.4692,226.828,129.5556z M229.9351,130.4872
		c-0.1646,0.5851-0.7721,0.926-1.3572,0.7616c-0.585-0.1644-0.926-0.772-0.7616-1.3571s0.7721-0.926,1.3571-0.7617
		C229.7584,129.2946,230.0994,129.9022,229.9351,130.4872z"/>
	<path d="M225.6042,123.8039c1.6426,0.4617,3.3481-0.4956,3.8098-2.1379c0.4615-1.6426-0.4956-3.3481-2.1382-3.8098
		c-1.6423-0.4615-3.348,0.4956-3.8096,2.1382C223.0046,121.6367,223.9619,123.3423,225.6042,123.8039z M224.6761,120.5241
		c0.267-0.9501,1.2535-1.5038,2.2037-1.2368c0.95,0.2671,1.5038,1.2537,1.2368,2.2039c-0.2671,0.95-1.2537,1.5037-2.2039,1.2367
		C224.9629,122.4609,224.4092,121.4742,224.6761,120.5241z"/>
	<path d="M235.7344,103.8456c-2.2688-0.6377-4.625,0.6846-5.2627,2.9534c-0.6376,2.2688,0.6848,4.625,2.9536,5.2626
		s4.6249-0.6847,5.2625-2.9535C239.3254,106.8393,238.0032,104.4832,235.7344,103.8456z M237.3541,109.0903
		c-0.4365,1.5532-2.0494,2.4584-3.6025,2.0219s-2.4584-2.0494-2.0219-3.6025s2.0494-2.4584,3.6025-2.0219
		C236.8855,105.9243,237.7906,107.5372,237.3541,109.0903z"/>
	<path d="M227.6145,90.0588c-2.7104-0.7617-5.5251,0.818-6.2869,3.5283c-0.7617,2.7104,0.8179,5.5251,3.5283,6.2869
		s5.5251-0.818,6.2869-3.5283C231.9045,93.6352,230.3248,90.8205,227.6145,90.0588z M229.5862,96.2117
		c-0.5229,1.8607-2.4553,2.9452-4.3162,2.4222s-2.9453-2.4553-2.4224-4.3162c0.5229-1.8607,2.4553-2.9453,4.3162-2.4222
		C229.0247,92.4185,230.1091,94.351,229.5862,96.2117z"/>
	<path d="M228.1882,82.1188c0.6412-2.2814-0.6885-4.6506-2.9698-5.2918s-4.6505,0.6885-5.2917,2.9699
		c-0.6412,2.2814,0.6885,4.6505,2.9698,5.2917C225.178,85.7299,227.5471,84.4002,228.1882,82.1188z M221.3955,80.5169
		c0.3851-1.3704,1.8083-2.1691,3.1787-1.7839s2.1692,1.8083,1.7839,3.1787c-0.3851,1.3705-1.8083,2.1691-3.1787,1.7841
		C221.8091,83.3105,221.0103,81.8873,221.3955,80.5169z"/>
	<path d="M196.6467,89.9728c2.8538,0.802,5.8174-0.8612,6.6194-3.715c0.8021-2.8538-0.8611-5.8174-3.7148-6.6194
		c-2.8539-0.8021-5.8175,0.8612-6.6195,3.715C192.1296,86.2072,193.793,89.1708,196.6467,89.9728z M194.9246,84.0832
		c0.5171-1.8406,2.4285-2.9132,4.269-2.3959c1.8403,0.5173,2.9131,2.4286,2.3958,4.269c-0.5172,1.8406-2.4285,2.9132-4.269,2.396
		C195.48,87.8349,194.4072,85.9236,194.9246,84.0832z"/>
	<path d="M254.4453,21.5261H116.292c-1.8975,0-3.4366,1.5385-3.4366,3.4366v1.0417v17.1725c0,1.8982,1.5392,3.4366,3.4366,3.4366
		h1.0641l4.8595,12.8149v99.8366c0.7583,0.1118,1.5144,0.2439,2.2629,0.418c0.6299,0.1465,1.2483,0.321,1.8611,0.5083V61.4005
		h84.024c-1.5269,1.6594-2.9232,3.264-3.8403,5.1805c-0.4185-0.2579-0.8763-0.4664-1.3732-0.606
		c-2.8729-0.8074-5.8564,0.867-6.6639,3.7399c-0.8075,2.873,0.8671,5.8565,3.74,6.6639c1.3324,0.3745,2.6859,0.2097,3.8378-0.3555
		c0.0002,0.0007,0.0002,0.0013,0.0005,0.002c0.6277,2.3976,1.7661,5.259,3.4753,8.702c-1.1378,0.6473-2.0326,1.7234-2.4148,3.0833
		c-0.7703,2.7408,0.8271,5.5872,3.568,6.3575c1.337,0.3757,2.6954,0.1804,3.8295-0.4285
		c3.5234,5.9017,8.1758,13.0302,14.1573,21.7242c10.0045,14.5414,11.9733,26.6908,5.5443,34.2098
		c-5.9988,7.0159-17.6504,8.0784-24.7721,4.668c-2.6132-1.2517-6.7365-4.1788-6.11-9.9631l3.031,0.7446
		c1.4747,0.3624,2.9641-0.5397,3.3259-2.0144c0.2069-0.8416-0.0081-1.6804-0.4963-2.3191c4.0472-0.8236,7.7599-3.2412,10.0942-7.037
		c4.4736-7.2733,2.2017-16.796-5.0718-21.2683c-7.274-4.473-16.7966-2.2015-21.2703,5.0704
		c-4.1884,6.813-2.4609,15.5992,3.7522,20.3599c-0.6028,0.3643-1.0664,0.9586-1.2479,1.6964
		c-0.3624,1.474,0.5397,2.9641,2.0143,3.3258l3.1792,0.781c-0.7574,5.6572,1.9778,10.4048,7.6121,13.1033
		c2.8768,1.3777,6.4109,2.1042,10.0784,2.1042c6.5826-0.0004,13.5908-2.3425,17.9706-7.465
		c4.2361-4.9542,9.1715-16.4208-5.369-37.5551c-6.2633-9.1038-10.9548-16.3179-14.4056-22.1335
		c0.2098-0.3641,0.3925-0.7487,0.5115-1.1719c0.7704-2.7407-0.827-5.5872-3.568-6.3574c-0.4038-0.1135-0.8081-0.1608-1.2097-0.1753
		c-2.2273-4.4208-3.4105-7.7216-3.8308-10.327c0.1848-0.3436,0.3384-0.7101,0.4482-1.1014c0.3566-1.2686,0.2278-2.5581-0.2729-3.673
		c0.6912-2.369,2.2996-4.1147,4.2051-6.177c0.4053-0.4386,0.832-0.9058,1.2661-1.3884h30.3093v185.9133h-88.6602
		c0.0007,0.0875,0.016,0.1761,0.0144,0.2628l-0.6001,20.2537h96.0549l-2.6851-16.0474V59.4288l4.8601-12.8152h1.0635
		c1.8975,0,3.4365-1.5385,3.4365-3.4366V26.0044v-1.0417C257.8818,23.0645,256.3428,21.5261,254.4453,21.5261z M215.5359,90.4006
		c-0.5137,1.8271-2.4111,2.8921-4.2384,2.3787c-1.8273-0.5137-2.8922-2.4111-2.3785-4.2383
		c0.5134-1.8274,2.411-2.8923,4.2383-2.3787C214.9844,86.6757,216.0493,88.5733,215.5359,90.4006z M202.7151,74.7366
		c-1.955-0.5494-3.0945-2.5797-2.5449-4.5347c0.5493-1.955,2.5796-3.0944,4.5347-2.545s3.0945,2.5797,2.5449,4.5347
		C206.7004,74.1467,204.6702,75.2861,202.7151,74.7366z M229.2698,31.3882v5.0402h-10.9973v-5.0402H229.2698z M211.8577,31.3882
		v5.0402h-10.9973v-5.0402H211.8577z M246.6826,36.4285h-10.9973v-5.0402h10.9973V36.4285z"/>
	<path d="M343.2402,0c-28.2488,0-52.0125,7.8194-59.0459,18.4438h118.0918C395.2527,7.8194,371.489,0,343.2402,0z"/>
	<path d="M322.8989,132.756c-8.8306,11.6685-12.6445,19.9097-15.7993,34.9543c-1.4673,11.1779,5.3657,14.6602,11.3658,16.5798
		c1.5035,0.4814,2.8108,0.8575,3.9655,1.0054c1.4243,0.4895,2.9912,0.62,4.5698,0.2833l7.2908-1.5536l-13.7485,17.3652
		c-2.946,3.72-2.3179,9.1235,1.4021,12.0692c1.5786,1.2499,3.4595,1.8563,5.3281,1.8558c2.5345-0.0002,5.0457-1.1168,6.7411-3.2588
		l22.256-28.1089c1.0684,1.0636,2.4642,1.6135,3.8706,1.6135c1.3545,0,2.7117-0.4973,3.7742-1.5001
		c2.2078-2.0848,2.3083-5.5651,0.2236-7.7731l-1.0322-1.0933c1.7231-2.7532,1.776-6.2705,0.0342-9.0764
		c-1.9104-3.0781-5.5464-4.6254-9.0898-3.8719l-2.6377,0.562l-2.6528-2.8099l-1.3442-23.6465
		c0.2144-3.7745-0.9928-7.2957-3.865-9.1238C338.449,123.9811,329.3721,124.3073,322.8989,132.756z M333.0627,166.7184
		c1.3345-3.2871,2.8997-6.5044,4.5205-9.5708l0.4255,7.4825l0.813,0.8612L333.0627,166.7184z"/>
	
		<rect x="297.6337" y="93.1419" transform="matrix(0.7071 -0.7072 0.7072 0.7071 24.6232 246.9274)" width="25.4308" height="1.204"/>
	
		<rect x="301.9972" y="97.5056" transform="matrix(0.7071 -0.7071 0.7071 0.7071 22.8035 251.2685)" width="25.4308" height="1.2041"/>
	
		<rect x="290.7082" y="95.3237" transform="matrix(0.7071 -0.7071 0.7071 0.7071 23.7091 249.0901)" width="43.6453" height="1.2042"/>
	
		<rect x="355.5964" y="214.9694" transform="matrix(0.7071 -0.7071 0.7071 0.7071 -44.5564 323.5738)" width="25.4309" height="1.2042"/>
	
		<rect x="359.9599" y="219.3332" transform="matrix(0.7068 -0.7075 0.7075 0.7068 -46.3094 328.149)" width="25.4308" height="1.2041"/>
	
		<rect x="348.6709" y="217.1513" transform="matrix(0.7071 -0.7071 0.7071 0.7071 -45.459 325.7603)" width="43.6452" height="1.2042"/>
	<path d="M412.3169,270.35H274.1636c-1.8975,0-3.4366,1.5385-3.4366,3.4368v6.8733v14.2043c0,1.8982,1.5392,3.4365,3.4366,3.4365
		h138.1533c1.8975,0,3.4365-1.5383,3.4365-3.4365v-14.2043v-6.8733C415.7534,271.8885,414.2144,270.35,412.3169,270.35z
		 M358.7319,287.0452v-5.0402h10.9973v5.0402H358.7319z M376.144,287.0452v-5.0402h10.9973v5.0402H376.144z M393.5569,287.0452
		v-5.0402h10.9973v5.0402H393.5569z"/>
	<path d="M380.5631,139.1291c1.0963,0.3082,2.2349-0.3308,2.543-1.4271c0.3082-1.0963-0.3308-2.2349-1.4271-2.543
		c-1.0964-0.3081-2.2349,0.3309-2.543,1.4271C378.8279,137.6826,379.4668,138.821,380.5631,139.1291z M380.2551,137.0192
		c0.1409-0.501,0.6611-0.793,1.1621-0.6522s0.793,0.661,0.6521,1.162s-0.6611,0.793-1.1621,0.6521
		C380.4063,138.0405,380.1144,137.5202,380.2551,137.0192z"/>
	<path d="M384.6996,129.5556c-0.3053,1.0864,0.3279,2.2148,1.4144,2.5203c1.0864,0.3053,2.2148-0.3279,2.5203-1.4144
		c0.3053-1.0865-0.3279-2.215-1.4146-2.5203C386.1333,127.8359,385.0049,128.4692,384.6996,129.5556z M387.8066,130.4872
		c-0.1646,0.5851-0.7721,0.926-1.3572,0.7616s-0.926-0.772-0.7616-1.3571s0.772-0.926,1.3571-0.7617
		C387.63,129.2946,387.9709,129.9022,387.8066,130.4872z"/>
	<path d="M383.4758,123.8039c1.6426,0.4617,3.3481-0.4956,3.8098-2.1379c0.4615-1.6426-0.4957-3.3481-2.1382-3.8098
		c-1.6423-0.4615-3.3481,0.4956-3.8097,2.1382C380.8762,121.6367,381.8335,123.3423,383.4758,123.8039z M382.5476,120.5241
		c0.2671-0.9501,1.2537-1.5038,2.2039-1.2368c0.95,0.2671,1.5037,1.2537,1.2368,2.2039c-0.2671,0.95-1.2537,1.5037-2.2039,1.2367
		C382.8345,122.4609,382.2806,121.4742,382.5476,120.5241z"/>
	<path d="M393.606,103.8456c-2.2688-0.6377-4.625,0.6846-5.2627,2.9534c-0.6376,2.2688,0.6848,4.625,2.9536,5.2626
		c2.2687,0.6376,4.6248-0.6847,5.2625-2.9535S395.8748,104.4832,393.606,103.8456z M395.2257,109.0903
		c-0.4365,1.5532-2.0494,2.4584-3.6027,2.0219c-1.553-0.4365-2.4583-2.0494-2.0217-3.6025s2.0493-2.4584,3.6025-2.0219
		C394.757,105.9243,395.6621,107.5372,395.2257,109.0903z"/>
	<path d="M385.4861,90.0588c-2.7104-0.7617-5.5251,0.818-6.2869,3.5283c-0.7617,2.7104,0.8179,5.5251,3.5283,6.2869
		c2.7103,0.7617,5.525-0.818,6.2869-3.5283C389.7761,93.6352,388.1964,90.8205,385.4861,90.0588z M387.4578,96.2117
		c-0.5229,1.8607-2.4554,2.9452-4.3162,2.4222c-1.8608-0.5229-2.9453-2.4553-2.4224-4.3162
		c0.5229-1.8607,2.4553-2.9453,4.3162-2.4222C386.8962,92.4185,387.9807,94.351,387.4578,96.2117z"/>
	<path d="M386.0598,82.1188c0.6412-2.2814-0.6885-4.6506-2.9698-5.2918s-4.6506,0.6885-5.2919,2.9699
		c-0.6411,2.2814,0.6885,4.6505,2.97,5.2917C383.0494,85.7299,385.4187,84.4002,386.0598,82.1188z M379.2671,80.5169
		c0.385-1.3704,1.8083-2.1691,3.1787-1.7839s2.1691,1.8083,1.7839,3.1787c-0.3851,1.3705-1.8083,2.1691-3.1787,1.7841
		C379.6807,83.3105,378.8818,81.8873,379.2671,80.5169z"/>
	<path d="M354.5183,89.9728c2.8538,0.802,5.8174-0.8612,6.6194-3.715s-0.8612-5.8174-3.715-6.6194s-5.8174,0.8612-6.6195,3.715
		C350.0012,86.2072,351.6646,89.1708,354.5183,89.9728z M352.796,84.0832c0.5172-1.8406,2.4286-2.9132,4.2692-2.3959
		c1.8403,0.5173,2.9131,2.4286,2.3958,4.269c-0.5172,1.8406-2.4285,2.9132-4.269,2.396
		C353.3514,87.8349,352.2788,85.9236,352.796,84.0832z"/>
	<path d="M412.3169,21.5261H274.1636c-1.8975,0-3.4366,1.5385-3.4366,3.4366v1.0417v17.1725c0,1.8982,1.5392,3.4366,3.4366,3.4366
		h1.064l4.8596,12.8151v192.3536l-2.6854,16.048h131.6766l-2.6851-16.0475V59.4288l4.8601-12.8152h1.0635
		c1.8975,0,3.4365-1.5385,3.4365-3.4366V26.0044v-1.0417C415.7534,23.0645,414.2144,21.5261,412.3169,21.5261z M387.1414,31.3882
		v5.0402H376.144v-5.0402H387.1414z M369.7292,31.3882v5.0402h-10.9973v-5.0402H369.7292z M404.5542,36.4285h-10.9973v-5.0402
		h10.9973V36.4285z M368.2352,61.4005c-1.5269,1.6594-2.9232,3.264-3.8403,5.1805c-0.4185-0.2579-0.8763-0.4664-1.3732-0.606
		c-2.873-0.8074-5.8564,0.867-6.6639,3.7399c-0.8075,2.873,0.8671,5.8565,3.7399,6.6639c1.3325,0.3745,2.686,0.2097,3.8379-0.3555
		c0.0001,0.0007,0.0002,0.0013,0.0004,0.002c0.6277,2.3976,1.7662,5.259,3.4755,8.702c-1.1378,0.6473-2.0326,1.7234-2.4148,3.0833
		c-0.7703,2.7408,0.8271,5.5872,3.5679,6.3575c1.3372,0.3757,2.6956,0.1804,3.8296-0.4285
		c3.5234,5.9019,8.1758,13.0302,14.1572,21.7242c10.0046,14.5414,11.9734,26.6908,5.5444,34.2098
		c-5.9988,7.0159-17.6504,8.0784-24.7721,4.668c-2.6132-1.2517-6.7365-4.1788-6.11-9.9631l3.031,0.7446
		c1.4747,0.3624,2.9641-0.5397,3.3259-2.0144c0.2069-0.8416-0.0083-1.6804-0.4963-2.3191c4.0471-0.8236,7.7598-3.2412,10.0942-7.037
		c4.4736-7.2733,2.2015-16.796-5.0718-21.2683c-7.2742-4.473-16.7966-2.2015-21.2703,5.0704
		c-4.1884,6.813-2.4609,15.5992,3.7522,20.3599c-0.6028,0.3643-1.0665,0.9586-1.248,1.6964
		c-0.3623,1.474,0.5398,2.9641,2.0144,3.3258l3.1792,0.781c-0.7574,5.6572,1.9778,10.4048,7.6121,13.1033
		c2.8768,1.3777,6.4108,2.1042,10.0784,2.1042c6.5826-0.0004,13.5908-2.3425,17.9705-7.465
		c4.2361-4.9542,9.1716-16.4208-5.369-37.5551c-6.2632-9.1038-10.9547-16.3179-14.4056-22.1335
		c0.21-0.3643,0.3926-0.7485,0.5116-1.1719c0.7703-2.7407-0.8271-5.5872-3.568-6.3574c-0.4038-0.1135-0.8081-0.1608-1.2097-0.1753
		c-2.2273-4.4208-3.4105-7.7216-3.8308-10.3271c0.1848-0.3435,0.3383-0.7101,0.4482-1.1013
		c0.3564-1.2686,0.2278-2.558-0.2731-3.6729c0.6913-2.369,2.2997-4.1148,4.2052-6.1771c0.4053-0.4386,0.832-0.9058,1.2661-1.3884
		h30.3093v185.9133H284.2111V61.4005H368.2352z M365.1213,72.1917c-0.5493,1.955-2.5796,3.0944-4.5347,2.545
		s-3.0945-2.5797-2.5449-4.5347c0.5493-1.955,2.5796-3.0944,4.5347-2.545S365.6709,70.2366,365.1213,72.1917z M371.0288,86.1623
		c1.8271,0.5134,2.8921,2.411,2.3785,4.2383c-0.5135,1.8271-2.411,2.8921-4.2383,2.3787c-1.8273-0.5137-2.8922-2.4111-2.3787-4.2383
		C367.304,86.7136,369.2015,85.6486,371.0288,86.1623z"/>
	<path d="M150.7529,247.478c0.0039-0.1968-0.0059-0.418-0.0322-0.6196l-0.0332-0.2461l-4.4238-33.1021
		c-0.4248-3.1777-3.3379-5.4214-6.5225-5.0142l-0.1621,0.021l-6.4888,0.8303c-6.7366,7.175-15.2678,12.838-21.1989,12.838
		c-0.667,0-1.3076-0.0703-1.9053-0.2095c-4.1254-0.9597-8.3978-6.1613-11.691-12.8492c-1.6111,0.8518-2.8027,2.4395-3.0627,4.3835
		l-1.1899,8.9058l5.8673,2.8467c3.5498,1.7224,5.0363,6.0122,3.3138,9.562L91.109,259.7929l1.1195,37.7749
		c0.0684,2.2061,1.8691,3.9912,4.0957,4.0093c1.2246,0.0103,2.3184-0.5239,3.082-1.3647l0.2939,86.6812
		c0.0146,2.1597,1.6611,4.022,3.8574,4.2349c2.3477,0.2275,4.4346-1.4907,4.6611-3.8374l8.8955-91.7954h7.1641l8.8955,91.7954
		c0.2158,2.1489,2.0273,3.8501,4.2354,3.8574c2.3574,0.0078,4.2754-1.897,4.2832-4.2549l0.2959-86.8057
		c0.7314,0.8721,1.8027,1.4517,3.0273,1.4878c2.2813,0.0674,4.1846-1.7266,4.2529-4.0078L150.7529,247.478z"/>
	<path d="M140.3888,191.9307c2.8539-12.2667-4.7751-24.5233-17.0427-27.3773c-12.2656-2.8538-24.5234,4.7761-27.3773,17.0427
		s7.0537,35.6794,14.6975,37.4579C118.3098,220.8323,137.5349,204.1972,140.3888,191.9307z M124.0884,192.1889
		c3.6075-2.1816,7.73-1.9692,9.2078,0.4746c1.4778,2.4437-0.2487,6.1934-3.8562,8.3749s-11.2456,0.3605-11.2456,0.3605
		S120.4807,194.3704,124.0884,192.1889z M102.0096,185.3845c2.4047-1.5404,6.1976,0.0886,8.4717,3.6387
		c2.274,3.5499,1.2233,10.866,1.2233,10.866s-7.6575-1.7375-9.9316-5.2876C99.499,191.0515,99.6049,186.925,102.0096,185.3845z"/>
	<path d="M65.5782,277.437l-1.3323,14.2233c-0.2021,2.1924,1.3586,4.1829,3.5613,4.4802c2.2615,0.3053,4.3424-1.2805,4.6477-3.5421
		l1.5121-11.201c-0.3728-0.11-0.7382-0.2487-1.0901-0.4191L65.5782,277.437z"/>
	<path d="M46.4794,268.1703c-3.3221-1.6129-4.837-5.4746-3.6051-8.8728l-26.5032-0.0188v13.0978c0,0.3304,0.0183,0.7572,0.05,1.2472
		l0.3853,113.2698c0.0148,2.1597,1.6606,4.0221,3.8575,4.235c2.3469,0.2274,4.4338-1.4908,4.6613-3.8378l8.8953-91.7949h7.1641
		l8.8953,91.7949c0.2157,2.149,2.0277,3.8501,4.2349,3.8577c2.3579,0.0079,4.2759-1.897,4.2839-4.2549l0.3828-112.5603
		L46.4794,268.1703z"/>
	<path d="M100.5244,233.5151c1.002-2.0649,0.1401-4.5513-1.9248-5.5532l-26.3965-12.8075c-2.0651-1.002-4.5513-0.1403-5.5532,1.9249
		L52.573,246.0915l10.8059,0.3607c3.5439,0.1187,6.3311,3.0981,6.2129,6.6426c-0.1162,3.4849-2.9404,6.2158-6.4297,6.2173
		L46.1643,259.3l-0.2997,0.6177c-1.002,2.0651-0.1401,4.5513,1.9249,5.5532l26.3964,12.8076
		c2.0651,1.002,4.5514,0.1401,5.5533-1.9249L100.5244,233.5151z"/>
	<path d="M0.2461,250.3961C0.0869,250.8848,0.001,251.4058,0,251.9473c-0.002,2.7725,2.2441,5.021,5.0166,5.0234l58.1445,0.0415
		c2.2168-0.001,4.0576-1.7607,4.1318-3.9941c0.0762-2.2803-1.7109-4.1909-3.9912-4.2671l-50.9082-1.6997l7.2642-18.9777
		l2.2736,0.4951l-5.5602,14.5262v1.788l32.9202,1.0989l14.6597-30.2122c0.0708-0.1464,0.1553-0.2827,0.2351-0.4226l-1.8203-3.6782
		c-0.5002-1.0067-1.2886-1.8275-2.2366-2.3928c-3.2831,6.6155-7.5217,11.7473-11.6162,12.6998
		c-0.5977,0.1392-1.2383,0.2095-1.9053,0.2095c-5.9425,0-14.4951-5.6848-21.2377-12.8795l-6.1659-0.7892l-0.1377-0.0186
		c-2.7148-0.3496-5.3838,1.2598-6.2754,3.9556l-4.356,13.1764l-8.1177,24.5546L0.2461,250.3961z"/>
	<path d="M47.8329,219.054c7.6437-1.7784,17.5514-25.1913,14.6974-37.4579c-2.8538-12.2666-15.1116-19.8965-27.3772-17.0427
		c-12.2676,2.854-19.8967,15.1106-17.0427,27.3773C20.9641,204.1972,40.1892,220.8323,47.8329,219.054z M48.0178,189.0231
		c2.2739-3.55,6.0669-5.1791,8.4717-3.6387c2.4048,1.5405,2.5106,5.667,0.2366,9.217s-9.9316,5.2876-9.9316,5.2876
		S45.7437,192.5731,48.0178,189.0231z M25.2029,192.6635c1.4778-2.4438,5.6003-2.6563,9.2078-0.4746
		c3.6077,2.1815,5.894,9.21,5.894,9.21s-7.6379,1.821-11.2456-0.3605C25.4517,198.8569,23.7251,195.1072,25.2029,192.6635z"/>
</g>
</svg>
