<?xml version="1.0" encoding="utf-8"?>
<!-- Generator: Adobe Illustrator 24.0.2, SVG Export Plug-In . SVG Version: 6.00 Build 0)  -->
<svg version="1.1" id="Layer_1" xmlns="http://www.w3.org/2000/svg" xmlns:xlink="http://www.w3.org/1999/xlink" x="0px" y="0px"
	 viewBox="0 0 354.6778 307.1179" enable-background="new 0 0 354.6778 307.1179" xml:space="preserve">
<g>
	<path d="M64.2144,131.1907c-2.7543-0.9778-3.6729-5.4091,0.9558-7.0388c-6.6654,2.3469-8.0102-7.0452-0.9539-6.6614
		c-7.0563-0.3838-4.7031-9.5763,1.6694-6.5215c-6.3725-3.0548-0.6801-10.6464,4.0378-5.3854
		c-4.7179-5.261,3.4435-10.0963,5.7905-3.4308c-2.347-6.6655,7.0466-8.009,6.6631-0.9535c0.3835-7.0555,9.5751-4.7025,6.5214,1.6694
		c3.0538-6.3719,10.6447-0.6805,5.3837,4.0374c4.256-3.8167,8.2311,0.7955,6.0667,3.9397c1.5688-0.308,2.9204-0.5028,4.0258-0.6268
		c0.1072-0.5479,0.1533-1.0891,0.1295-1.6007c-0.1305-2.9718-2.1614-5.5729-4.9767-6.4171
		c-0.0239-0.1304-0.0515-0.2601-0.0825-0.3906c-0.616-2.5083-2.5661-4.4678-5.0903-5.1139c-0.7305-0.187-1.5526-0.2614-2.407-0.1742
		c-0.9416-1.4597-2.4094-2.5208-4.141-2.9641c-1.7299-0.4429-3.5269-0.2174-5.0541,0.6102
		c-0.709-0.4874-1.4658-0.8173-2.1963-1.0043c-2.5226-0.6458-5.1743,0.1357-6.9203,2.042
		c-0.0897,0.0986-0.1758,0.1975-0.2594,0.3004c-2.8743-0.6141-5.9053,0.6913-7.4479,3.2365
		c-0.2899,0.4752-0.5318,1.0146-0.7067,1.5999c-2.3705,0.4381-4.4284,2.0945-5.3069,4.5128
		c-0.3364,0.9294-0.4771,1.9823-0.3635,3.0555c-1.5123,0.9863-2.5582,2.5134-2.9765,4.1477
		c-0.4432,1.7314-0.2254,3.5231,0.6157,5.068c-0.6136,0.8871-0.9977,1.8768-1.148,2.8556c-0.3913,2.542,0.6176,4.9836,2.4859,6.507
		c-0.1277,0.5973-0.175,1.1873-0.1489,1.7424c0.1024,2.3439,1.3964,4.4413,3.3138,5.6429
		C62.5316,132.9475,63.3719,132.0475,64.2144,131.1907z"/>
	<path d="M238.7017,192.5811c1.0065,0.1914,2.025,0.3916,3.0692,0.6096c-0.7143-7.9004-1.4061-15.8362-1.7807-20.9006
		c1.7974,2.4063,4.2471,5.8066,6.519,8.96c6.5061,9.0304,10.4382,14.3435,12.9432,17.4443
		c-0.861-2.3772-1.3571-4.6472-1.3875-6.6921c-2.9727-3.9709-6.389-8.7126-9.1217-12.5061
		c-9.7451-13.5264-9.7446-13.5264-11.1836-13.0332l-1.082,0.4336l0.0405,1.1123
		C236.8409,171.3857,237.7411,181.9268,238.7017,192.5811z"/>
	<path d="M156.3679,201.0117l11.1677-58.1982c1.5581-8.1191,6.9512-15.0752,14.4268-18.6064l4.598-2.172
		c-0.814-0.6918-1.5641-1.4501-2.28-2.2408l-3.5992,1.7c-8.3384,3.9395-14.354,11.6982-16.0918,20.7549l-11.3348,59.0685
		C154.2841,201.2156,155.3226,201.1135,156.3679,201.0117z"/>
	<path d="M222.86,117.496c0.6427,0.015,1.2884,0.0309,1.9397,0.049c4.0386,0.1123,9.8252,3.4941,11.5244,7.8525
		c1.0868,2.7869,23.116,38.924,32.3882,54.0891c0.8975-0.4185,1.8331-0.8114,2.7925-1.1832
		c-13.6952-22.3939-31.5494-51.8507-32.3857-53.9957c-2.208-5.6641-9.1436-9.6201-14.2363-9.7607
		c-0.0704-0.002-0.14-0.0035-0.2103-0.0055C224.1371,115.5742,223.5281,116.5583,222.86,117.496z"/>
	<path d="M184.4177,89.1904c0.3378-0.1301,0.7027-0.2461,1.0864-0.3517c-1.8772-2.8856,1.3651-7.3241,5.8428-4.2482
		c-5.8248-4.0012,0.9699-10.6228,4.8189-4.6971c-3.849-5.9257,4.9631-9.4427,6.2521-2.4954
		c-1.2889-6.9474,8.1995-6.8247,6.7303,0.0875c1.4691-6.9122,10.1852-3.1682,6.1841,2.6565
		c4.0011-5.8247,10.6238,0.9705,4.6978,4.8206c5.926-3.8501,9.4435,4.9629,2.4954,6.2521c6.9481-1.2892,6.8241,8.1979-0.0881,6.7288
		c4.7999,1.0201,4.4599,5.5323,1.8548,6.8571c0.9457,0.7412,1.8947,1.5256,2.8452,2.3374c1.7468-1.4386,2.7598-3.6851,2.5595-6.0227
		c-0.0456-0.554-0.1685-1.1329-0.3721-1.7087c1.6566-1.7512,2.3427-4.3024,1.6273-6.7728c-0.2751-0.9513-0.7834-1.8834-1.5062-2.684
		c0.6351-1.6404,0.6204-3.4452-0.0422-5.1052c-0.6253-1.5667-1.8591-2.9464-3.4859-3.7297c-0.0256-1.079-0.3007-2.105-0.754-2.9834
		c-1.1826-2.2849-3.4366-3.6626-5.8439-3.7917c-0.2488-0.5579-0.5582-1.0615-0.9068-1.4955
		c-1.8576-2.3253-5.0315-3.2295-7.8027-2.2504c-0.0961-0.0913-0.1943-0.1782-0.296-0.2645
		c-1.9769-1.6654-4.7072-2.099-7.1255-1.1337c-0.7004,0.2795-1.4083,0.7039-2.0487,1.2786
		c-1.6211-0.624-3.4323-0.6161-5.0906,0.0459c-1.66,0.6625-2.979,1.9038-3.7248,3.4727c-0.8585,0.0236-1.6642,0.2031-2.3646,0.4827
		c-2.42,0.9658-4.1014,3.1602-4.3893,5.7268c-0.0139,0.1335-0.0247,0.2656-0.0316,0.3981
		c-2.6832,1.1997-4.3622,4.0406-4.1088,7.0045c0.0419,0.5071,0.1566,1.0342,0.3314,1.5601
		C182.531,89.1504,183.412,89.1526,184.4177,89.1904z"/>
	<path d="M223.3224,112.0315c0.5706-1.3287,0.5083-2.7437-0.0435-4.1882c-3.868-3.1025-7.7002-5.6061-11.3989-7.6113
		c-1.5237,2.4421-3.3762,5.0269-4.8041,6.9436c2.1025,2.1367,2.832,9.8464-1.3079,15.9229
		c-3.7231,0.5894-7.543,0.1389-11.0912-1.385c-2.7842-1.1958-5.1956-2.9764-7.1449-5.1812c2.7743-0.7021,4.7371-1.418,4.7371-1.418
		s7.5096-3.2651,12.1536-7.7454c1.4004-1.8381,3.8023-5.0817,5.6779-8.0662c-11.2059-5.6748-20.9852-6.9197-26.4781-7.0872
		c-0.7235,0.5386-1.287,1.2173-1.6481,2.0582c-4.9041,11.4191,0.377,24.649,11.7953,29.5529
		C205.1878,128.7305,218.4183,123.4506,223.3224,112.0315z"/>
	<path d="M177.0707,198.9092c1.0416-0.9775,2.2126-1.8557,3.5026-2.6482l5.452-31.5198c0.1411-0.8164-0.4063-1.5928-1.2222-1.7344
		c-0.8203-0.1387-1.5928,0.4063-1.7339,1.2227L177.0707,198.9092z"/>
	<path d="M348.6778,220.5313h-36.816c-4.8712,4.5581-11.3798,7.271-18.3196,7.271c-3.1055,0-6.1719-0.5396-9.1152-1.604
		c-2.9103-1.0527-6.0508-3.0687-9.1162-5.667h-7.017c-0.0057,0.0181-0.0085,0.0371-0.0142,0.0552
		c-2.6289,8.2827-13.0479,11.9907-22.208,11.9907c-0.001,0-0.001,0-0.002,0c-2.1514-0.0005-4.2656-0.2012-6.2861-0.5981
		c-1.6104-0.2012-3.3008-0.4224-5.0566-0.6519c-9.1084-1.1919-20.4424-2.6748-31.3145-2.6748
		c-4.8701,0-9.3691,0.3008-13.3711,0.8936l-0.1201,0.0176l-0.1221,0.0107c-1.9814,0.1709-3.6953,0.2544-5.2373,0.2544
		c-2.6182,0-8.918,0-12.0127-4.6606c-1.6602-0.0083-3.3193-0.0146-4.9766-0.0195c-1.7578-0.0039-3.5186-0.0059-5.2803-0.0059
		c-8.7773,0-16.8623,0.0488-24.7158,0.1499c-16.6434,0.1978-33.4918,0.6194-50.2332,1.2317
		c-1.2834-1.0811-2.621-2.103-4.0224-3.0437l-0.8417-0.7759c18.3495-0.7146,36.7008-1.194,55.0456-1.4116
		c10.0234-0.1289,20.0459-0.1665,30.0596-0.1445c2.5039,0.0073,5.0127,0.0181,7.5225,0.0337
		c1.0146,3.7671,4.2666,5.2773,14.3486,4.4067c17.1572-2.541,37.0723,0.7075,50.9668,2.439
		c9.8662,1.9893,21.79-1.5469,24.0449-8.6523c2.2578-7.1074-2.1611-17.1206-16.6621-20.7168
		c-19.9814-4.8462-33.0342-5.5586-55.1992-2.5981c-6.9971,1.3823-11.293,3.8945-13.9189,6.9116
		c-3.958,0.3428-7.9121,0.6958-11.875,1.062c-10.0586,0.9365-20.1035,1.9331-30.1377,3.0205
		c-20.0674,2.1538-40.0938,4.6055-60.0693,7.3496c-0.7679,0.1082-1.4644,0.426-2.0446,0.8823
		c-0.9092-1.0002-1.7049-2.0813-2.3945-3.2196c-3.361-5.548-4.0746-12.5046-1.6183-18.6949l0.9595-2.4189
		c0.8911-2.2461,2.7026-4.0117,4.9702-4.8438c2.2671-0.834,4.791-0.6592,6.9224,0.4746l27.3423,14.5498l2.5395-3.8878l2.2977,1.733
		l-0.7718,1.1213c-0.475,0.6914-0.3006,1.6365,0.39,2.1125l1.6678,1.1481c0.6903,0.4744,1.6365,0.3007,2.1117-0.3898l0.8807-1.2795
		c0.8308,0.2803,1.692,0.4226,2.5508,0.4226c2.4243,0,4.8203-1.0977,6.3926-3.1826c2.2756-3.0168,2.0836-7.1184-0.2243-9.9082
		l4.7478-6.8981c0.3803-0.5515,0.3386-1.2633-0.0441-1.7708c1.0327-1.0834,2.5386-2.433,4.8533-4.2114
		c5.3785-4.1311,11.1928-18.1014,8.4568-19.9846l-15.5463,22.5858c-0.6602-0.3071-1.4628-0.1072-1.889,0.5121l-4.4957,6.5311
		l-2.6084-1.9675l3.5223-5.3923l-0.9624-0.8594c-0.2412-0.2151-16.6332-14.7637-37.3126-28.3711
		c3.3007-0.2673,6.5933-1.2683,9.6344-3.0697c9.6635-5.7242,13.4772-17.5475,9.4452-27.6635
		c0.2213-0.5232,0.3799-1.0603,0.4632-1.5957c0.2065-1.3411,0.0151-2.6486-0.4776-3.8126
		c-3.7584,0.2791-15.5985,1.8756-28.7837,10.8553c2.2438,2.7178,5.0426,5.624,6.6682,7.2668
		c5.1823,3.8455,13.0508,6.1165,13.0508,6.1165s2.0387,0.4572,4.8803,0.7961c-1.6491,2.4374-3.8112,4.5138-6.4182,6.0581
		c-3.3224,1.9683-7.0525,2.9067-10.8204,2.8019c-4.8878-5.4926-5.1573-13.2314-3.3478-15.6217
		c-1.6629-1.7169-3.8327-4.0415-5.6581-6.2673c-3.9158,2.8306-7.9227,6.325-11.8511,10.6399
		c-0.9361-0.4629-1.8717-0.915-2.8071-1.354c-1.8048-0.847-3.6074-1.6561-5.4001-2.4021l-0.2485-0.1035l-0.269-0.0107
		c-1.1147-0.0459-27.6396-0.5518-44.3467,44.8789c-5.2515,14.2793-5.2505,30.0986,0.002,44.5439l3.9975,10.9927v0.2847
		c0,1.5454,0.5972,2.9546,1.5659,4.0212l3.8341,10.5432L0.7607,283.0752c-1.0137,1.8555-1.0142,4.0703-0.002,5.9248
		c0.9324,1.708,2.5898,2.847,4.4924,3.1348c0.1609,0.0243,0.3204,0.0537,0.4846,0.0654c1.0983,0.0789,2.2702,0.1614,3.4947,0.2457
		c-0.4332,4.6476,1.7512,9.35,6.0262,11.902c2.0078,1.1982,4.2158,1.7686,6.3955,1.7686c4.2559,0,8.4053-2.1748,10.7451-6.0952
		l3.5944-6.0217c1.496,0.0696,3.0098,0.137,4.5381,0.2014c5.754,0.2428,11.7061,0.4448,17.6479,0.574v8.423H74.564
		c-0.6802-1.1241-1.2353-2.3441-1.6432-3.6444l-1.4507-4.6241c0.0546,0,0.1096,0.0004,0.1641,0.0004
		c1.3527,0,2.6913-0.0073,4.0223-0.0183l1.0807,3.4448c1.6758,5.3418,6.6055,8.7617,11.9229,8.7617
		c1.2393,0,2.501-0.186,3.7461-0.5767c5.653-1.7734,9.141-7.1926,8.7137-12.8569c1.3893-0.1516,2.7067-0.3226,3.9731-0.5068
		c0.3123,3.5667-0.5638,7.0653-2.3647,10.0204h208.7828v-59.6666H100.0582c-0.7538-1.7201-1.6108-3.3887-2.5623-5h251.1819
		c3.3,0,6-2.7001,6-6v-6C354.6778,223.2312,351.9778,220.5313,348.6778,220.5313z M109.9052,283.1647h0.0001H109.9052
		L109.9052,283.1647z M108.9251,281.8022c-4.8417,0.7488-33.8809,4.8789-72.0883,2.645l-0.1748,2.9941
		c8.0293,0.4697,15.6543,0.6602,22.7495,0.6602c27.9729,0,47.6052-2.9563,50.3966-3.4012l1.2997,4.2655
		c-21.6831,5.665-85.6914,1.6396-105.1572,0.2422c-1.0986-0.0791-2.0313-0.6787-2.5586-1.6455
		c-0.5288-0.9688-0.5283-2.0801,0.0015-3.0498l20.2998-37.1689l-9.8604-27.1152c-5.0107-13.7803-5.0127-28.8682-0.0059-42.4834
		c15.0586-40.9463,38.5298-42.835,41.1763-42.9131c29.1318,12.208,60.7524,39.0146,66.6401,44.126l-11.9136,18.2383
		l-24.9214-13.2607c-2.8843-1.5342-6.2974-1.7686-9.3657-0.6426c-3.0679,1.127-5.5186,3.5156-6.7246,6.5537l-0.9595,2.4199
		c-3.6401,9.1748-1.2095,19.834,6.0483,26.5244l7.5659,6.9736l0.1836,0.1445c8.3696,5.5879,14.5938,13.9658,17.5264,23.5918
		L108.9251,281.8022z"/>
	<path d="M321.84,28.7108c-17.8422-9.9849-37.0433-9.7283-43.7251,0.5546c8.8831-5.9139,25.1508-4.5635,40.2785,4.1965
		c18.4244,10.6691,28.171,28.2796,21.7695,39.3343c-0.1217,0.2102-0.2578,0.4089-0.3893,0.6113
		c1.9359-1.2888,3.5272-2.9166,4.6727-4.8948c5.4658-9.4387-0.8471-23.6538-14.2762-34.2498
		c5.5078-8.266,9.8642-19.5328,9.2864-34.2629l-9.9922,0.3926C329.9421,12.5765,326.3561,21.8919,321.84,28.7108z"/>
	<path d="M314.9667,37.4597c-15.8796-9.1954-33.0145-10.2256-41.5456-3.2593c-1.3671,1.1164-2.5214,2.4307-3.4055,3.9575
		c-6.4014,11.0546,3.3451,28.6651,21.7695,39.3342s38.5497,10.3564,44.9512-0.6982c0.0076-0.0132,0.0135-0.0271,0.0211-0.0403
		C343.1127,65.6965,333.3692,48.116,314.9667,37.4597z M329.3367,74.2024c-1.7214,2.9727-7.1332,3.0566-12.0877,0.1877
		c-4.9545-2.869-7.5754-7.6046-5.854-10.5774c1.7214-2.9727,7.1332-3.0566,12.0877-0.1877
		C328.4371,66.4941,331.058,71.2297,329.3367,74.2024z M299.687,42.6583c1.7214-2.9727,7.1332-3.0568,12.0877-0.1878
		c4.9545,2.869,7.5754,7.6047,5.854,10.5773s-7.1332,3.0566-12.0877,0.1877C300.5865,50.3666,297.9656,45.631,299.687,42.6583z
		 M275.5115,43.0338c1.7214-2.9727,7.1332-3.0568,12.0877-0.1877c4.9545,2.869,7.5754,7.6046,5.854,10.5773
		s-7.1332,3.0566-12.0877,0.1877S273.7902,46.0065,275.5115,43.0338z M293.0735,74.7656c-4.9545-2.869-7.5754-7.6046-5.854-10.5773
		s7.1332-3.0568,12.0877-0.1877s7.5754,7.6046,5.854,10.5773S298.028,77.6345,293.0735,74.7656z"/>
	<path d="M262.3674,189.7166c-2.6693,7.38,11.5771,28.4364,23.4203,32.72c11.8434,4.2837,24.9164-1.8452,29.1997-13.6876
		c4.2839-11.8442-1.8443-24.916-13.6877-29.1997C289.4565,175.2656,265.0366,182.3367,262.3674,189.7166z M283.4448,184.0962
		c0,0,5.1245,3.8191,6.8644,7.6592c1.7399,3.8402,1.801,7.5646,0.1365,8.3188c-1.6646,0.7542-4.4244-1.7474-6.1644-5.5875
		C282.5413,190.6465,283.4448,184.0962,283.4448,184.0962z"/>
	
		<rect x="208.1486" y="133.3948" transform="matrix(0.9982 -0.0599 0.0599 0.9982 -9.0962 12.843)" width="2.9995" height="49.4664"/>
	<path d="M15.2011,200.2695l3-0.0449c-0.701-46.0859,31.0654-58.2659,32.4365-58.7688c0.0004,0,0.0016-0.0006,0.002-0.0007
		l-0.5142-1.4092l-0.5122-1.4102C49.2617,138.7637,14.4662,151.9629,15.2011,200.2695z"/>
</g>
</svg>
