<?xml version="1.0" encoding="utf-8"?>
<!-- Generator: Adobe Illustrator 24.0.2, SVG Export Plug-In . SVG Version: 6.00 Build 0)  -->
<svg version="1.1" id="Layer_1" xmlns="http://www.w3.org/2000/svg" xmlns:xlink="http://www.w3.org/1999/xlink" x="0px" y="0px"
	 viewBox="0 0 365.9049 324.3174" enable-background="new 0 0 365.9049 324.3174" xml:space="preserve">
<g>
	<path d="M0.0478,146.2301v48.7846v18.9395v98c0,6.8301,5.5371,12.3633,12.3633,12.3633c6.8281,0,12.3652-5.5331,12.3652-12.3633
		v-90.2715h4.6348v90.2715c0,6.8301,5.5371,12.3633,12.3632,12.3633c6.8282,0,12.3653-5.5331,12.3653-12.3633v-98v-18.9395v-44.3158
		l30.4416-15.965c1.8066-0.9478,3.1831-2.5498,3.8477-4.4785l12.75-37c1.4395-4.1772-0.7798-8.7305-4.957-10.1699
		c-1.1006-0.3789-2.2263-0.4975-3.3156-0.3996c-0.7957,0.0715-1.5694,0.2626-2.2999,0.5599v-5.2283c0-1.375-1.125-2.5-2.5-2.5
		H59.7758c-1.375,0-2.5,1.125-2.5,2.5v13.5555c0,1.375,1.125,2.5,2.5,2.5h24.1979l-0.7925,2.2998l-8.8447,25.6667l-30.1151,15.7935
		H18.6899c0.7281-1.2956,1.6548-2.758,2.8323-4.3823c-4.8332-2.6793-8.7053-6.883-10.9709-11.9573
		C0.4588,134.1926-0.2378,142.7463,0.0478,146.2301z M61.6596,92.0378v-14.485h22.8581v14.485H61.6596z"/>
	<path d="M57.6914,102.1168c2.838-1.8613,5.867-3.7759,9.1047-5.744h-7.0203c-2.647,0-4.7998-2.1533-4.7998-4.7998v-6.7081
		c-2.5947,1.6201-5.0706,3.2147-7.4285,4.7822C52.1394,92.5859,55.7314,96.9511,57.6914,102.1168z"/>
	<circle cx="33.8437" cy="111.1349" r="22.5"/>
	<path d="M262.8305,30.2474c-1.4624-8.2615-17.0249-14.7942-36.2081-15.0259V7.0338c1.4739-0.4521,2.5527-1.8077,2.5527-3.4299
		c0-1.9904-1.6135-3.6039-3.6039-3.6039c-1.9905,0-3.604,1.6135-3.604,3.6039c0,1.6221,1.0789,2.9778,2.5527,3.4299v8.1877
		c-19.1832,0.2318-34.7458,6.7644-36.208,15.0259c9.8826-1.8038,22.9387-2.9022,37.2593-2.9022
		C239.8915,27.3452,252.9477,28.4436,262.8305,30.2474z"/>
	<path d="M225.5712,52.3895c30.8342,0,55.8306-5.0867,55.8306-11.3616c0-0.3918-0.0977-0.779-0.2878-1.1606
		c-2.8567-5.7297-26.6338-10.201-55.5427-10.201c-28.9092,0-52.6863,4.4713-55.5428,10.201
		c-0.1903,0.3816-0.2878,0.7688-0.2878,1.1606C169.7405,47.3028,194.7367,52.3895,225.5712,52.3895z M225.5712,44.6217
		c-4.8328,0-8.7502-0.605-8.7502-1.3514s3.9175-1.3515,8.7502-1.3515c4.8325,0,8.7502,0.6051,8.7502,1.3515
		S230.4037,44.6217,225.5712,44.6217z M225.5712,36.6299c14.27,0,25.8384,1.9691,25.8384,4.398c0,1.1738-2.7069,2.2393-7.1094,3.028
		c1.6107-0.5349,2.5281-1.1462,2.5281-1.7961c0-2.0972-9.5171-3.7974-21.2571-3.7974s-21.2573,1.7001-21.2573,3.7974
		c0,0.6499,0.9174,1.2613,2.5281,1.7961c-4.4023-0.7887-7.1093-1.8542-7.1093-3.028
		C199.7327,38.599,211.3009,36.6299,225.5712,36.6299z"/>
	<path d="M319.2768,107.0695c0-8.0235-6.5051-14.5287-14.5286-14.5287c-8.0242,0-14.5288,6.5052-14.5288,14.5287
		c0,8.0248,6.5046,14.5287,14.5288,14.5287C312.7716,121.5981,319.2768,115.0942,319.2768,107.0695z M292.9882,107.0723
		c0-6.4869,5.2739-11.7634,11.76-11.7634c6.4832,0,11.759,5.2766,11.759,11.7634c0,6.4839-5.2759,11.7563-11.759,11.7563
		C298.2621,118.8286,292.9882,113.5562,292.9882,107.0723z"/>
	<path d="M365.9049,188.5509v-3.3027h-49.4005h-3.5035l-34.7095-12.8804l-11.6406-11.5146l-13.7974,0.9594l-12.9319-11.515
		l-12.0719-5.0382L205,150.0576l-13.2201,8.3165l-22.0388,16.1526l-6.584,2.8795l-53.4272,5.1376l-4.777,2.7044h-6.2819
		l10.1077-5.7218l53.5906-5.1534l5.8184-2.5445l21.8514-16.0154l6.8373-4.301l-0.4531-0.2241l-14.9448-16.6331l-17.8484-8.3431
		l-12.6454-1.2795l-8.0959,15.4467l-9.9301,7.9991l-36.134,14.6191l-11.8922,22.151H62.7123v3.3027h30.1245h223.09H365.9049z
		 M206.1073,152.6336l20.7747-3.7651v2.6769l-6.7036,3.3684l-9.6035,0.8164l-5.644,5.3645l3.7632,2.3552l-6.584,2.486
		l-11.0509-2.486L206.1073,152.6336z"/>
	<rect x="103.0859" y="23.8494" width="61.0156" height="1.2163"/>
	<rect x="90.3743" y="31.1472" width="61.0155" height="1.2163"/>
	<rect x="52.3985" y="27.4983" width="87.551" height="1.2163"/>
</g>
</svg>
