<?xml version="1.0" encoding="utf-8"?>
<!-- Generator: Adobe Illustrator 24.0.2, SVG Export Plug-In . SVG Version: 6.00 Build 0)  -->
<svg version="1.1" id="Layer_1" xmlns="http://www.w3.org/2000/svg" xmlns:xlink="http://www.w3.org/1999/xlink" x="0px" y="0px"
	 viewBox="0 0 345.9047 440.4251" enable-background="new 0 0 345.9047 440.4251" xml:space="preserve">
<g>
	<rect x="210.4649" y="163.0436" width="119.5233" height="3.901"/>
	<rect y="163.0436" width="119.5233" height="3.901"/>
	<polygon points="163.0436,119.5233 166.9446,119.5233 166.9446,70.0286 166.9446,0 163.0436,0 163.0436,70.0286 	"/>
	
		<rect x="144.8698" y="72.4212" transform="matrix(0.9659 -0.2588 0.2588 0.9659 -20.1463 41.3109)" width="3.901" height="49.4947"/>
	<rect x="127.9345" y="79.4361" transform="matrix(0.866 -0.5 0.5 0.866 -34.6904 78.9004)" width="3.901" height="49.4947"/>
	<rect x="102.233" y="105.1377" transform="matrix(0.5 -0.866 0.866 0.5 -60.3922 155.1665)" width="3.9009" height="49.4946"/>
	<rect x="223.8543" y="175.3558" transform="matrix(0.5 -0.866 0.866 0.5 -60.3921 295.6041)" width="3.901" height="49.4947"/>
	
		<rect x="95.2181" y="122.073" transform="matrix(0.2588 -0.9659 0.9659 0.2588 -69.7979 202.6784)" width="3.901" height="49.4947"/>
	
		<rect x="230.8691" y="158.4205" transform="matrix(0.2588 -0.9659 0.9659 0.2588 -4.365 360.6472)" width="3.901" height="49.4947"/>
	
		<rect x="72.4213" y="181.2174" transform="matrix(0.9659 -0.2588 0.2588 0.9659 -44.0965 31.3904)" width="49.4947" height="3.901"/>
	
		<rect x="208.0723" y="144.8698" transform="matrix(0.9659 -0.2588 0.2588 0.9659 -30.0666 65.2605)" width="49.4947" height="3.901"/>
	<rect x="79.4361" y="198.1527" transform="matrix(0.866 -0.5 0.5 0.866 -86.0921 78.8981)" width="49.4947" height="3.901"/>
	<rect x="201.0575" y="127.9345" transform="matrix(0.866 -0.5 0.5 0.866 -34.6904 130.3025)" width="49.4946" height="3.9009"/>
	<rect x="175.3559" y="102.2329" transform="matrix(0.5 -0.866 0.866 0.5 9.826 225.3859)" width="49.4947" height="3.901"/>
	
		<rect x="158.4206" y="95.2181" transform="matrix(0.2588 -0.9659 0.9659 0.2588 41.9032 248.9463)" width="49.4947" height="3.901"/>
	<polygon points="134.2206,131.4622 71.3182,68.5597 68.5598,71.3181 96.4642,99.2225 131.4622,134.2206 	"/>
	<path d="M199.1462,201.9046l31.6194,31.6194l16.5605,16.5605c0.5613-0.1906,1.1215-0.3842,1.7006-0.5363
		c0.9048-0.2376,1.8154-0.4177,2.7276-0.5523l-18.2303-18.2303l-34.998-34.998l-2.0104,2.0105
		c0.6202,0.7402,1.1818,1.5383,1.6648,2.3972L199.1462,201.9046z"/>
	<path d="M85.1252,247.6214l14.0974-14.0974l31.6148-31.6148l0.9543-1.7086c0.4857-0.8695,1.0513-1.6776,1.6777-2.4258
		l-2.0071-2.0072l-34.998,34.998l-14.6701,14.6701c0.5562,0.3052,1.1036,0.6298,1.6393,0.9777
		C84.0203,246.7946,84.5803,247.2013,85.1252,247.6214z"/>
	<polygon points="233.524,99.2225 261.4285,71.3181 258.67,68.5597 195.7676,131.4622 198.526,134.2206 	"/>
	<path d="M143.6136,264.7004c-0.0381,0.3604-0.0596,0.7251-0.0586,1.0957l0.3394,99.9532
		c3.9294,4.7242,6.2822,10.7444,6.3679,17.1943c0.6409-0.712,1.3766-1.3536,2.1882-1.9234c0.0024-0.022,0.0106-0.0419,0.0128-0.064
		l8.8955-91.7949h7.1641l8.7302,90.0884c1.2278-0.381,2.5103-0.6045,3.8227-0.6045c1.6726,0,3.3224,0.3308,4.8644,0.9551
		l0.3825-112.314c0.0313-0.4888,0.0498-0.9146,0.0498-1.2441v-43.3154l12.0107,19.1523l0.1465,0.2354
		c0.293,0.4648,0.6797,0.8823,1.1533,1.2227l29.1533,20.9316c0.963,0.689,2.1334,0.8934,3.2256,0.6744
		c0.4962-1.3373,1.1088-2.6479,1.8488-3.915c0.3483-0.5964,0.7313-1.1639,1.1225-1.7238c-0.2584-0.6104-0.6493-1.1736-1.2028-1.6171
		l-27.125-21.7397l-17.2422-30.8711c-1.1191-1.9902-3.373-3.2207-5.7764-2.9131l-0.1484,0.019l-18.5459,2.3735l-18.5469-2.3735
		l-0.1621-0.022c-2.2656-0.2837-4.5801,0.8003-5.7617,2.916l-17.2422,30.8711l-27.126,21.7397
		c-1.6973,1.3657-2.0586,3.8438-0.7725,5.6348c1.332,1.854,3.9141,2.2778,5.7676,0.9468l29.1523-20.9316
		c0.4463-0.3223,0.8506-0.7412,1.1611-1.2358l0.1396-0.2222l12.0117-19.1533V264.7004z"/>
	<path d="M89.9235,389.217c0.2828-3.9416-1.3101-7.8701-4.4473-10.4902L48.3975,347.763c-0.2546-0.2127-0.5202-0.403-0.7861-0.592
		c2.4164-3.2782,5.0207-6.4454,7.6866-9.4743l-2.7024-26.8679c-0.5693-5.6504,3.5654-10.7104,9.2168-11.2793
		c0.3496-0.0352,0.6973-0.0522,1.04-0.0522c5.3057,0,9.708,3.9854,10.2393,9.2695l0.9415,9.3607
		c0.3429-0.3834,0.6735-0.7748,0.9913-1.1776l10.7978,12.5221c1.5034,1.7432,3.6851,2.7549,5.9873,2.7754
		c0.0239,0,0.0474,0,0.0713,0c2.2764,0,4.4463-0.9697,5.9648-2.6689l35.79-40.0423l0.3472-0.3884
		c2.866-3.2064,2.6648-8.0781-0.386-11.0508c-0.0834-0.0812-0.1602-0.1667-0.2478-0.2451
		c-3.2935-2.9453-8.3511-2.6621-11.2959,0.6338l-30.0645,33.6367l-15.7651-18.2832c-0.3703-0.4293-0.7772-0.8079-1.2106-1.1386
		c-1.7817,0.3892-3.6172,0.6025-5.4879,0.6025c-4.4969,0-8.8795-1.1995-12.7658-3.4559c-3.5377,0.8806-7.2097,2.6114-10.821,5.4354
		c-16.6939,13.2137-25.072,23.4296-35.0016,43.4694c-6.1449,15.2082,2.2102,22.6039,9.9598,27.4965
		c5.3439,3.3754,8.8868,5.0873,12.837,1.8402l9.2606,7.7331H20.3487c-6.9033,0-12.5,5.5967-12.5,12.5s5.5967,12.5,12.5,12.5h57.1152
		c1.442,0,2.8382-0.2553,4.1473-0.7164l0.6021-2.2783C83.2764,393.801,86.2089,390.6601,89.9235,389.217z"/>
	<ellipse transform="matrix(0.9781 -0.2079 0.2079 0.9781 -54.1674 20.3156)" cx="69.5459" cy="267.8002" rx="22.5" ry="22.5"/>
	<path d="M102.7835,364.4237l-28.4857-20.6813l-3.4941-34.7451c-0.4424-4.396-4.3604-7.6006-8.7607-7.1592
		c-4.3955,0.4424-7.6016,4.3643-7.1592,8.7607l3.8535,38.312c0.2285,2.269,1.4141,4.333,3.2598,5.6729l32.1465,23.3394
		c0.4794,0.348,0.9904,0.6129,1.5117,0.8405C96.5828,373.2217,99.1336,368.285,102.7835,364.4237z"/>
	<path d="M253.3175,298.2635c-0.0549,0.0675-0.1085,0.1325-0.1638,0.2009c-0.9135,1.1284-1.8206,2.3218-2.6588,3.5796
		l10.4388-0.0978c5.7236,0,10.3428,4.5771,10.3955,10.2041c0.0527,5.6787-4.5244,10.3418-10.2041,10.3955l-12.1353,0.1133
		c0.9052,1.629,2.0732,3.3088,3.5682,5.0441c12.5615,12.5166,22.23,19.4937,35.6865,25.4121l-27.0342,23.4673
		c-3.9395,3.4199-5.3408,8.9258-3.5156,13.8125c1.8252,4.8877,6.4932,8.127,11.71,8.127h64c6.9033,0,12.5-5.5967,12.5-12.5
		s-5.5967-12.5-12.5-12.5h-30.5313l19.6836-17.0869c0.9521-0.8262,1.7446-1.7671,2.3833-2.7813
		c1.8828-1.7285,3.332-3.7192,4.2651-5.79c3.6147-8.019-3.4146-18.3428-13.0068-22.2524
		c-12.687-6.5146-31.4604-15.1301-43.5327-27.5847c-1.5733-1.3987-2.9821-2.5232-4.264-3.4078
		c-2.0746,1.283-4.3499,2.2662-6.7759,2.9034C258.8741,298.2449,256.0723,298.4854,253.3175,298.2635z"/>
	<ellipse transform="matrix(0.8311 -0.5561 0.5561 0.8311 -108.9951 188.1958)" cx="255.3264" cy="273.5349" rx="22.5" ry="22.5"/>
	<path d="M218.9552,317.369c1.5107,2.0215,3.8857,3.21,6.4072,3.21c0.0244,0,0.0498,0,0.0742,0l35.667-0.333
		c4.4189-0.042,7.9668-3.6563,7.9258-8.0742c-0.041-4.3936-3.6152-7.9258-7.998-7.9258c-0.0254,0-0.0518,0-0.0762,0l-31.6133,0.2959
		l-23.2383-31.0859c-2.6465-3.5391-7.6582-4.2637-11.1973-1.6172c-3.5391,2.6455-4.2627,7.6582-1.6172,11.1973L218.9552,317.369z"/>
	<path d="M100.4127,380.8077c-0.4784,4.2481,0.2594,8.3528,1.9355,11.9667l32.163,8.4979l0.0527,0.0176l1.2854,0.3426
		c5.0087-3.5805,8.5374-9.1887,9.2807-15.7888c1.3907-12.3488-7.4911-23.4858-19.8407-24.8766
		C112.9415,359.5765,101.8033,368.459,100.4127,380.8077z"/>
	<path d="M132.0766,440.4251l5.1489-19.4863l24.7798,6.604c0.6846,0.1826,1.377,0.2705,2.0605,0.2705
		c0.807,0,1.5981-0.1364,2.3571-0.3712c-0.2181-0.2991-0.4431-0.5925-0.636-0.912l-10.4568-17.3252l-21.42-5.709
		c-0.0215-0.0059-0.042-0.0146-0.064-0.0205l-37.353-9.8691c-4.1279-1.0908-8.356,1.3716-9.4463,5.4976l-10.9185,41.3213H132.0766z"
		/>
	<path d="M174.2162,387.5115l-0.8049,1.3337l9.3448,15.4823l5.1594-8.5484c2.2822-3.7822,1.0674-8.7002-2.7158-10.9834
		C181.4184,382.5145,176.4995,383.7303,174.2162,387.5115z"/>
	<path d="M215.6934,360.967c-12.3496,1.3907-21.2314,12.5278-19.8407,24.8766c0.7433,6.6002,4.272,12.2083,9.2807,15.7888
		l1.2854-0.3426l0.0527-0.0176l32.163-8.4979c1.6761-3.6139,2.4139-7.7186,1.9355-11.9667
		C239.1793,368.459,228.0411,359.5765,215.6934,360.967z"/>
	<path d="M244.4896,393.6063l-37.353,9.8691c-0.022,0.0059-0.0425,0.0146-0.064,0.0205l-26.4106,7.0391l-13.8955-23.0234
		c-2.2832-3.7813-7.2021-4.9971-10.9834-2.7158c-3.7832,2.2832-4.998,7.2012-2.7158,10.9834l17,28.167
		c1.4736,2.4404,4.0967,3.8672,6.8496,3.8672c0.6836,0,1.376-0.0879,2.0605-0.2705l24.7798-6.604l5.1489,19.4863h55.9482
		l-10.9185-41.3213C252.8455,394.9778,248.6175,392.5154,244.4896,393.6063z"/>
	<path d="M164.9935,200.2364c2.9316,0,6.855-2.8702,10.6202-7.1212c6.314-7.1286,12.183-18.1423,12.183-26.0318
		c0-12.5942-10.208-22.8032-22.8032-22.8032c-12.5933,0-22.8032,10.2089-22.8032,22.8032c0,7.8893,5.8688,18.9029,12.1827,26.0315
		C158.1384,197.366,162.0618,200.2364,164.9935,200.2364z M171.9788,171.0286c3.0193-2.9423,7.0828-3.6695,9.0759-1.6242
		s1.1612,6.0886-1.8582,9.0309s-10.8714,2.8995-10.8714,2.8995S168.9595,173.9709,171.9788,171.0286z M148.9325,169.4044
		c1.9932-2.0453,6.0566-1.3181,9.0759,1.6242s3.6536,10.3062,3.6536,10.3062s-7.852,0.0428-10.8713-2.8995
		C147.7713,175.4929,146.9394,171.4496,148.9325,169.4044z"/>
</g>
</svg>
