<?xml version="1.0" encoding="utf-8"?>
<!-- Generator: Adobe Illustrator 24.0.2, SVG Export Plug-In . SVG Version: 6.00 Build 0)  -->
<svg version="1.1" id="Layer_1" xmlns="http://www.w3.org/2000/svg" xmlns:xlink="http://www.w3.org/1999/xlink" x="0px" y="0px"
	 viewBox="0 0 292.7631 241.2375" enable-background="new 0 0 292.7631 241.2375" xml:space="preserve">
<g>
	<path d="M27.6395,86.7307c6.5693,0,19.0883-17.2095,19.0883-27.7518c0-10.5425-8.545-19.0883-19.0883-19.0883
		c-10.5416,0-19.0882,8.5458-19.0882,19.0883C8.5513,69.5212,21.0702,86.7307,27.6395,86.7307z M33.4867,62.2813
		c2.5275-2.463,5.9288-3.0717,7.5973-1.3596c1.6684,1.7121,0.972,5.0966-1.5555,7.5596c-2.5274,2.463-9.1002,2.4271-9.1002,2.4271
		S30.9593,64.7442,33.4867,62.2813z M14.1951,60.9216c1.6684-1.7121,5.0698-1.1033,7.5973,1.3596
		c2.5274,2.463,3.0584,8.6271,3.0584,8.6271s-6.5728,0.0359-9.1003-2.4271C13.2231,66.0182,12.5267,62.6337,14.1951,60.9216z"/>
	<path d="M3.0171,168.8103c1.8949,0.2436,3.6287-1.0946,3.8723-2.9895l2.8824-22.403l6.4269,94.4883
		c0.1283,1.8033,1.6038,3.2698,3.4505,3.3295c1.9725,0.0634,3.623-1.4845,3.6868-3.457l2.4663-76.6104h3.5862l2.4663,76.6104
		c0.0638,1.8066,1.4861,3.325,3.3287,3.4505c1.9692,0.134,3.6745-1.3537,3.8085-3.323l6.3436-93.2597
		c0.058-0.5448,0.1046-1.0488,0.1381-1.4907l2.9151,22.665c0.2379,1.8238,1.8728,3.1628,3.7236,3.0054
		c1.9039-0.1619,3.3156-1.836,3.1537-3.7395l-0.0272-0.3201c-3.6315-0.7982-6.1588-4.1585-5.8441-7.937l2.5847-30.4004
		l-2.8583-33.6207c-0.0065-0.0809-0.0172-0.1782-0.0286-0.2596c-0.3736-2.691-2.8578-4.5704-5.549-4.1968l-0.1063,0.0147
		l-15.7983,2.1917l-15.7983-2.1917l-0.1226-0.0172c-0.0801-0.0106-0.1611-0.0197-0.2428-0.0266
		c-2.7075-0.2302-5.0887,1.778-5.3184,4.4854l-6.1449,72.2782C-0.1408,166.9195,1.1745,168.5732,3.0171,168.8103z"/>
	<path d="M83.456,70.9432c7.2263,0,20.9973-18.9307,20.9973-30.5274c0-11.5969-9.3996-20.9973-20.9973-20.9973
		c-11.5959,0-20.9973,9.4004-20.9973,20.9973C62.4587,52.0126,76.2297,70.9432,83.456,70.9432z M89.8881,44.0486
		c2.7803-2.7094,6.5219-3.3789,8.3571-1.4956s1.0692,5.6063-1.711,8.3157c-2.7802,2.7093-10.0104,2.6698-10.0104,2.6698
		S87.1078,46.7579,89.8881,44.0486z M68.667,42.553c1.8353-1.8833,5.5768-1.2137,8.3571,1.4956
		c2.7802,2.7093,3.3643,9.4899,3.3643,9.4899s-7.2302,0.0395-10.0104-2.6698C67.5978,48.1593,66.8317,44.4363,68.667,42.553z"/>
	<path d="M110.706,143.9064c-0.5035,3.0517-2.6298,5.4475-5.4096,6.3848l0.9842,7.6522c0.2617,2.0062,2.0601,3.4791,4.0959,3.306
		c2.0943-0.178,3.6472-2.0197,3.4692-4.1135l-1.8107-21.298L110.706,143.9064z"/>
	<path d="M53.0655,157.1359c-0.1682,2.0161,1.2787,3.8351,3.3055,4.0959c2.0844,0.2679,3.9916-1.204,4.2596-3.2885l3.1707-24.6436
		L70.871,237.238c0.1412,1.9837,1.7643,3.5969,3.7956,3.6625c2.1699,0.0697,3.9854-1.633,4.0555-3.8028l2.713-84.2723h3.9449
		l2.713,84.2723c0.0702,1.9873,1.6348,3.6576,3.6617,3.7956c2.1662,0.1475,4.042-1.4891,4.1895-3.6553l5.8895-86.5844
		c-0.1575-0.0166-0.3161-0.013-0.4722-0.0388c-4.2949-0.708-7.2598-4.6509-6.752-8.9766l1.2559-10.5576l1.5674-10.5654
		c0.2139-1.1533,0.4209-2.3076,0.6279-3.4629c0.4092-2.2881,0.833-4.6538,1.3145-6.9985c0.2158-0.9824,0.4131-1.9087,0.6104-2.8354
		c0.5381-2.5254,1.0938-5.1367,1.7861-7.7334c1.5553-6.3974,3.4484-12.6475,5.5925-18.5912l-0.2776-3.2649
		c-0.0072-0.089-0.0189-0.196-0.0315-0.2855c-0.4109-2.9603-3.1437-5.0276-6.1039-4.6166l-0.1169,0.0162l-17.3784,2.4108
		L66.0773,72.743l-0.1349-0.0189c-0.0881-0.0117-0.1771-0.0215-0.267-0.0292c-2.9783-0.2531-5.5977,1.9558-5.8503,4.934
		L53.0655,157.1359z"/>
	<path d="M265.1236,86.7307c6.5693,0,19.0882-17.2095,19.0882-27.7518c0-10.5425-8.5466-19.0883-19.0882-19.0883
		c-10.5432,0-19.0882,8.5458-19.0882,19.0883C246.0354,69.5212,258.5543,86.7307,265.1236,86.7307z M270.9708,62.2813
		c2.5274-2.463,5.9288-3.0717,7.5972-1.3596s0.972,5.0966-1.5554,7.5596c-2.5275,2.463-9.1003,2.4271-9.1003,2.4271
		S268.4433,64.7442,270.9708,62.2813z M251.6791,60.9216c1.6684-1.7121,5.0698-1.1033,7.5972,1.3596
		c2.5275,2.463,3.0585,8.6271,3.0585,8.6271s-6.5728,0.0359-9.1003-2.4271C250.707,66.0182,250.0106,62.6337,251.6791,60.9216z"/>
	<path d="M237.5241,164.7666l-0.0272,0.3201c-0.1619,1.9035,1.2499,3.5776,3.1538,3.7395c1.8507,0.1573,3.4857-1.1816,3.7235-3.0054
		l2.9151-22.665c0.0335,0.4419,0.0801,0.9459,0.1381,1.4907l6.3436,93.2597c0.134,1.9693,1.8393,3.457,3.8085,3.323
		c1.8426-0.1255,3.265-1.6439,3.3287-3.4505l2.4663-76.6104h3.5862l2.4663,76.6104c0.0638,1.9725,1.7142,3.5204,3.6868,3.457
		c1.8467-0.0597,3.3222-1.5262,3.4506-3.3295l6.4269-94.4883l2.8824,22.403c0.2436,1.8949,1.9774,3.2331,3.8723,2.9895
		c1.8426-0.2371,3.1579-1.8908,3.005-3.7236l-6.1449-72.2782c-0.2297-2.7075-2.611-4.7156-5.3184-4.4854
		c-0.0817,0.0069-0.1627,0.0159-0.2428,0.0266l-0.1226,0.0172l-15.7983,2.1917l-15.7983-2.1917l-0.1063-0.0147
		c-2.6911-0.3736-5.1754,1.5058-5.549,4.1968c-0.0115,0.0814-0.0221,0.1786-0.0286,0.2596l-2.8583,33.6207l2.5847,30.4004
		C243.6829,160.6081,241.1556,163.9684,237.5241,164.7666z"/>
	<path d="M209.3071,70.9432c7.2263,0,20.9973-18.9307,20.9973-30.5274c0-11.5969-9.4014-20.9973-20.9973-20.9973
		c-11.5977,0-20.9973,9.4004-20.9973,20.9973C188.3098,52.0126,202.0807,70.9432,209.3071,70.9432z M215.739,44.0486
		c2.7802-2.7094,6.5218-3.3789,8.3571-1.4956s1.0692,5.6063-1.711,8.3157c-2.7802,2.7093-10.0104,2.6698-10.0104,2.6698
		S212.9587,46.7579,215.739,44.0486z M194.5179,42.553c1.8353-1.8833,5.5769-1.2137,8.3571,1.4956
		c2.7802,2.7093,3.3643,9.4899,3.3643,9.4899s-7.2302,0.0395-10.0104-2.6698C193.4487,48.1593,192.6826,44.4363,194.5179,42.553z"/>
	<path d="M182.0576,143.9293l-1.3307-8.0778l-1.8095,21.2844c-0.178,2.0938,1.3749,3.9354,3.4692,4.1135
		c2.0358,0.1731,3.8343-1.2998,4.0959-3.306l0.9841-7.6514C184.6891,149.3574,182.5627,146.9682,182.0576,143.9293z"/>
	<path d="M191.0097,99.5709c0.667,2.4966,1.2207,5.0928,1.7559,7.6035c0.2012,0.9409,0.4014,1.8813,0.6094,2.8203
		c0.4902,2.3936,0.9111,4.748,1.3184,7.0244c0.209,1.166,0.418,2.332,0.6338,3.4961l1.582,10.6787l1.2422,10.4385
		c0.2568,2.1567-0.3418,4.2847-1.6865,5.9912c-1.3438,1.7056-3.2725,2.7861-5.4287,3.0425c-0.0353,0.0042-0.07,0.0025-0.1052,0.0062
		l5.8882,86.5657c0.1475,2.1663,2.0233,3.8028,4.1895,3.6553c2.0268-0.138,3.5915-1.8083,3.6616-3.7956l2.713-84.2723h3.9449
		l2.713,84.2723c0.0701,2.1698,1.8857,3.8725,4.0555,3.8028c2.0313-0.0656,3.6544-1.6788,3.7956-3.6625l7.0697-103.9383
		l3.1707,24.6436c0.2679,2.0844,2.1752,3.5564,4.2596,3.2885c2.0269-0.2608,3.4737-2.0799,3.3055-4.0959l-6.7594-79.507
		c-0.2527-2.9782-2.8721-5.1871-5.8503-4.934c-0.09,0.0077-0.179,0.0176-0.2671,0.0292l-0.1349,0.0189l-17.3784,2.4108
		l-17.3784-2.4108l-0.1169-0.0162c-2.9603-0.4109-5.693,1.6564-6.1039,4.6166c-0.0126,0.0895-0.0242,0.1965-0.0314,0.2855
		l-0.2782,3.2722C187.5444,86.8496,189.4399,93.1087,191.0097,99.5709z"/>
	<path d="M146.3804,55.9562c7.8478,0,22.8032-20.5588,22.8032-33.153C169.1837,10.2089,158.9756,0,146.3804,0
		c-12.5933,0-22.8032,10.2089-22.8032,22.8032C123.5772,35.3973,138.5326,55.9562,146.3804,55.9562z M153.3657,26.7484
		c3.0193-2.9423,7.0828-3.6695,9.0759-1.6242s1.1612,6.0886-1.8582,9.0309s-10.8714,2.8995-10.8714,2.8995
		S150.3464,29.6907,153.3657,26.7484z M130.3194,25.1241c1.9932-2.0453,6.0565-1.3181,9.0759,1.6242s3.6537,10.3062,3.6537,10.3062
		s-7.8521,0.0428-10.8714-2.8995S128.3263,27.1694,130.3194,25.1241z"/>
	<path d="M105.6367,100.5153c-0.9141,3.4282-1.584,6.8945-2.3438,10.3423c-0.709,3.4556-1.2852,6.9282-1.9277,10.3882
		l-1.543,10.4209l-1.2402,10.4385c-0.2559,2.1777,1.2441,4.2026,3.4297,4.563c2.25,0.3706,4.375-1.1533,4.7461-3.4043l0.0195-0.1201
		l1.6699-10.1357l1.957-10.0605c0.7734-3.3198,1.4805-6.6563,2.3125-9.9526c0.8828-3.2803,1.6738-6.5894,2.6953-9.814
		c1.8887-6.501,4.1367-12.8662,6.7598-18.9756c0.8779-2.0649,1.8379-4.0688,2.8291-6.0444V120.42
		c-0.0381,0.3604-0.0605,0.7256-0.0596,1.0962l0.3906,114.7627c0.0137,2.1597,1.6602,4.022,3.8574,4.2349
		c2.3477,0.2275,4.4336-1.4907,4.6602-3.8374l8.8955-91.7954h7.165l8.8945,91.7954c0.2168,2.1489,2.0273,3.8501,4.2363,3.8574
		c2.3574,0.0078,4.2754-1.897,4.2832-4.2549l0.3848-113.2725c0.0322-0.4888,0.0498-0.9146,0.0498-1.2446V78.1603
		c0.9912,1.9761,1.9521,3.98,2.8291,6.0449c2.625,6.1094,4.8711,12.4746,6.7617,18.9756c1.0195,3.2246,1.8105,6.5337,2.6934,9.814
		c0.832,3.2964,1.5391,6.6328,2.3125,9.9526l1.957,10.0605l1.6699,10.1357l0.0215,0.1299c0.3594,2.1631,2.3613,3.6821,4.5605,3.4204
		c2.2656-0.269,3.8848-2.3237,3.6152-4.5889l-1.2422-10.4385l-1.543-10.4209c-0.6426-3.46-1.2188-6.9326-1.9258-10.3882
		c-0.7617-3.4478-1.4316-6.9141-2.3457-10.3423c-1.6719-6.8833-3.7324-13.7134-6.2754-20.4561
		c-1.2598-3.374-2.6973-6.7139-4.2871-10.0313l-1.2598-2.478c-0.4258-0.8257-0.9102-1.646-1.3652-2.4688
		c-0.4609-0.8228-0.9961-1.6475-1.5039-2.4722l-0.8496-1.2573c-0.1387-0.2075-0.3223-0.4434-0.4824-0.6631l-0.25-0.335
		l-0.3672-0.4556l-0.002-0.001c-1.25-1.4473-3.2109-2.2813-5.2461-1.9985l-0.0879,0.0122l-18.7666,2.6033l-18.7647-2.6033
		l-0.127-0.0181c-1.8965-0.2485-3.877,0.4395-5.209,2.0044v0.001l-0.3691,0.4556l-0.25,0.335
		c-0.1602,0.2197-0.3438,0.4556-0.4824,0.6631l-0.8496,1.2573c-0.5059,0.8247-1.043,1.6494-1.502,2.4722
		c-0.4551,0.8228-0.9395,1.6431-1.3652,2.4688l-1.2617,2.478c-1.5879,3.3174-3.0273,6.6572-4.2871,10.0313
		C109.3691,86.8019,107.3105,93.632,105.6367,100.5153z"/>
</g>
</svg>
