<?xml version="1.0" encoding="utf-8"?>
<!-- Generator: Adobe Illustrator 24.0.2, SVG Export Plug-In . SVG Version: 6.00 Build 0)  -->
<svg version="1.1" id="Layer_1" xmlns="http://www.w3.org/2000/svg" xmlns:xlink="http://www.w3.org/1999/xlink" x="0px" y="0px"
	 viewBox="0 0 487.2556 423.2699" enable-background="new 0 0 487.2556 423.2699" xml:space="preserve">
<g>
	<path d="M90.7897,375.9083h-9.8185c-0.7227,0-1.3524,0.3915-1.6934,0.9725c-1.2471,1.5171-3.8522,6.4445-2.9275,20.5957
		c0.0704,1.0754,0.9644,1.9006,2.0269,1.9006c0.0444,0,0.0896-0.0015,0.1345-0.0044c0.311-0.0203,0.5996-0.1115,0.8547-0.2535
		l1.3745,21.2118c0.1124,1.7319,1.6074,3.0442,3.3385,2.9321c0.6885-0.0447,1.3084-0.3101,1.8013-0.7194
		c0.4929,0.4093,1.1129,0.6747,1.8011,0.7194c1.731,0.1121,3.2263-1.2002,3.3385-2.9321l1.3747-21.2119
		c0.2551,0.1422,0.5438,0.2334,0.8547,0.2537c0.0452,0.0029,0.0898,0.0044,0.1345,0.0044c1.0624,0,1.9564-0.8252,2.0269-1.9006
		c0.9247-14.1527-1.6812-19.0798-2.928-20.5962C92.1417,376.2996,91.5123,375.9083,90.7897,375.9083z"/>
	<path d="M80.1623,368.7422c0,3.158,2.5602,5.718,5.7181,5.718c3.1584,0,5.7181-2.5601,5.7181-5.718
		c0-3.1582-2.5597-5.7181-5.7181-5.7181C82.7225,363.024,80.1623,365.584,80.1623,368.7422z"/>
	<path d="M115.769,378.0967h-7.5503c-0.5557,0-1.0399,0.301-1.3021,0.7478c-0.959,1.1666-2.9623,4.9557-2.2512,15.8376
		c0.0542,0.827,0.7416,1.4617,1.5587,1.4617c0.0342,0,0.0689-0.0012,0.1035-0.0034c0.2391-0.0156,0.4611-0.0857,0.6572-0.1949
		l1.0569,16.3114c0.0864,1.3319,1.2361,2.3411,2.5673,2.2548c0.5294-0.0343,1.0061-0.2384,1.3851-0.5531
		c0.379,0.3147,0.8558,0.5188,1.385,0.5531c1.3311,0.0863,2.481-0.9229,2.5673-2.2548l1.0571-16.3115
		c0.1962,0.1094,0.4182,0.1794,0.6573,0.1951c0.0347,0.0022,0.0691,0.0034,0.1035,0.0034c0.817,0,1.5044-0.6346,1.5586-1.4617
		c0.7111-10.8831-1.2928-14.672-2.2516-15.8379C116.8087,378.3975,116.3247,378.0967,115.769,378.0967z"/>
	<circle cx="111.9938" cy="372.5859" r="4.3971"/>
	<path d="M135.7015,353.8513c0.6257,0,1.1522-0.4861,1.1938-1.1194c0.5446-8.3354-0.9902-11.2374-1.7245-12.1304
		c-0.201-0.3422-0.5717-0.5726-0.9973-0.5726h-5.7828c-0.4257,0-0.7964,0.2306-0.9973,0.5729
		c-0.7345,0.8934-2.2689,3.7955-1.7242,12.1301c0.0416,0.6333,0.5681,1.1194,1.1938,1.1194c0.0262,0,0.0528-0.0009,0.0792-0.0026
		c0.1832-0.0121,0.3531-0.0657,0.5034-0.1493l0.8095,12.4929c0.0662,1.0201,0.9467,1.793,1.9662,1.7271
		c0.4055-0.0264,0.7706-0.1826,1.0609-0.4238c0.2903,0.2412,0.6554,0.3975,1.0607,0.4238c1.0195,0.0659,1.9002-0.7069,1.9663-1.7271
		l0.8096-12.493c0.1503,0.0837,0.3203,0.1373,0.5034,0.1494C135.6489,353.8505,135.6752,353.8513,135.7015,353.8513z"/>
	<path d="M127.9143,335.8083c0,1.86,1.5079,3.3677,3.3678,3.3677c1.8601,0,3.3677-1.5077,3.3677-3.3677
		c0-1.8601-1.5076-3.3678-3.3677-3.3678C129.4222,332.4406,127.9143,333.9482,127.9143,335.8083z"/>
	<path d="M156.7843,338.6285c-0.6335,0.7706-1.9568,3.2734-1.4871,10.4618c0.0358,0.5461,0.4899,0.9653,1.0296,0.9653
		c0.0226,0,0.0455-0.0007,0.0684-0.0022c0.158-0.0103,0.3046-0.0566,0.4341-0.1288l0.6982,10.7748
		c0.0571,0.8798,0.8165,1.5464,1.6958,1.4893c0.3497-0.0225,0.6646-0.1573,0.915-0.3652c0.2504,0.2079,0.5653,0.3428,0.9149,0.3652
		c0.8793,0.0571,1.6389-0.6095,1.6959-1.4893l0.6982-10.7749c0.1296,0.0723,0.2762,0.1187,0.4342,0.1289
		c0.0229,0.0015,0.0457,0.0022,0.0683,0.0022c0.5397,0,0.9938-0.4192,1.0296-0.9653c0.4697-7.1891-0.8539-9.6919-1.4873-10.4622
		c-0.1733-0.2949-0.493-0.4937-0.8602-0.4937h-4.9874C157.2773,338.1345,156.9575,338.3333,156.7843,338.6285z"/>
	<circle cx="160.1381" cy="334.4944" r="2.9045"/>
	<path d="M210.0031,340.7292c-0.6335,0.7705-1.9568,3.2734-1.4871,10.4617c0.0358,0.5464,0.4899,0.9656,1.0295,0.9656
		c0.0226,0,0.0455-0.0007,0.0684-0.0022c0.158-0.0105,0.3046-0.0566,0.4341-0.1289l0.6982,10.7748
		c0.0571,0.8798,0.8165,1.5464,1.6958,1.4894c0.3497-0.0227,0.6646-0.1575,0.915-0.3655c0.2504,0.208,0.5653,0.3428,0.9149,0.3655
		c0.8793,0.057,1.6389-0.6096,1.6959-1.4894l0.6983-10.7748c0.1296,0.0723,0.2762,0.1184,0.4341,0.1289
		c0.0229,0.0015,0.0457,0.0022,0.0683,0.0022c0.5397,0,0.9938-0.4192,1.0296-0.9656c0.4697-7.189-0.8539-9.6917-1.4873-10.4619
		c-0.1733-0.295-0.493-0.4938-0.8602-0.4938h-4.9874C210.4962,340.2352,210.1763,340.4341,210.0031,340.7292z"/>
	<path d="M213.3569,339.4996c1.6043,0,2.9045-1.3004,2.9045-2.9047c0-1.6041-1.3002-2.9045-2.9045-2.9045
		c-1.6041,0-2.9045,1.3004-2.9045,2.9045C210.4524,338.1992,211.7529,339.4996,213.3569,339.4996z"/>
	<path d="M272.3251,340.7292c-0.6335,0.7705-1.9568,3.2734-1.4871,10.4617c0.0358,0.5464,0.4899,0.9656,1.0295,0.9656
		c0.0226,0,0.0455-0.0007,0.0684-0.0022c0.158-0.0105,0.3046-0.0566,0.4341-0.1289l0.6982,10.7748
		c0.0571,0.8798,0.8165,1.5464,1.6958,1.4894c0.3497-0.0227,0.6646-0.1575,0.915-0.3655c0.2504,0.208,0.5653,0.3428,0.9149,0.3655
		c0.8793,0.057,1.6389-0.6096,1.6958-1.4894l0.6983-10.7748c0.1296,0.0723,0.2762,0.1184,0.4341,0.1289
		c0.0229,0.0015,0.0457,0.0022,0.0684,0.0022c0.5397,0,0.9938-0.4192,1.0295-0.9656c0.4697-7.189-0.8539-9.6917-1.4873-10.4619
		c-0.1733-0.295-0.493-0.4938-0.8602-0.4938h-4.9874C272.8182,340.2352,272.4984,340.4341,272.3251,340.7292z"/>
	<path d="M275.679,339.4996c1.6043,0,2.9046-1.3004,2.9046-2.9047c0-1.6041-1.3003-2.9045-2.9046-2.9045
		c-1.604,0-2.9045,1.3004-2.9045,2.9045C272.7744,338.1992,274.075,339.4996,275.679,339.4996z"/>
	<path d="M185.7969,332.6503c-0.5212,0.634-1.61,2.6935-1.2236,8.608c0.0295,0.4495,0.4031,0.7944,0.8472,0.7944
		c0.0186,0,0.0375-0.0007,0.0562-0.002c0.13-0.0085,0.2506-0.0466,0.3572-0.106l0.5745,8.8655
		c0.047,0.7239,0.6718,1.2725,1.3953,1.2256c0.2877-0.0187,0.5469-0.1296,0.7529-0.3008c0.206,0.1711,0.4651,0.2821,0.7527,0.3008
		c0.7235,0.0469,1.3484-0.5017,1.3953-1.2256l0.5746-8.8655c0.1066,0.0593,0.2272,0.0974,0.3572,0.106
		c0.0189,0.0012,0.0375,0.002,0.0562,0.002c0.444,0,0.8177-0.345,0.8471-0.7944c0.3865-5.9153-0.7026-7.9746-1.2238-8.6082
		c-0.1426-0.2429-0.4057-0.4064-0.7077-0.4064h-4.1037C186.2026,332.2438,185.9395,332.4075,185.7969,332.6503z"/>
	<circle cx="188.5565" cy="329.2485" r="2.3899"/>
	<path d="M320.7617,332.5524c-0.4015,0.4884-1.2402,2.0747-0.9425,6.6306c0.0227,0.3463,0.3105,0.6119,0.6525,0.6119
		c0.0143,0,0.0289-0.0005,0.0433-0.0015c0.1001-0.0066,0.193-0.0359,0.2751-0.0815l0.4425,6.829
		c0.0362,0.5576,0.5175,0.9801,1.0748,0.944c0.2216-0.0144,0.4212-0.0999,0.5799-0.2317c0.1587,0.1318,0.3583,0.2173,0.5798,0.2317
		c0.5573,0.0361,1.0387-0.3864,1.0748-0.944l0.4426-6.829c0.0822,0.0457,0.175,0.075,0.2752,0.0815
		c0.0145,0.001,0.0289,0.0015,0.0433,0.0015c0.342,0,0.6299-0.2656,0.6525-0.6119c0.2977-4.5564-0.5412-6.1427-0.9426-6.6307
		c-0.1099-0.187-0.3125-0.313-0.5452-0.313h-3.161C321.0742,332.2393,320.8715,332.3652,320.7617,332.5524z"/>
	<path d="M322.8874,331.7729c1.0168,0,1.8409-0.8241,1.8409-1.8408c0-1.0168-0.8241-1.8409-1.8409-1.8409
		c-1.0167,0-1.8409,0.8241-1.8409,1.8409C321.0464,330.9489,321.8707,331.7729,322.8874,331.7729z"/>
	<path d="M359.3504,361.772c-0.7345,0.8933-2.2689,3.7954-1.7242,12.1301c0.0415,0.6333,0.568,1.1194,1.1938,1.1194
		c0.0261,0,0.0527-0.001,0.0792-0.0027c0.1831-0.012,0.3531-0.0657,0.5034-0.1493l0.8094,12.493
		c0.0662,1.02,0.9468,1.793,1.9663,1.7268c0.4055-0.0261,0.7706-0.1825,1.0609-0.4236c0.2903,0.2411,0.6554,0.3975,1.0607,0.4236
		c1.0195,0.0662,1.9002-0.7068,1.9663-1.7268l0.8096-12.4932c0.1502,0.0837,0.3203,0.1375,0.5034,0.1494
		c0.0266,0.0017,0.0529,0.0027,0.0792,0.0027c0.6258,0,1.1523-0.4861,1.1938-1.1194c0.5446-8.3356-0.9902-11.2375-1.7245-12.1305
		c-0.201-0.3422-0.5717-0.5726-0.9973-0.5726h-5.7828C359.9221,361.199,359.5512,361.4297,359.3504,361.772z"/>
	<path d="M363.2391,360.3462c1.8602,0,3.3678-1.5078,3.3678-3.3678s-1.5076-3.3678-3.3678-3.3678
		c-1.8599,0-3.3677,1.5078-3.3677,3.3678S361.3792,360.3462,363.2391,360.3462z"/>
	<path d="M33.0856,201.1013c0,8.1317,6.5926,14.7244,14.7245,14.7244c8.1318,0,14.7245-6.5927,14.7245-14.7244
		c0-8.1318-6.5927-14.7246-14.7245-14.7246C39.6782,186.3767,33.0856,192.9695,33.0856,201.1013z M59.7281,201.1033
		c0,6.5709-5.3471,11.916-11.918,11.916c-6.5729,0-11.9181-5.3451-11.9181-11.916c0-6.5729,5.3452-11.9221,11.9181-11.9221
		C54.381,189.1812,59.7281,194.5304,59.7281,201.1033z"/>
	<rect x="92.0856" y="276.0483" width="15.6984" height="1.8019"/>
	<rect x="108.2977" y="298.1807" width="9.2226" height="1.801"/>
	<rect x="81.8772" y="287.6292" width="9.2227" height="1.801"/>
	<rect x="122.7113" y="287.6292" width="9.2202" height="1.801"/>
	<rect x="166.331" y="281.9032" width="19.0447" height="2.9592"/>
	<rect x="194.1238" y="270.0874" width="10.5515" height="2.0586"/>
	<rect x="198.9276" y="294.7712" width="24.4489" height="2.9603"/>
	<rect x="176.0242" y="294.7712" width="15.1841" height="2.9603"/>
	<path d="M475.3514,303.6385h-9.3367v-14.4718h-13.1296v14.4718h-6.8274v-14.4718H432.928v14.4718h-8.8333v4.5205h-22.386v-6.1544
		h-5.3686v6.1544h-9.5919v-7.3215H355.062v-2.2174h-29.5854v2.2174h-14.355v7.3215h-22.569L183.7449,187.3066l-61.8903,69.5525
		l-30.1459-34.7612l-76.5802,86.0612H0.9401v2.9493h486.3155v-2.9493h-11.9042V303.6385z M164.1986,305.6858l-18.1289-20.9044
		l7.4847-17.7821h20.7536v-2.0588H154.421l5.4877-13.0376h39.6179v-2.0596h-38.7509l5.2357-12.4388h23.3941v-2.0587h-22.5275
		l5.7378-13.6318l3.3872,0.3569l7.3955-1.2676l8.8511-3.5156l8.0967,3.0361l7.2396-0.8147l17.7515,20.4688h-16.3719v2.0588h18.1573
		l6.7702,7.8066h-19.267v2.0596h21.0533l11.3068,13.0376h-17.7758v2.0588h19.5613l8.4059,9.6926h-38.9477v3.0881h41.6258
		l13.0011,14.9912h-38.4149v2.9603h40.9821l6.8983,7.9542H164.1986z M184.6672,193.0822l21.3279,24.5927l-5.3961,0.6079
		l-8.373-3.1396l-9.2695,3.707l-7.019,1.2031l-2.5114-0.2645L184.6672,193.0822z M126.6272,267.9424h-14.6821v1.8008h16.2252
		l7.4981,8.7507h-12.1425v1.8009h13.6856l15.3259,17.8859h-28.4978v1.801h30.041l5.6457,6.5887H58.545l2.7623-6.5887h40.6v-1.801
		h-39.845l8.5234-20.3304h7.0036v-1.8019h-6.2482l4.2614-10.1647h13.9524v-1.8019h-13.197l5.2897-12.6174l6.5149,0.6865
		l6.5044-2.7383l9.6782,1.334l0.1069,0.0156l6.9849-0.5475L126.6272,267.9424z M91.7861,227.2814l18.0396,21.053l-5.314,0.4161
		l-10.1152-1.3945l-6.5356,2.752l-5.406-0.5688L91.7861,227.2814z"/>
	<rect x="5.1132" y="318.4604" width="464.7529" height="1.4005"/>
	<rect x="367.5452" y="333.3647" width="63.8073" height="1.4005"/>
	<rect y="333.3647" width="110.6391" height="1.4005"/>
	<polygon points="135.5869,395.3464 478.6865,395.3464 478.687,391.764 135.5869,393.2262 	"/>
	<rect y="393.2262" width="65.5898" height="2.1202"/>
	<path d="M284.776,20.7281V9.5785c2.0071-0.6157,3.4762-2.4617,3.4762-4.6707c0-2.7104-2.1973-4.9078-4.9077-4.9078
		c-2.7105,0-4.9078,2.1973-4.9078,4.9078c0,2.209,1.4691,4.055,3.4763,4.6707v11.1497
		c-26.1231,0.3156-47.3158,9.2117-49.3072,20.462c13.458-2.4564,31.2375-3.9521,50.7387-3.9521s37.2807,1.4957,50.7387,3.9521
		C332.0918,29.9398,310.899,21.0437,284.776,20.7281z"/>
	<path d="M283.3445,40.3989c-39.3676,0-71.7466,6.0889-75.6367,13.8914c-0.2591,0.5197-0.392,1.0469-0.392,1.5805
		c0,8.5449,34.0392,15.4719,76.0287,15.4719c41.9894,0,76.0286-6.927,76.0286-15.4719c0-0.5336-0.1329-1.0609-0.392-1.5805
		C355.091,46.4879,322.712,40.3989,283.3445,40.3989z M283.3445,60.7647c-6.581,0-11.9159-0.824-11.9159-1.8404
		s5.3349-1.8404,11.9159-1.8404c6.5809,0,11.9158,0.824,11.9158,1.8404S289.9254,60.7647,283.3445,60.7647z M283.3445,49.8817
		c19.4327,0,35.1861,2.6814,35.1861,5.9891c0,1.5978-3.6835,3.0484-9.6749,4.1223c2.1909-0.728,3.4362-1.5604,3.4362-2.4448
		c0-2.856-12.9602-5.1711-28.9474-5.1711s-28.9474,2.3152-28.9474,5.1711c0,0.8845,1.2453,1.7168,3.4362,2.4448
		c-5.9915-1.0739-9.6749-2.5245-9.6749-4.1223C248.1583,52.5631,263.9117,49.8817,283.3445,49.8817z"/>
	<path d="M407.2762,144.1287c-1.33-7.5135-15.4835-13.4547-32.9297-13.6654v-7.4464c1.3405-0.4111,2.3216-1.644,2.3216-3.1193
		c0-1.8102-1.4674-3.2777-3.2776-3.2777c-1.8102,0-3.2776,1.4675-3.2776,3.2777c0,1.4752,0.9811,2.7081,2.3216,3.1194v7.4463
		c-17.4462,0.2107-31.5998,6.1519-32.9297,13.6654c8.9879-1.6405,20.8619-2.6394,33.8857-2.6394
		S398.2883,142.4882,407.2762,144.1287z"/>
	<path d="M373.3904,143.6003c-26.2915,0-47.9157,4.0664-50.5139,9.2773c-0.173,0.347-0.2618,0.6992-0.2618,1.0555
		c0,5.7067,22.733,10.3329,50.7756,10.3329c28.0427,0,50.7757-4.6262,50.7757-10.3329c0-0.3563-0.0887-0.7085-0.2618-1.0555
		C421.3062,147.6667,399.682,143.6003,373.3904,143.6003z M373.3904,157.2017c-4.3951,0-7.9579-0.5503-7.9579-1.2292
		c0-0.6787,3.5629-1.229,7.9579-1.229s7.958,0.5503,7.958,1.229C381.3484,156.6514,377.7855,157.2017,373.3904,157.2017z
		 M373.3904,149.9333c12.9781,0,23.499,1.7908,23.499,3.9999c0,1.0675-2.4619,2.0366-6.4659,2.7539
		c1.465-0.4865,2.2994-1.0426,2.2994-1.6337c0-1.9072-8.6555-3.4535-19.3325-3.4535s-19.3325,1.5463-19.3325,3.4535
		c0,0.5911,0.8344,1.1472,2.2993,1.6335c-4.0039-0.7173-6.4658-1.6863-6.4658-2.7538
		C349.8915,151.7241,360.4123,149.9333,373.3904,149.9333z"/>
	<path d="M243.8868,124.7898c0,1.1313,4.5063,2.0483,10.0652,2.0483s10.0652-0.917,10.0652-2.0483
		c0-0.6051-1.2974-1.1472-3.3479-1.5222c0.0095-0.0637,0.0222-0.1272,0.0222-0.1919c0-1.5961-2.9163-2.8921-6.55-2.9363v-1.485
		c0.2646-0.0822,0.4602-0.3199,0.4602-0.6115c0-0.3589-0.2909-0.6497-0.6497-0.6497s-0.6497,0.2908-0.6497,0.6497
		c0,0.2915,0.1956,0.5293,0.4602,0.6115v1.485c-3.6337,0.0442-6.55,1.3402-6.55,2.9363c0,0.0647,0.0128,0.1282,0.0222,0.1919
		C245.1841,123.6426,243.8868,124.1847,243.8868,124.7898z"/>
	<path d="M207.4564,109.1045c0,1.1313,4.5064,2.0483,10.0653,2.0483c5.5588,0,10.0652-0.917,10.0652-2.0483
		c0-0.6051-1.2974-1.1472-3.348-1.5222c0.0095-0.0637,0.0222-0.1272,0.0222-0.1919c0-1.5959-2.9163-2.8921-6.55-2.9363v-1.4849
		c0.2646-0.0823,0.4602-0.3199,0.4602-0.6116c0-0.3589-0.2909-0.6497-0.6497-0.6497c-0.3589,0-0.6498,0.2908-0.6498,0.6497
		c0,0.2917,0.1956,0.5293,0.4603,0.6116v1.4849c-3.6337,0.0442-6.55,1.3403-6.55,2.9363c0,0.0647,0.0128,0.1282,0.0222,0.1919
		C208.7538,107.9573,207.4564,108.4994,207.4564,109.1045z"/>
</g>
</svg>
