<?xml version="1.0" encoding="utf-8"?>
<!-- Generator: Adobe Illustrator 24.0.2, SVG Export Plug-In . SVG Version: 6.00 Build 0)  -->
<svg version="1.1" id="Layer_1" xmlns="http://www.w3.org/2000/svg" xmlns:xlink="http://www.w3.org/1999/xlink" x="0px" y="0px"
	 viewBox="0 0 647.8177 421.3198" enable-background="new 0 0 647.8177 421.3198" xml:space="preserve">
<g>
	<polygon points="451.1297,223.8218 461.9852,236.3052 464.2488,234.3364 448.6824,216.4351 447.4822,232.2202 411.1961,200.5122 
		418.6336,242.7183 402.8885,238.7817 413.2371,256.4995 394.074,258.2417 415.9207,269.4097 417.2859,266.7378 404.6736,260.2905 
		418.2078,259.0601 409.0721,243.4204 422.3895,246.7495 415.6258,208.3677 450.0193,238.4214 	"/>
	<rect x="602.4048" y="286.7928" width="25.5962" height="26.9117"/>
	<path d="M626.3939,259.6289c0-3.7362-3.0291-6.7654-6.7651-6.7654c-3.7368,0-6.7656,3.0292-6.7656,6.7654
		c0,3.7373,3.0288,6.7664,6.7656,6.7664C623.3648,266.3953,626.3939,263.3662,626.3939,259.6289z"/>
	<path d="M606.5674,262.2605c-2.75,0-4.9797,2.23-4.9797,4.9795c0,2.7506,2.2297,4.9805,4.9797,4.9805
		c2.7507,0,4.98-2.2299,4.98-4.9805C611.5474,264.4905,609.3182,262.2605,606.5674,262.2605z"/>
	<path d="M608.0237,275.9719c-1.5479,0-2.8032,1.2551-2.8032,2.8029c0,1.5482,1.2554,2.8033,2.8032,2.8033
		c1.5483,0,2.8032-1.2551,2.8032-2.8033C610.827,277.2271,609.5721,275.9719,608.0237,275.9719z"/>
	<path d="M641.3065,195.1318c-2.0347,3.4492-5.7783,5.7703-10.073,5.7703c-0.3171,0-0.6289-0.0227-0.9397-0.0474
		c6.0205-0.48,10.7585-5.5071,10.7585-11.6511c0-6.1431-4.738-11.171-10.7585-11.651c-0.311-0.0248-0.6226-0.0475-0.9399-0.0475
		c-4.6289,0-8.6187,2.6962-10.5151,6.5974c-2.0989-0.9966-4.437-1.5708-6.9148-1.5708c-5.1296,0-9.6924,2.3977-12.6533,6.125
		c2.0071,1.2111,3.4551,3.2456,3.8755,5.6404c-1.2786-2.9146-4.1858-4.9526-7.5728-4.9526c-4.5664,0-8.2686,3.7021-8.2686,8.2686
		c0,0.4911,0.0508,0.9695,0.1331,1.4373c0.6812,3.8809,4.0601,6.8322,8.1355,6.8322c0.6167,0,1.2158-0.0726,1.7939-0.2008
		c2.1792,4.5298,6.3943,7.8894,11.4702,8.8718c-0.1887,0.8391-0.2966,1.7085-0.2966,2.6046c0,5.5416,3.8127,10.1805,8.9546,11.4706
		c0.7634,0.1915,1.5547,0.3076,2.3691,0.3428c-0.511,1.1586-0.7998,2.437-0.7998,3.7843c0,4.5115,3.1804,8.2772,7.4207,9.1852
		c-0.156,0.0076-0.3096,0.0236-0.4675,0.0236c-3.0239,0-5.7068-1.4344-7.4255-3.6534c-2.072,1.1565-3.4744,3.3677-3.4744,5.9086
		c0,3.7362,3.0286,6.7654,6.7656,6.7654c3.7363,0,6.7656-3.0292,6.7656-6.7654c0-0.7239-0.1165-1.4199-0.3271-2.0739
		c0.0469,0.0007,0.0918,0.0071,0.1387,0.0071c5.1897,0,9.3965-4.2075,9.3965-9.3971c0-4.546-3.2295-8.338-7.5198-9.2078
		c0.938-1.4584,1.5632-3.1334,1.7844-4.9364c-4.217-1.1445-7.4963-4.5511-8.4473-8.8445c0.3057-0.3243,0.6016-0.6572,0.8799-1.006
		c1.3528,5.0492,5.9473,8.7726,11.4238,8.7726c4.3533,0,8.1472-2.3564,10.2041-5.8563c1.0327-1.7572,1.6353-3.7975,1.6353-5.9832
		C647.8177,201.0743,645.1658,197.0828,641.3065,195.1318z"/>
	<path d="M609.6688,175.25c0,2.5942,2.1033,4.6975,4.698,4.6975c2.595,0,4.698-2.1033,4.698-4.6975
		c0-2.5955-2.103-4.6985-4.698-4.6985C611.772,170.5515,609.6688,172.6545,609.6688,175.25z"/>
	<path d="M602.5274,177.2233c0-3.6855-2.9868-6.6718-6.6711-6.6718c-3.6846,0-6.6719,2.9862-6.6719,6.6718
		c0,3.6844,2.9873,6.6707,6.6719,6.6707C599.5406,183.8939,602.5274,180.9077,602.5274,177.2233z"/>
	<polygon points="334.7049,274.479 345.7752,278.7954 345.7752,288.0786 349.9471,289.9097 350.4913,290.8572 350.4913,252.9102 
		328.1163,252.9102 328.1163,261.7876 333.6863,261.7876 	"/>
	<polygon points="232.9588,274.064 238.203,273.144 245.0848,280.1001 245.0848,313.7046 269.8172,313.7046 269.8172,305.6655 
		287.5203,305.6655 287.5203,313.7046 312.1199,313.7046 312.1199,261.7876 322.9974,261.7876 322.9974,233.5283 302.2984,233.5283 
		302.2984,293.7688 280.2422,293.7688 280.2422,272.2644 258.1859,272.2644 258.1859,286.8406 250.2904,286.8406 250.2904,221.6045 
		232.293,221.6045 232.293,267.1694 234.8182,269.7222 	"/>
	<polygon points="499.994,313.7046 499.994,295.8442 526.8026,295.8442 526.8026,313.7046 597.5057,313.7046 597.5057,307.5452 
		590.515,307.5452 590.515,300.9946 575.3221,300.9946 575.3221,307.5452 554.9273,307.5452 554.9273,297.8958 539.2193,297.8958 
		539.2193,289.8776 530.4639,289.8776 530.4639,268.958 509.5482,250.9646 509.5482,286.5198 504.0284,286.5198 504.0284,280.9365 
		491.9822,280.9365 491.9822,286.5198 479.3328,286.5198 479.3328,313.7046 	"/>
	<polygon points="435.2205,303.3706 435.2205,313.7046 443.0994,313.7046 443.0994,270.8257 429.7767,270.8257 429.7767,303.3706 	
		"/>
	<polygon points="360.4197,313.7046 379.9852,313.7046 379.9852,303.3706 393.9764,303.3706 397.8817,308.6675 405.3602,309.6138 
		405.3602,313.7046 409.8455,313.7046 409.8455,303.3706 424.4561,303.3706 424.4561,275.6931 389.2791,275.6931 389.2791,220.0382 
		359.8709,220.0382 359.8709,298.2991 360.4197,298.5522 	"/>
	<rect x="166.2283" y="281.7075" width="36.4131" height="31.9971"/>
	<polygon points="55.3514,325.1361 69.6929,316.9668 69.4732,316.0054 55.3514,316.0054 	"/>
	<polygon points="524.5018,316.0054 524.5018,298.145 502.2947,298.145 502.2947,316.0054 477.032,316.0054 477.032,279.6108 
		471.1951,266.7808 456.1121,266.2837 451.1678,253.1021 445.4002,253.1021 445.4002,316.0054 432.9197,316.0054 432.9197,305.6714 
		412.1463,305.6714 412.1463,316.0054 403.0594,316.0054 403.0594,311.6411 396.616,310.8257 392.8143,305.6714 382.2859,305.6714 
		382.2859,316.0054 358.119,316.0054 358.119,300.0249 351.2967,296.8765 348.3299,291.7124 343.4744,289.5806 343.4744,280.3677 
		332.5272,276.0981 331.5633,264.0884 314.4207,264.0884 314.4207,316.0054 285.2195,316.0054 285.2195,307.9663 272.118,307.9663 
		272.118,316.0054 242.784,316.0054 242.784,281.0454 237.4139,275.6167 229.1717,277.064 232.0946,270.2397 226.742,264.8286 
		221.5662,253.1792 204.9422,253.1792 204.9422,316.0054 132.2252,316.0054 133.1588,325.2671 645.1815,325.2671 645.1815,316.0054 
			"/>
	<path d="M214.7579,72.5197c0-14.1772-11.4946-25.6718-25.6716-25.6718c-14.1785,0-25.6719,11.4945-25.6719,25.6718
		c0,14.1795,11.4934,25.6718,25.6719,25.6718C203.2633,98.1914,214.7579,86.6992,214.7579,72.5197z M189.0863,93.2977
		c-11.4608,0-20.7794-9.3162-20.7794-20.7731c0-11.4621,9.3186-20.7856,20.7794-20.7856c11.4557,0,20.7781,9.3235,20.7781,20.7856
		C209.8643,83.9816,200.5419,93.2977,189.0863,93.2977z"/>
	<path d="M266.3592,230.1204c0,2.9604,2.3992,5.3601,5.3591,5.3601c2.9597,0,5.3591-2.3997,5.3591-5.3601
		c0-2.9595-2.3994-5.3591-5.3591-5.3591C268.7584,224.7612,266.3592,227.1609,266.3592,230.1204z"/>
	<path d="M257.4274,236.1494c0,2.179,1.7662,3.9453,3.9447,3.9453c2.179,0,3.9448-1.7664,3.9448-3.9453
		c0-2.178-1.7659-3.9443-3.9448-3.9443C259.1937,232.2051,257.4274,233.9714,257.4274,236.1494z"/>
	<path d="M274.9233,190.6228c0.2423-0.2568,0.4766-0.5205,0.6971-0.7969c1.0715,3.9998,4.7111,6.9491,9.0492,6.9491
		c3.4486,0,6.4539-1.8666,8.0831-4.639c0.818-1.392,1.2954-3.0082,1.2954-4.7395c0-3.6594-2.1008-6.8215-5.158-8.3669
		c-1.6117,2.7324-4.5771,4.571-7.9791,4.571c-0.2513,0-0.4982-0.0181-0.7445-0.0376c4.7693-0.3801,8.5225-4.3623,8.5225-9.2292
		c0-4.8662-3.7532-8.8491-8.5225-9.2292c-0.2462-0.0197-0.4932-0.0376-0.7444-0.0376c-3.6669,0-6.8271,2.1357-8.3296,5.2261
		c-1.6624-0.7896-3.5146-1.2443-5.4773-1.2443c-4.0635,0-7.6779,1.8992-10.0233,4.8519c1.5898,0.9592,2.7368,2.5708,3.0698,4.4678
		c-1.0128-2.3086-3.3155-3.9231-5.9986-3.9231c-3.6172,0-6.5498,2.9326-6.5498,6.5498c0,0.389,0.0403,0.7681,0.1055,1.1385
		c0.5396,3.0742,3.2162,5.412,6.4443,5.412c0.4886,0,0.9631-0.0576,1.4211-0.1589c1.7263,3.5881,5.0652,6.2493,9.086,7.0276
		c-0.1494,0.6647-0.2351,1.3535-0.2351,2.0632c0,4.3896,3.0204,8.0645,7.0934,9.0863c0.6047,0.1517,1.2316,0.2437,1.8765,0.2716
		c-0.4045,0.9177-0.6333,1.9303-0.6333,2.9976c0,3.5737,2.5193,6.5566,5.8782,7.2759c-0.1235,0.0061-0.2454,0.0188-0.3704,0.0188
		c-2.3872,0-4.5066-1.1284-5.8687-2.8761c-1.6421,0.9159-2.7656,2.649-2.7656,4.6625c0,2.9596,2.399,5.3591,5.3594,5.3591
		c2.9597,0,5.3591-2.3995,5.3591-5.3591c0-0.5774-0.115-1.1229-0.2839-1.644c0.0453,0.0007,0.0894,0.0068,0.1348,0.0068
		c4.1111,0,7.4435-3.3329,7.4435-7.4438c0-3.601-2.5582-6.6047-5.9568-7.2937c0.743-1.1553,1.2383-2.4822,1.4135-3.9104
		C278.2745,196.7223,275.6768,194.0238,274.9233,190.6228z"/>
	<path d="M271.2718,163.2805c0-2.0559-1.666-3.7219-3.7214-3.7219s-3.7214,1.666-3.7214,3.7219c0,2.0549,1.666,3.7209,3.7214,3.7209
		S271.2718,165.3354,271.2718,163.2805z"/>
	<path d="M258.1719,164.8435c0-2.9194-2.366-5.2849-5.2847-5.2849c-2.9185,0-5.2849,2.3655-5.2849,5.2849
		c0,2.9186,2.3665,5.2842,5.2849,5.2842C255.806,170.1277,258.1719,167.7621,258.1719,164.8435z"/>
	<path d="M127.4537,308.5479c-0.126-1.251-0.4385-2.438-0.9033-3.5391l-13.5391-59.2515l23.6231-14.4521
		c3.1904-1.9521,4.6025-5.854,3.4004-9.396l-15.333-45.1665c-1.4199-4.1836-5.9668-6.4258-10.1465-5.0034
		c-4.1846,1.4199-6.4248,5.9629-5.0039,10.147l13.2764,39.1089l-22.876,13.9951c-0.4131,0.2529-0.79,0.542-1.1396,0.853
		l-0.0167,0.0039c-2.3043,6.4863-7.2736,11.9175-14.1036,14.6595c-1.207,0.4846-2.4666,0.8782-3.7437,1.1699
		c-6.457,1.4758-13.1028,0.3481-18.7128-3.1747c-0.9609-0.6035-1.8676-1.269-2.7247-1.9832
		c-0.4719,0.5496-0.8843,1.1643-1.2024,1.8557L46.983,272.999l-38.6191-1.7554c-4.4385-0.2036-8.1543,3.2153-8.3555,7.6284
		c-0.2002,4.4136,3.2148,8.1543,7.6289,8.355l44,2c0.1221,0.0054,0.2441,0.0083,0.3652,0.0083c3.1113,0,5.957-1.8101,7.2666-4.6572
		l4.7617-10.3521l10.2236,44.7461l-20.9834,11.9526c-3.4336,1.9561-5.7139,5.4492-6.1211,9.3804l-7,67.5
		c-0.6982,6.7295,4.1914,12.7505,10.9209,13.4482c0.4297,0.0444,0.8555,0.0664,1.2783,0.0664
		c6.1973-0.0005,11.5166-4.6875,12.1699-10.9873l6.3506-61.2363l34.0283-19.3833c0.0215-0.0122,0.04-0.0264,0.0605-0.0386
		l3.1875,31.623c0.4648,4.6069,3.4863,8.5581,7.8105,10.2129l57.5,22c1.4404,0.5508,2.9199,0.812,4.375,0.812
		c4.9297,0,9.5771-2.9976,11.4443-7.876c2.417-6.3188-0.7451-13.4009-7.0635-15.8188l-50.4473-19.3013L127.4537,308.5479z"/>
	<path d="M80.4363,249.4343c12.1155-2.7686,19.6907-14.8323,16.9226-26.9468c-2.7683-12.1146-14.8313-19.6909-26.9468-16.9226
		c-12.1135,2.7681-19.6907,14.8323-16.9226,26.9468C56.2579,244.6262,68.3228,252.2021,80.4363,249.4343z M71.2896,230.0344
		c6.6726-2.1045,13.0686-0.679,14.2861,3.1838c1.2197,3.8627-5.4083,1.7053-12.0791,3.8094
		c-6.6726,2.1044-10.8615,7.6735-12.0811,3.8116C60.1981,236.9766,64.619,232.1395,71.2896,230.0344z"/>
	<path d="M193.0583,261.5813c2.65-5.5074,0.1498-9.8296-2.7776-15.2119c1.328,5.3257,2.4708,10.3652-0.986,14.3452
		c-2.8557-1.8973-3.0522-6.2512-1.9492-9.1882c-2.854,4.363-4.0583,9.8578-0.5098,14.3945
		c2.7256,3.168,5.4514,6.3362,2.5811,10.8577c2.2722-1.8141,2.3939-4.5703,2.2876-6.6681c-0.298-1.7963-1.2961-3.0216-0.9423-4.9117
		C191.051,263.9442,192.452,262.8033,193.0583,261.5813z"/>
	<path d="M351.5904,217.985c2.6501-5.5074,0.1498-9.8297-2.7776-15.212c1.3279,5.3259,2.4708,10.3652-0.9861,14.3452
		c-2.8556-1.8972-3.0522-6.2512-1.9492-9.1881c-2.854,4.363-4.0581,9.8578-0.5096,14.3944
		c2.7257,3.1681,5.4513,6.3362,2.5812,10.8578c2.2721-1.8141,2.3938-4.5703,2.2874-6.6681
		c-0.2979-1.7963-1.296-3.0216-0.9421-4.9119C349.5831,220.3479,350.9841,219.207,351.5904,217.985z"/>
	<path d="M219.108,237.626c4.6277-3.5171,2.5928-11.0314,1.3381-12.5773c0.3684,4.3658-1.5691,8.4161-3.2327,9.0704
		c1.8223-4.6968,1.5887-9.7478-5.6426-15.1584c2.9363,4.3994,5.3628,10.9956,1.4855,14.353
		c-1.4401-0.8152-1.806-3.2913-1.9325-4.6936c-3.2676,5.9075,2.1995,18.2429,6.1418,21.3099
		C216.3756,247.0691,216.7691,239.4037,219.108,237.626z"/>
	<polygon points="262.5174,334.019 238.515,334.3362 251.3735,340.0453 268.518,338.1423 304.9501,340.3625 321.5233,338.988 
		323.8091,335.6049 302.3785,337.5078 	"/>
	<polygon points="409.1656,333.3218 390.9896,333.6389 400.7269,339.348 413.7095,337.4451 441.2979,339.6653 453.848,338.2908 
		455.5789,334.9076 439.3504,336.8107 	"/>
	<polygon points="221.5408,331.1443 216.9398,334.2815 213.1754,336.7911 212.5479,340.5557 232.2071,340.3466 228.4426,334.9089 	
		"/>
	<polygon points="362.9532,333.1887 362.3707,336.6841 366.2156,338.8977 370.876,337.7327 367.4971,333.4216 	"/>
	<polygon points="352.5919,346.4969 352.1658,349.0535 354.9778,350.6725 358.3865,349.8203 355.9152,346.6675 	"/>
	<polygon points="329.8034,330.8367 329.515,332.5673 331.4185,333.6633 333.7259,333.0864 332.053,330.9521 	"/>
	<polygon points="198.7226,337.1394 198.3392,339.4403 200.8699,340.8975 203.9378,340.1306 201.7137,337.2928 	"/>
	<polygon points="464.9671,337.6006 465.0987,339.7039 467.5963,342.0701 470.6197,340.887 468.6478,336.6804 	"/>
	<polygon points="357.4053,336.0645 351.376,333.3848 350.3712,337.7393 355.3956,338.4092 	"/>
	<polygon points="337.1459,342.5449 342.1703,343.2148 344.1801,340.8701 338.1508,338.1904 	"/>
	<polygon points="552.0357,333.1887 551.4532,336.6841 555.2982,338.8977 559.9586,337.7327 556.5797,333.4216 	"/>
	<polygon points="539.4539,337.7393 544.4783,338.4092 546.4881,336.0645 540.4588,333.3848 	"/>
	<polygon points="504.6505,335.9395 509.6749,336.6094 511.6846,334.2646 505.6553,331.585 	"/>
	<path d="M48.0777,219.4473c0.4189-0.3579,0.4705-0.9895,0.1125-1.4099c-0.3584-0.4205-0.9894-0.4705-1.4099-0.1123
		c-1.8062,1.5392-2.7775,3.2854-2.887,5.1917c-0.1702,2.9434,1.8257,5.1238,1.9106,5.2151c0.375,0.4031,1.0039,0.4254,1.4088,0.052
		c0.0277-0.0254,0.0536-0.0521,0.0778-0.08c0.3286-0.3788,0.3267-0.9532-0.0198-1.3317c-0.0151-0.0164-1.509-1.6741-1.3798-3.7573
		C45.9733,221.8809,46.7086,220.6124,48.0777,219.4473z"/>
	<path d="M44.8007,216.4164c0.4327-0.3445,0.5077-0.9711,0.1663-1.4047c-0.3418-0.4338-0.9703-0.5082-1.4043-0.1665
		c-2.776,2.1885-4.3317,4.7163-4.6227,7.5149c-0.4434,4.2595,2.2417,7.5278,2.3564,7.6653
		c0.3533,0.4229,0.9814,0.4789,1.4055,0.1266c0.0425-0.0355,0.0814-0.0739,0.1166-0.1144c0.3148-0.3628,0.33-0.9106,0.0143-1.2927
		c-0.0227-0.0276-2.2661-2.7871-1.9016-6.1973C41.1695,220.3141,42.4696,218.2509,44.8007,216.4164z"/>
	<path d="M141.97,346.8506c0.5009,0.2334,1.0955,0.0165,1.329-0.4841c1.0023-2.1509,1.1595-4.1428,0.4664-5.9221
		c-1.0691-2.7476-3.791-3.9004-3.9063-3.9482c-0.5087-0.2104-1.09,0.0308-1.3029,0.5387c-0.0148,0.0345-0.027,0.0697-0.0375,0.1051
		c-0.1414,0.4811,0.0994,1.0027,0.5718,1.2029c0.0205,0.0085,2.0685,0.8949,2.8173,2.8431
		c0.4799,1.2474,0.3387,2.7067-0.4218,4.3358C141.2537,346.0214,141.4696,346.6171,141.97,346.8506z"/>
	<path d="M146.1595,348.2618c0.4912,0.2524,1.0938,0.0587,1.3464-0.4325c1.6145-3.1448,1.9781-6.0905,1.079-8.7567
		c-1.3683-4.058-5.1691-5.9139-5.3307-5.9911c-0.4971-0.2377-1.0918-0.0273-1.3308,0.4694
		c-0.0238,0.0499-0.0435,0.101-0.0586,0.1525c-0.1353,0.4608,0.0789,0.9655,0.5247,1.1816c0.0321,0.0156,3.22,1.5923,4.3065,4.8452
		c0.712,2.1304,0.3878,4.5474-0.9694,7.1851C145.4764,347.4084,145.6688,348.0095,146.1595,348.2618z"/>
	<polygon points="60.9178,200.4331 38.4808,159.7903 34.1141,161.0621 58.9068,201.1155 	"/>
	<polygon points="69.5145,200.166 71.3406,153.7764 66.9443,152.6055 67.4407,199.71 	"/>
	<polygon points="51.6578,206.5854 13.2769,180.467 9.9549,183.5762 50.1732,208.1016 	"/>
	<path d="M580.0938,276.7819c2.6499-5.5074,0.1497-9.8297-2.7776-15.212c1.3279,5.3259,2.4707,10.3652-0.9861,14.3452
		c-2.8557-1.8972-3.0522-6.2512-1.9492-9.1881c-2.854,4.363-4.0583,9.8578-0.5098,14.3944
		c2.7258,3.168,5.4514,6.3362,2.5811,10.8578c2.2722-1.8141,2.3938-4.5703,2.2876-6.6681
		c-0.2981-1.7963-1.2961-3.0216-0.9421-4.9119C578.0865,279.1448,579.4874,278.0039,580.0938,276.7819z"/>
	<path d="M589.2051,282.8002c-2.533,4.5795,1.7048,14.1412,4.761,16.5187c-0.6899-2.2177-0.385-8.1597,1.428-9.5376
		c3.5874-2.7263,2.01-8.5511,1.0374-9.7495c0.2856,3.3843-1.2163,6.5239-2.5059,7.0311c1.4126-3.6407,1.2314-7.556-4.374-11.7502
		c2.2761,3.4103,4.157,8.5234,1.1516,11.126C589.5867,285.8066,589.303,283.8872,589.2051,282.8002z"/>
	<path d="M545.5523,54.5128c-2.6379-14.8887-30.6855-26.6614-65.2576-27.079V12.7083c2.6626-0.811,4.6006-3.2849,4.6006-6.2129
		C484.8953,2.9081,481.9874,0,478.4,0c-3.5872,0-6.4954,2.9081-6.4954,6.4954c0,2.928,1.938,5.4019,4.6008,6.213v14.7254
		c-34.572,0.4177-62.6196,12.1903-65.2576,27.079c17.811-3.2504,41.3452-5.2284,67.1521-5.2284
		C504.2071,49.2844,527.7413,51.2624,545.5523,54.5128z"/>
	<path d="M478.4,94.4221c55.573,0,100.624-9.1679,100.624-20.4771c0-0.7062-0.1758-1.4041-0.5188-2.0918
		C573.3568,61.5266,530.503,53.4679,478.4,53.4679c-52.1028,0-94.9565,8.0587-100.1052,18.3853
		c-0.3428,0.6877-0.5186,1.3856-0.5186,2.0918C377.7762,85.2542,422.827,94.4221,478.4,94.4221z M478.4,80.4221
		c-8.7097,0-15.7705-1.0906-15.7705-2.4358c0-1.3453,7.0608-2.4358,15.7705-2.4358c8.71,0,15.7708,1.0905,15.7708,2.4358
		C494.1707,79.3315,487.1099,80.4221,478.4,80.4221z M478.4,66.0184c25.7192,0,46.5688,3.5489,46.5688,7.9266
		c0,2.1148-4.875,4.0346-12.8047,5.4559c2.8997-0.9636,4.5479-2.0651,4.5479-3.2357c0-3.7798-17.1528-6.8441-38.312-6.8441
		c-21.1589,0-38.3118,3.0642-38.3118,6.8441c0,1.1706,1.6482,2.2722,4.5479,3.2357c-7.9297-1.4213-12.8047-3.3411-12.8047-5.4559
		C431.8314,69.5673,452.6807,66.0184,478.4,66.0184z"/>
	<path d="M364.4871,128.5288c-1.1575-6.5392-13.4758-11.71-28.6597-11.8934v-6.4808c1.1666-0.3579,2.0205-1.4308,2.0205-2.7147
		c0-1.5755-1.2772-2.8527-2.8527-2.8527s-2.8527,1.2772-2.8527,2.8527c0,1.2839,0.8539,2.3568,2.0205,2.7147v6.4808
		c-15.1838,0.1835-27.5022,5.3542-28.6597,11.8934c7.8225-1.4277,18.1567-2.2971,29.4918-2.2971
		S356.6646,127.1011,364.4871,128.5288z"/>
	<path d="M334.9953,128.069c-22.8823,0-41.7026,3.5392-43.9637,8.0743c-0.1506,0.3021-0.2278,0.6086-0.2278,0.9187
		c0,4.9668,19.7852,8.993,44.1915,8.993s44.1915-4.0262,44.1915-8.993c0-0.3101-0.0771-0.6166-0.2278-0.9187
		C376.6981,131.6082,357.8776,128.069,334.9953,128.069z M334.9953,139.9066c-3.8252,0-6.9261-0.4789-6.9261-1.0697
		s3.101-1.0698,6.9261-1.0698s6.9261,0.479,6.9261,1.0698S338.8205,139.9066,334.9953,139.9066z M334.9953,133.5808
		c11.2953,0,20.4519,1.5586,20.4519,3.4812c0,0.9268-2.1412,1.7666-5.61,2.3904c1.2633-0.4219,1.9838-0.9034,1.9838-1.4153
		c0-1.66-7.5331-3.0057-16.8257-3.0057s-16.8257,1.3457-16.8257,3.0057c0,0.5118,0.7205,0.9934,1.9838,1.4153
		c-3.4688-0.6238-5.61-1.4636-5.61-2.3904C314.5434,135.1394,323.7,133.5808,334.9953,133.5808z"/>
	<path d="M567.9576,152.5481c-0.5918-3.3259-6.8508-5.9518-14.574-6.0457V143.2c0.5938-0.182,1.0283-0.728,1.0283-1.3813
		c0-0.8018-0.6499-1.4517-1.4517-1.4517s-1.4517,0.6499-1.4517,1.4517c0,0.6533,0.4346,1.1993,1.0283,1.3813v3.3025
		c-7.7231,0.0939-13.9819,2.7197-14.574,6.0457c3.9792-0.7256,9.2341-1.1672,14.9973-1.1672
		C558.7237,151.3809,563.9783,151.8225,567.9576,152.5481z"/>
	<path d="M552.9603,161.4679c12.4192,0,22.4868-2.0487,22.4868-4.576c0-0.1578-0.0391-0.3138-0.1157-0.4675
		c-1.1506-2.3077-10.7273-4.1086-22.3711-4.1086c-11.6436,0-21.2205,1.8009-22.3708,4.1086
		c-0.0767,0.1537-0.116,0.3097-0.116,0.4675C530.4734,159.4192,540.5411,161.4679,552.9603,161.4679z M552.9603,158.3394
		c-1.9463,0-3.5244-0.2438-3.5244-0.5444c0-0.3005,1.5781-0.5443,3.5244-0.5443c1.9465,0,3.5244,0.2438,3.5244,0.5443
		C556.4847,158.0956,554.9068,158.3394,552.9603,158.3394z M552.9603,155.1204c5.7476,0,10.407,0.7932,10.407,1.7715
		c0,0.4714-1.0896,0.8989-2.8545,1.2163c0.6428-0.2147,1.0093-0.4597,1.0093-0.7202c0-0.8447-3.8333-1.5294-8.5618-1.5294
		s-8.5618,0.6847-8.5618,1.5294c0,0.2605,0.3667,0.5055,1.0095,0.7202c-1.7651-0.3174-2.8547-0.7449-2.8547-1.2163
		C542.5533,155.9136,547.2127,155.1204,552.9603,155.1204z"/>
	<path d="M416.2105,132.5718c0,0.9845,3.9221,1.7826,8.76,1.7826c4.8381,0,8.7603-0.7981,8.7603-1.7826
		c0-0.5269-1.1292-0.9987-2.9138-1.325c0.0081-0.0555,0.0193-0.1106,0.0193-0.167c0-1.3892-2.5381-2.5171-5.7007-2.5555v-1.2924
		c0.2302-0.0715,0.4006-0.2784,0.4006-0.5322c0-0.3123-0.2532-0.5654-0.5657-0.5654c-0.3123,0-0.5654,0.2532-0.5654,0.5654
		c0,0.2538,0.1704,0.4607,0.4006,0.5322v1.2924c-3.1626,0.0385-5.7007,1.1664-5.7007,2.5555c0,0.0564,0.011,0.1115,0.0193,0.167
		C417.3397,131.5731,416.2105,132.0449,416.2105,132.5718z"/>
	<path d="M616.137,132.5718c0,0.9845,3.9221,1.7826,8.7603,1.7826c4.8379,0,8.76-0.7981,8.76-1.7826
		c0-0.5269-1.1292-0.9987-2.9138-1.325c0.0083-0.0555,0.0195-0.1106,0.0195-0.167c0-1.3892-2.5383-2.5171-5.7007-2.5555v-1.2924
		c0.23-0.0715,0.4004-0.2784,0.4004-0.5322c0-0.3123-0.2532-0.5654-0.5654-0.5654c-0.3125,0-0.5654,0.2532-0.5654,0.5654
		c0,0.2538,0.1702,0.4607,0.4004,0.5322v1.2924c-3.1626,0.0385-5.7007,1.1664-5.7007,2.5555c0,0.0564,0.0112,0.1115,0.0195,0.167
		C617.2664,131.5731,616.137,132.0449,616.137,132.5718z"/>
	<path d="M384.5042,118.9204c0,0.9845,3.9219,1.7826,8.76,1.7826s8.76-0.7981,8.76-1.7826c0-0.5269-1.1292-0.9987-2.9138-1.325
		c0.0083-0.0555,0.0193-0.1107,0.0193-0.1671c0-1.389-2.5381-2.517-5.7007-2.5554v-1.2924
		c0.2305-0.0715,0.4006-0.2784,0.4006-0.5322c0-0.3123-0.2532-0.5654-0.5654-0.5654s-0.5654,0.2532-0.5654,0.5654
		c0,0.2537,0.1702,0.4606,0.4004,0.5321v1.2925c-3.1624,0.0385-5.7007,1.1664-5.7007,2.5554c0,0.0564,0.0112,0.1116,0.0193,0.1671
		C385.6331,117.9218,384.5042,118.3936,384.5042,118.9204z"/>
	<rect x="466.5853" y="103.0459" width="2.9727" height="151.2661"/>
	<rect x="487.5027" y="103.0459" width="2.9724" height="151.2661"/>
	<rect x="472.7503" y="115.4863" width="1.5415" height="122.4219"/>
	<polygon points="548.3016,287.7808 572.6453,265.2583 547.6756,269.7085 558.0301,230.0874 528.8533,244.1196 536.8094,194.6919 
		509.6776,237.0649 503.4363,216.6577 493.326,236.2856 495.992,237.6587 502.7254,224.5894 508.7049,244.147 531.5535,208.4634 
		524.9783,249.311 553.4891,235.6011 543.5877,273.4839 563.0945,270.0083 546.2645,285.5786 	"/>
	<polygon points="422.3284,222.6055 428.6036,248.2019 430.0899,237.4679 447.7596,243.9082 	"/>
	<polygon points="520.0899,240.2202 521.1907,251.0093 525.4844,224.0367 514.4752,242.4221 	"/>
	<polygon points="546.9522,243.1926 528.2366,253.7615 539.0257,255.0825 536.8238,271.9266 	"/>
	<polygon points="494.5211,205.3973 499.2166,208.5618 502.5853,203.1516 	"/>
	<polygon points="403.9056,221.2969 405.2908,218.6527 403.5909,216.3232 396.5394,221.3599 	"/>
	<polygon points="456.6219,203.6147 452.576,204.573 452.0809,208.5981 454.888,210.3232 457.3651,207.6399 	"/>
	<polygon points="431.5694,260.1167 438.7034,258.3687 439.1497,254.2874 433.9383,253.135 429.7996,256.2803 	"/>
	<polygon points="485.6951,269.5801 492.2479,269.0488 495.7896,267.6321 497.3836,263.6475 496.1439,258.7773 487.0623,261.0276 	
		"/>
	<polygon points="477.6495,251.9897 480.4568,253.2725 482.9339,251.2772 482.1907,248.2844 478.1448,248.9971 	"/>
	<polygon points="543.2642,222.8533 546.0716,223.5964 548.5486,222.4404 547.8055,220.7064 543.7596,221.1193 	"/>
	<polygon points="501.033,249.3979 501.2642,248.0367 499.0652,247.7073 497.2776,248.7952 497.9888,250.0522 	"/>
</g>
</svg>
