<?xml version="1.0" encoding="utf-8"?>
<!-- Generator: Adobe Illustrator 24.0.2, SVG Export Plug-In . SVG Version: 6.00 Build 0)  -->
<svg version="1.1" id="Layer_1" xmlns="http://www.w3.org/2000/svg" xmlns:xlink="http://www.w3.org/1999/xlink" x="0px" y="0px"
	 viewBox="0 0 503.0869 305.0825" enable-background="new 0 0 503.0869 305.0825" xml:space="preserve">
<g>
	<path d="M66.7821,100.2356l-0.1893,0.024l-4.7661,0.6049c-1.5879,0.2071-3.1793,0.3895-4.7637,0.6226
		c-3.0881,0.4264-6.1743,0.8658-9.2513,1.374l-18.7501-2.6014l-0.1272-0.0182c-1.8965-0.2484-3.8765,0.4396-5.2081,2.0048
		l-0.0007,0.0009l-0.3687,0.4556l-0.2494,0.3348c-0.1602,0.2197-0.3433,0.4559-0.4823,0.6631l-0.85,1.2574
		c-0.5066,0.8248-1.0425,1.6491-1.5027,2.4718c-0.455,0.8231-0.9395,1.6434-1.3655,2.4689l-1.2599,2.478
		c-1.5897,3.3173-3.0278,6.6572-4.2871,10.0315c-2.5431,6.7424-4.6033,13.5724-6.2758,20.4559
		c-0.9149,3.4283-1.5841,6.8945-2.345,10.3422c-0.7078,3.4558-1.2848,6.9281-1.9261,10.388L1.269,174.0154L0.0283,184.454
		c-0.2552,2.1779,1.244,4.2029,3.4302,4.563c2.2509,0.3708,4.3761-1.1533,4.7469-3.4041l0.0198-0.1202l1.6698-10.1356
		l1.9561-10.0608c0.7733-3.3198,1.4816-6.6563,2.313-9.9528c0.8823-3.2803,1.6735-6.5892,2.6945-9.8138
		c1.8899-6.5011,4.1364-12.8663,6.7611-18.9757c0.8771-2.0645,1.8373-4.0684,2.8281-6.0439v42.2572
		c-0.0382,0.361-0.0605,0.7266-0.0593,1.098l0.3903,114.7626c0.0149,2.1597,1.6606,4.022,3.8575,4.2349
		c2.3469,0.2274,4.4338-1.4908,4.6613-3.8377l8.8954-91.795h7.1638l8.8954,91.795c0.2158,2.149,2.0277,3.8501,4.235,3.8576
		c2.3579,0.008,4.2759-1.897,4.2838-4.2548l0.3854-113.2718c0.0317-0.4891,0.0499-0.9152,0.0499-1.2452V112.162l36.7463-0.836
		l19.2676-0.4412l15.4044-0.4402c0.5588,2.3926,1.2241,3.9843,1.939,3.9843c0.7263,0,1.4019-1.6423,1.9661-4.1
		c2.1501-0.0879,3.9089-1.824,3.9712-4.0078c0.0527-1.8414-1.1162-3.4178-2.7654-3.9987c0.0918-0.9536,0.1697-1.9131,0.2317-2.8603
		c2.4854,0.4158,5.1941,0.6459,8.0479,0.6459c11.7408,0,13.9082-3.8574,14.127-8.7936h2.4385
		c0.1116,2.0677,0.5981,4.6837,1.9148,4.6837c1.3174,0,1.8042-2.616,1.9158-4.6837h1.0444
		c0.1116,2.0677,0.5981,4.6837,1.9148,4.6837c1.3174,0,1.8042-2.616,1.9158-4.6837h1.7861
		c0.4083,1.2584,1.5765,2.1743,2.9709,2.1743c1.7329,0,3.1377-1.4047,3.1377-3.1376s-1.4048-3.1376-3.1377-3.1376
		c-1.3944,0-2.5625,0.9159-2.9709,2.1743h-1.7861c-0.1116-2.0676-0.5984-4.6837-1.9158-4.6837
		c-1.3167,0-1.8032,2.6161-1.9148,4.6837h-1.0444c-0.1116-2.0676-0.5984-4.6837-1.9158-4.6837
		c-1.3167,0-1.8032,2.6161-1.9148,4.6837h-2.4385c-0.2188-4.9363-2.3861-8.7936-14.127-8.7936
		c-12.4949,0-22.2654,4.3683-22.2654,9.757c0,2.882,2.7965,5.4712,7.3081,7.2573c0.0618,1.4008,0.1626,2.8634,0.2963,4.3167
		l-14.1338-0.404l-19.2675-0.4414l-38.535-0.8771C67.2161,100.1995,66.9877,100.2095,66.7821,100.2356z M172.5185,95.0015
		c-0.2961-0.1202-0.8171-1.4646-0.939-3.6871h1.8323C173.2906,93.5379,172.7744,94.8817,172.5185,95.0015z M177.3935,95.0015
		c-0.2961-0.1202-0.8171-1.4646-0.939-3.6871h1.8323C178.1656,93.5379,177.6494,94.8817,177.3935,95.0015z M177.3476,85.7007
		c0.2963,0.1198,0.8174,1.4636,0.939,3.6871h-1.8323C176.5756,87.1655,177.0918,85.8213,177.3476,85.7007z M172.4726,85.7007
		c0.2963,0.1198,0.8174,1.4636,0.939,3.6871h-1.8323C171.7006,87.1655,172.2168,85.8213,172.4726,85.7007z M161.9146,84.1172
		c2.1038,0,3.8422,2.2863,4.1556,5.2706h-4.2932v1.9266h4.2932c-0.3135,2.9843-2.0518,5.2707-4.1556,5.2707
		c-2.3257,0-4.2111-2.7911-4.2111-6.2339C157.7036,86.9082,159.5889,84.1172,161.9146,84.1172z"/>
	<path d="M22.198,71.6986c4.1443,11.8928,25.032,26.3853,32.4427,23.8029s14.7679-26.9176,10.6237-38.8104
		C61.1201,44.7983,48.121,38.517,36.2274,42.6616C24.3354,46.8057,18.0535,59.8058,22.198,71.6986z M45.4018,65.6166
		c1.209-2.5872,5.2854-3.2377,9.1049-1.4528c3.8195,1.7849,6.8416,8.5298,6.8416,8.5298s-7.4006,2.6243-11.2201,0.8395
		C46.3088,71.7482,44.1927,68.2039,45.4018,65.6166z"/>
	<path d="M331.9231,69.2213l-32.667,17c-3.9189,2.04-5.4424,6.8701-3.4033,10.79c2.04,3.9189,6.8701,5.4434,10.79,3.4033
		l27.9365-14.5381l24.1782,20.2012l-10.3433,37.5212l-14.3721-15.2156c-4.4707-4.7344-11.8662-5.1416-16.833-0.9268l-47.46,40.2881
		c-5.1572,4.3779-5.7891,12.1084-1.4111,17.2666c2.4229,2.8545,5.8721,4.3232,9.3447,4.3223c2.8018,0,5.6191-0.9561,7.9219-2.9111
		l38.6035-32.7705l24.0996,25.5146c1.6836,1.7822,3.7773,2.9387,5.9941,3.4795l-27.4209,20.1699
		c-3.9424,2.9004-5.7813,7.8701-4.6738,12.6377l13.1113,56.4824c1.3135,5.6592,6.3516,9.4834,11.9219,9.4834
		c0.917,0,1.8486-0.1035,2.7803-0.3203c6.5908-1.5293,10.6934-8.1123,9.1631-14.7021l-11.2871-48.625l41.7666-30.7217
		c1.6147-1.188,2.8433-2.7017,3.6831-4.3792c0.4443-0.6677,0.7959-1.4128,1.0205-2.2283l16.7246-60.6694l34.5522-9.0493
		c3.4102-0.8936,5.835-3.915,5.9668-7.4385l1.667-44.333c0.166-4.415-3.2783-8.1289-7.6934-8.2949
		c-4.415-0.1426-8.1289,3.2783-8.2949,7.6934l-1.4443,38.3994l-29.762,7.7944c-4.011,2.7377-8.822,4.3273-13.8962,4.3273
		c-1.8057,0-3.623-0.2002-5.4004-0.5952c-6.4658-1.4365-11.9863-5.3052-15.543-10.8936c-0.6462-1.0148-1.2109-2.0651-1.698-3.1419
		l-28.7991-24.0624C338.2678,68.1089,334.7893,67.731,331.9231,69.2213z"/>
	<path d="M387.2856,106.032c12.1318,2.6951,24.1489-4.9541,26.8438-17.0851c2.6948-12.1305-4.9531-24.1488-17.085-26.8439
		c-12.1301-2.6947-24.1492,4.9547-26.844,17.0851C367.5053,91.3191,375.1555,103.3373,387.2856,106.032z M398.9284,73.7683
		c2.6677,0,4.8303,2.1626,4.8303,4.8303c0,2.6677-2.1626,4.8303-4.8303,4.8303s-4.8303-2.1625-4.8303-4.8303
		C394.0981,75.9309,396.2607,73.7683,398.9284,73.7683z M383.9878,70.3884c2.1182,0,3.8352,1.7171,3.8352,3.8352
		s-1.717,3.8352-3.8352,3.8352s-3.8352-1.7171-3.8352-3.8352S381.8696,70.3884,383.9878,70.3884z"/>
	<polygon points="503.0869,59.981 463.5556,55.9404 464.4238,17.7754 436.6435,40.0684 417.7256,0 400.9629,47.918 
		378.4824,25.0942 378.292,47.0137 360.582,62.0449 347.3515,37.25 333.2666,52.8687 309.4599,31.6875 309.1035,64.1606 
		291.0166,74.1079 277.4072,61.1475 248.4052,65.5361 268.0029,82.8599 242.9921,103.9063 220.4277,93.1143 204.8437,100.582 
		193.041,89.7109 191.0078,91.918 204.3066,104.166 220.4296,96.4404 243.4433,107.4473 272.5966,82.9155 255.2041,67.542 
		276.4033,64.334 290.5381,77.7949 312.084,65.9448 312.3877,38.3076 333.499,57.0903 346.7168,42.4336 359.6875,66.7393 
		381.2802,48.4126 381.4199,32.3511 402.205,53.4541 418.1396,7.9033 435.5537,44.7891 461.2773,24.1465 460.4931,58.6431 
		495.2744,62.1978 461.7461,87.9478 480.0752,129.4883 448.6347,125.9229 454.3056,157.7368 427.5781,139.4238 430.5234,156.5483 
		417.9267,156.7192 423.6992,172.1138 405.7666,183.6177 430.3261,212.3735 395.9599,206.8501 393.2353,219.4507 373.7929,222.4126 
		392.8545,239.6421 393.7353,255.6421 369.2412,258.9517 372.2871,291.4526 363.7617,301.2798 330.3213,282.7622 301.6308,297.7358 
		316.9746,256.356 287.1728,261.3579 304.0537,227.8208 251.124,247.0532 287.6865,206.2007 257.2011,209.1401 272.8886,198.5386 
		250.9912,190.3433 226.4072,193.5015 259.1718,167.5005 247.832,146.5293 276.8515,148.8447 301.4082,122.3296 276.1718,107.6821 
		274.666,110.2769 296.6601,123.0425 275.6386,145.7383 242.5664,143.0996 255.3359,166.7153 216.1005,197.8511 250.6357,193.4136 
		266.3906,199.3101 245.748,213.2593 280.3271,209.9233 240.9248,253.9517 297.9775,233.2212 281.831,265.2974 312.3593,260.1724 
		296.1074,304.0034 330.2783,286.1685 364.4355,305.0825 375.3945,292.4507 372.497,261.5396 396.8838,258.2437 395.7822,238.2437 
		380.4941,224.4263 395.7314,222.105 398.292,210.2642 437.9062,216.6313 410.2822,184.2856 427.3593,173.3306 422.2334,159.6606 
		434.0761,159.5015 431.7383,145.9111 458.5146,164.2583 452.2949,129.3574 484.9287,133.0576 465.4414,88.8921 	"/>
	<polygon points="280.0498,137.604 293.1435,122.7422 280.2841,116.5552 279.417,118.3579 289.8974,123.4004 278.5498,136.2817 	"/>
	<polygon points="358.082,47.5698 356.2422,48.3521 360.7666,59.0039 373.2881,47.2021 371.917,45.7471 361.4853,55.5791 	"/>
	<polygon points="467.5468,89.5869 479.1299,112.811 480.9189,111.9185 470.0996,90.2246 488.5312,77.0967 487.3711,75.4678 	"/>
	<polygon points="423.6738,178.1519 413.2031,184.7651 425.4824,197.0444 426.8965,195.6304 416.3867,185.1206 424.7422,179.8433 	
		"/>
	<polygon points="387.709,261.022 374.5156,263.2798 377.2021,280.2183 379.1767,279.9058 376.8008,264.9185 388.0468,262.9927 	"/>
	<polygon points="280.7041,255.6353 293.2392,237.2788 267.6484,246.5347 268.3281,248.4155 288.0947,241.2671 279.0517,254.5063 	
		"/>
	<polygon points="433.0439,21.8667 431.2256,22.6978 437.0556,35.4526 450.4482,24.2036 449.1611,22.6724 437.7822,32.231 	"/>
	
		<rect x="377.589" y="218.6658" transform="matrix(0.6531 -0.7573 0.7573 0.6531 -44.4457 367.2459)" width="1.9996" height="26.9302"/>
	
		<rect x="298.7195" y="275.704" transform="matrix(0.3759 -0.9266 0.9266 0.3759 -60.7551 463.1961)" width="29.5823" height="2.0002"/>
	
		<rect x="397.4717" y="33.5576" transform="matrix(0.2924 -0.9563 0.9563 0.2924 259.5245 419.8554)" width="32.0048" height="1.9996"/>
	
		<rect x="463.0888" y="113.0172" transform="matrix(0.1287 -0.9917 0.9917 0.1287 281.4643 568.2035)" width="2.0001" height="21.8142"/>
	<polygon points="266.3642,60.4287 277.7734,58.8438 288.1025,68.7471 289.4873,67.3037 278.459,56.7295 266.0888,58.4473 	"/>
	<polygon points="244.9169,112.5811 222.1279,100.7437 221.206,102.5181 245.1513,114.9561 266.209,98.0762 294.1308,114.1396 
		295.1289,112.4063 266.0234,95.6621 	"/>
	<polygon points="459.8506,145.1577 457.8838,145.52 462.5566,170.9126 443.8437,160.106 442.8437,161.8384 465.3066,174.811 	"/>
</g>
</svg>
