<?xml version="1.0" encoding="utf-8"?>
<!-- Generator: Adobe Illustrator 24.0.2, SVG Export Plug-In . SVG Version: 6.00 Build 0)  -->
<svg version="1.1" id="Layer_1" xmlns="http://www.w3.org/2000/svg" xmlns:xlink="http://www.w3.org/1999/xlink" x="0px" y="0px"
	 viewBox="0 0 240.8186 373.2272" enable-background="new 0 0 240.8186 373.2272" xml:space="preserve">
<g>
	<path d="M189.6563,54.5128c-2.6379-14.8887-30.6855-26.6614-65.2577-27.079V12.7083c2.6628-0.8111,4.6008-3.2849,4.6008-6.2129
		c0-3.5873-2.9081-6.4954-6.4954-6.4954c-3.5874,0-6.4954,2.9081-6.4954,6.4954c0,2.9279,1.938,5.4018,4.6007,6.2128v14.7255
		c-34.5721,0.4177-62.6196,12.1904-65.2576,27.079c17.811-3.2504,41.3451-5.2284,67.1522-5.2284S171.8452,51.2624,189.6563,54.5128z
		"/>
	<path d="M122.504,94.422c55.573,0,100.6238-9.1679,100.6238-20.4771c0-0.7062-0.1758-1.404-0.5186-2.0917
		c-5.1487-10.3266-48.0024-18.3853-100.1052-18.3853c-52.1029,0-94.9565,8.0587-100.1052,18.3853
		c-0.3428,0.6877-0.5186,1.3856-0.5186,2.0917C21.8802,85.2541,66.931,94.422,122.504,94.422z M122.504,80.422
		c-8.71,0-15.7706-1.0905-15.7706-2.4358c0-1.3452,7.0607-2.4357,15.7706-2.4357s15.7706,1.0905,15.7706,2.4357
		C138.2747,79.3315,131.214,80.422,122.504,80.422z M122.504,66.0184c25.7192,0,46.5688,3.5488,46.5688,7.9266
		c0,2.1148-4.8752,4.0347-12.8049,5.4559c2.8997-0.9636,4.548-2.0652,4.548-3.2358c0-3.7798-17.1528-6.844-38.3119-6.844
		c-21.1592,0-38.312,3.0641-38.312,6.844c0,1.1706,1.6483,2.2722,4.548,3.2358c-7.9297-1.4213-12.8048-3.3411-12.8048-5.4559
		C75.9352,69.5672,96.7848,66.0184,122.504,66.0184z"/>
	<rect x="109.1364" y="108.0313" transform="matrix(0.2026 -0.9793 0.9793 0.2026 -19.091 194.9182)" width="2" height="2.2996"/>
	
		<rect x="96.8197" y="162.5914" transform="matrix(0.2026 -0.9793 0.9793 0.2026 -81.5231 227.3704)" width="4.0533" height="2.2996"/>
	
		<rect x="101.7476" y="138.7777" transform="matrix(0.2026 -0.9793 0.9793 0.2026 -54.2735 213.206)" width="4.0528" height="2.2996"/>
	<rect x="98.4625" y="154.6537" transform="matrix(0.2026 -0.9793 0.9793 0.2026 -72.44 222.649)" width="4.0528" height="2.2996"/>
	
		<rect x="100.105" y="146.7157" transform="matrix(0.2026 -0.9793 0.9793 0.2026 -63.3567 217.9275)" width="4.0528" height="2.2996"/>
	
		<rect x="95.1771" y="170.5294" transform="matrix(0.2026 -0.9793 0.9793 0.2026 -90.6063 232.0919)" width="4.0533" height="2.2996"/>
	
		<rect x="90.2484" y="194.3434" transform="matrix(0.2026 -0.9793 0.9793 0.2026 -117.8569 246.2555)" width="4.0533" height="2.2996"/>
	
		<rect x="91.8909" y="186.4054" transform="matrix(0.2026 -0.9793 0.9793 0.2026 -108.7737 241.534)" width="4.0533" height="2.2996"/>
	
		<rect x="93.5335" y="178.4674" transform="matrix(0.2026 -0.9793 0.9793 0.2026 -99.6904 236.8124)" width="4.0533" height="2.2996"/>
	
		<rect x="86.9634" y="210.2191" transform="matrix(0.2026 -0.9793 0.9793 0.2026 -136.0233 255.6983)" width="4.0528" height="2.2996"/>
	
		<rect x="80.3931" y="241.971" transform="matrix(0.2026 -0.9793 0.9793 0.2026 -172.3564 274.5844)" width="4.0528" height="2.2996"/>
	
		<rect x="83.6783" y="226.0951" transform="matrix(0.2026 -0.9793 0.9793 0.2026 -154.1898 265.1413)" width="4.0528" height="2.2996"/>
	
		<rect x="82.0357" y="234.0331" transform="matrix(0.2026 -0.9793 0.9793 0.2026 -163.2731 269.8629)" width="4.0528" height="2.2996"/>
	
		<rect x="85.3209" y="218.1571" transform="matrix(0.2026 -0.9793 0.9793 0.2026 -145.1065 260.4198)" width="4.0528" height="2.2996"/>
	
		<rect x="105.0328" y="122.9017" transform="matrix(0.2026 -0.9793 0.9793 0.2026 -36.1069 203.763)" width="4.0528" height="2.2996"/>
	
		<rect x="106.6754" y="114.9637" transform="matrix(0.2026 -0.9793 0.9793 0.2026 -27.0236 199.0415)" width="4.0528" height="2.2996"/>
	
		<rect x="88.6058" y="202.2813" transform="matrix(0.2026 -0.9793 0.9793 0.2026 -126.9402 250.977)" width="4.0533" height="2.2996"/>
	
		<rect x="78.7506" y="249.909" transform="matrix(0.2026 -0.9793 0.9793 0.2026 -181.4397 279.3059)" width="4.0528" height="2.2996"/>
	
		<rect x="72.18" y="281.6607" transform="matrix(0.2026 -0.9793 0.9793 0.2026 -217.7725 298.1917)" width="4.0533" height="2.2996"/>
	
		<rect x="103.3902" y="130.8397" transform="matrix(0.2026 -0.9793 0.9793 0.2026 -45.1902 208.4845)" width="4.0528" height="2.2996"/>
	
		<rect x="73.8226" y="273.7227" transform="matrix(0.2026 -0.9793 0.9793 0.2026 -208.6893 293.4702)" width="4.0533" height="2.2996"/>
	
		<rect x="70.5374" y="289.5987" transform="matrix(0.2026 -0.9793 0.9793 0.2026 -226.8558 302.9133)" width="4.0533" height="2.2996"/>
	
		<rect x="77.108" y="257.847" transform="matrix(0.2026 -0.9793 0.9793 0.2026 -190.5229 284.0274)" width="4.0528" height="2.2996"/>
	
		<rect x="75.4652" y="265.7848" transform="matrix(0.2026 -0.9793 0.9793 0.2026 -199.606 288.7487)" width="4.0533" height="2.2996"/>
	<rect x="70.1285" y="296.5313" transform="matrix(0.2026 -0.9793 0.9793 0.2026 -234.7895 307.0358)" width="2" height="2.2996"/>
	<rect x="134.7131" y="108.1812" transform="matrix(0.9793 -0.2026 0.2026 0.9793 -19.3056 29.7961)" width="2.2996" height="2"/>
	
		<rect x="149.2893" y="177.5905" transform="matrix(0.9793 -0.2026 0.2026 0.9793 -33.2738 34.208)" width="2.2996" height="4.0533"/>
	
		<rect x="141.0754" y="137.9011" transform="matrix(0.9793 -0.2026 0.2026 0.9793 -25.4048 31.7245)" width="2.2996" height="4.0528"/>
	
		<rect x="159.1447" y="225.2185" transform="matrix(0.9793 -0.2026 0.2026 0.9793 -42.7244 37.1978)" width="2.2996" height="4.0528"/>
	
		<rect x="142.718" y="145.8391" transform="matrix(0.9793 -0.2026 0.2026 0.9793 -26.9793 32.222)" width="2.2996" height="4.0528"/>
	
		<rect x="165.7151" y="256.9704" transform="matrix(0.9793 -0.2026 0.2026 0.9793 -49.0224 39.188)" width="2.2996" height="4.0528"/>
	
		<rect x="169.0002" y="272.8459" transform="matrix(0.9793 -0.2026 0.2026 0.9793 -52.1657 40.1777)" width="2.2996" height="4.0533"/>
	
		<rect x="160.7873" y="233.1564" transform="matrix(0.9793 -0.2026 0.2026 0.9793 -44.2989 37.6954)" width="2.2996" height="4.0528"/>
	
		<rect x="155.8596" y="209.3425" transform="matrix(0.9793 -0.2026 0.2026 0.9793 -39.5753 36.2027)" width="2.2996" height="4.0528"/>
	
		<rect x="144.3606" y="153.7771" transform="matrix(0.9793 -0.2026 0.2026 0.9793 -28.5538 32.7196)" width="2.2996" height="4.0528"/>
	
		<rect x="152.5744" y="193.4665" transform="matrix(0.9793 -0.2026 0.2026 0.9793 -36.4224 35.2029)" width="2.2996" height="4.0533"/>
	
		<rect x="154.217" y="201.4045" transform="matrix(0.9793 -0.2026 0.2026 0.9793 -37.9968 35.7004)" width="2.2996" height="4.0533"/>
	
		<rect x="157.5022" y="217.2805" transform="matrix(0.9793 -0.2026 0.2026 0.9793 -41.1499 36.7002)" width="2.2996" height="4.0528"/>
	
		<rect x="136.1477" y="114.0871" transform="matrix(0.9793 -0.2026 0.2026 0.9793 -20.6813 30.2318)" width="2.2996" height="4.0528"/>
	
		<rect x="137.7903" y="122.0251" transform="matrix(0.9793 -0.2026 0.2026 0.9793 -22.2558 30.7294)" width="2.2996" height="4.0528"/>
	
		<rect x="139.4328" y="129.9631" transform="matrix(0.9793 -0.2026 0.2026 0.9793 -23.8303 31.2269)" width="2.2996" height="4.0528"/>
	
		<rect x="167.3576" y="264.9079" transform="matrix(0.9793 -0.2026 0.2026 0.9793 -50.5914 39.6802)" width="2.2996" height="4.0533"/>
	
		<rect x="172.2854" y="288.7219" transform="matrix(0.9793 -0.2026 0.2026 0.9793 -55.3144 41.1727)" width="2.2996" height="4.0533"/>
	
		<rect x="164.0725" y="249.0324" transform="matrix(0.9793 -0.2026 0.2026 0.9793 -47.4479 38.6905)" width="2.2996" height="4.0528"/>
	
		<rect x="146.0031" y="161.7146" transform="matrix(0.9793 -0.2026 0.2026 0.9793 -30.1251 33.2128)" width="2.2996" height="4.0533"/>
	
		<rect x="162.4299" y="241.0944" transform="matrix(0.9793 -0.2026 0.2026 0.9793 -45.8734 38.1929)" width="2.2996" height="4.0528"/>
	
		<rect x="170.6428" y="280.7839" transform="matrix(0.9793 -0.2026 0.2026 0.9793 -53.74 40.6752)" width="2.2996" height="4.0533"/>
	
		<rect x="150.9319" y="185.5285" transform="matrix(0.9793 -0.2026 0.2026 0.9793 -34.8481 34.7055)" width="2.2996" height="4.0533"/>
	
		<rect x="147.6457" y="169.6525" transform="matrix(0.9793 -0.2026 0.2026 0.9793 -31.6995 33.7103)" width="2.2996" height="4.0533"/>
	<rect x="173.7199" y="296.6812" transform="matrix(0.9793 -0.2026 0.2026 0.9793 -56.6936 41.611)" width="2.2996" height="2"/>
	<path d="M141.6198,262.7964c0.5029-0.2012,0.9585-0.4093,1.3737-0.6233c0.33,0.2361,0.6101,0.4443,0.8197,0.6002
		c0.8186,0.6086,1.7908,2.1447,2.6283,3.7778l1.5228,3.4378c0.5419,1.2234,1.9576,1.7949,3.197,1.2905
		c0.1721-0.0701,0.3322-0.1574,0.4789-0.2591c0.9102-0.6309,1.3099-1.8174,0.9081-2.8973c-0.199-0.5348-0.7966-2.0774-1.6812-3.8066
		l-2.259-5.0999c-0.0811-0.1831-0.1841-0.3557-0.3068-0.514l-1.6622-2.1447c-0.1932-1.9513-1.2256-4.0281-1.953-6.0696
		c-0.5822-1.6335-1.5485-3.1249-2.7106-4.3201c0.3757-0.2377,0.6212-0.5444,0.6868-0.9062c0.2078-1.146-1.4619-2.4083-3.729-2.8192
		c-2.1814-0.3952-4.1162,0.143-4.4451,1.2048c-0.5188-0.1043-1.1887,0.0521-1.7886,0.4678
		c-0.428,0.2967-0.7439,0.6734-0.9214,1.0547c-0.4194,0.0324-0.8831,0.1961-1.311,0.4928
		c-0.4691,0.3251-0.8054,0.7464-0.9702,1.1643c-0.4873-0.0389-1.0732,0.1265-1.6038,0.4943
		c-0.5818,0.4033-0.9594,0.9546-1.0585,1.4641c-0.3539,0.066-0.7281,0.2207-1.0781,0.4633
		c-0.5809,0.4026-0.9579,0.9525-1.0577,1.4611c-0.0251,0.021-0.0503,0.0419-0.0754,0.0627
		c-0.4314,0.0234-0.9138,0.1879-1.3579,0.4958c-0.6155,0.4266-1.0007,1.0182-1.071,1.5512
		c-0.0094,0.0079-0.0186,0.0157-0.0278,0.0237c-0.4963,0.0154-1.0704,0.2561-1.5596,0.7005
		c-0.4098,0.3723-0.6829,0.8178-0.7979,1.2421c-0.4517,0.0607-0.949,0.2943-1.3801,0.686c-0.3607,0.3277-0.6155,0.7123-0.75,1.0892
		c-0.4019-0.0633-0.8713-0.0189-1.3398,0.15c-0.4583,0.1655-0.8403,0.4236-1.1084,0.7206c-0.473-0.2188-1.1458-0.2324-1.8162,0.0096
		c-0.1509,0.0546-0.2925,0.1199-0.4257,0.1924c-0.3998-0.382-1.1117-0.5864-1.8888-0.4896
		c-0.4653,0.058-0.8799,0.2159-1.2019,0.4332c-0.1487-0.1319-0.318-0.2458-0.5073-0.3353c-0.5806-0.274-1.2198-0.2635-1.7566-0.026
		c-0.0864-0.0551-0.1758-0.1071-0.2712-0.152c-0.6941-0.3278-1.4612-0.3008-2.0929,0.0048
		c-0.1469-0.3051-0.3077-0.5825-0.483-0.8261c-0.3052-0.4733-0.9763-0.8332-1.7802-0.8932
		c-0.566-0.0424-1.0897,0.0719-1.4802,0.2906c-0.0138-0.0015-0.0275-0.0029-0.0411-0.0045
		c-0.3267-0.2243-0.7521-0.3867-1.2297-0.444c-0.5918-0.0707-1.1433,0.0339-1.5493,0.2567
		c-0.0249-0.0002-0.0493-0.0004-0.0742-0.0007c-0.3904-0.1681-0.8842-0.2376-1.4081-0.1685
		c-0.5179,0.0683-0.9723,0.2598-1.3048,0.519c-0.0154,0.0071-0.0332,0.0132-0.048,0.0206
		c-1.9637,0.9731-5.2614,3.4918-5.0541,6.1414c0.0739,0.9439,0.7312,0.9507,1.6287,0.6602
		c0.5447,0.4208,1.1799,1.1214,1.0145,2.0338c-0.2787,1.5383,0.1909,4.6783,1.0731,5.2048c0.8823,0.5266,2.7539,0.988,3.5464-0.1821
		c0.2717-0.4011,0.6169-1.0298,0.944-1.7051c0.0424,0.0275,0.0831,0.0554,0.1293,0.0818c2.449,1.4062,4.3762,0.3807,5.9382,2.6343
		c0.2625,0.3784,0.5085,0.3222,0.723-0.0484c1.4059,2.3657,3.8881,6.1995,6.2386,8.1132c1.3746,1.1191,2.8252,1.3899,4.3052,1.1537
		l6.5645,8.4048c0.7046,0.9021,1.9832,1.1134,2.9406,0.4859c0.0162-0.0106,0.0322-0.0214,0.0482-0.0324
		c0.9197-0.6375,1.2163-1.8687,0.6797-2.8577l-4.6675-8.6003c2.4745-1.6484,4.8721-3.5585,6.978-4.1751
		C133.8372,271.6864,133.8376,265.9108,141.6198,262.7964z M96.0978,265.1857c-0.3123,0.2164-0.7406,0.1388-0.957-0.1734
		c-0.2163-0.3122-0.1387-0.7406,0.1735-0.957s0.7406-0.1387,0.9569,0.1734C96.4875,264.5409,96.4099,264.9693,96.0978,265.1857z"/>
	<path d="M100.3251,317.2712c-0.231,1.374-0.1934,2.8484,0.1387,4.2592c0.1843-0.0474,0.3721-0.0876,0.5658-0.1132
		c0.2094-0.0278,0.4156-0.0409,0.6171-0.0409c0.3123,0,0.6166,0.0311,0.9092,0.0916c0.5562-0.2513,1.1891-0.3865,1.8533-0.3865
		c0.379,0,0.7494,0.0442,1.1028,0.1306c0.5354-0.2251,1.1375-0.3462,1.7599-0.3462c0.2395,0,0.4777,0.018,0.712,0.0536
		c0.5557-0.248,1.1877-0.3818,1.8429-0.3818c0.5308,0,1.0452,0.0873,1.517,0.2542c0.3907-0.1063,0.8037-0.1619,1.2227-0.1619
		c0.4187,0,0.8279,0.0546,1.2158,0.1609c0.3888-0.1063,0.7979-0.1609,1.2161-0.1609c0.6511,0,1.2736,0.1306,1.8232,0.373
		c0.1754-0.0258,0.3561-0.0389,0.54-0.0389c1.4365,0,3.1184,0.8237,4.498,2.2036c2.354,2.3541,2.9031,5.2222,1.3055,6.8191
		c-0.0699,0.0703-0.1498,0.143-0.2395,0.215c0.0057,0.151,0,0.3015,0.0005,0.4523c0.251-0.0485,0.5052-0.112,0.765-0.1985
		c1.6682-0.5554,4.0371-0.4683,6.4241-0.4789c-0.0671-0.2794-0.1313-0.5615-0.2056-0.835
		c-0.3252-1.2065-0.4653-2.4846-0.4167-3.7651c-0.0897-0.072-0.1696-0.1447-0.2396-0.215c-1.5975-1.5969-1.0485-4.465,1.3057-6.8191
		c1.3795-1.3799,3.0615-2.2036,4.498-2.2036c0.184,0,0.3645,0.0131,0.5399,0.0389c0.5498-0.2424,1.1721-0.373,1.8232-0.373
		c0.4182,0,0.8273,0.0546,1.2161,0.1609c0.3881-0.1063,0.7971-0.1609,1.2159-0.1609c0.0619,0,0.1221,0.0098,0.1836,0.0121
		c0.339-1.8172,1.9834-2.2273,2.9532-4.2696c0.0215-0.0452,0.03-0.0858,0.0483-0.1299c0.5864,0.3315,1.1636,0.6201,1.5693,0.7772
		c1.1794,0.4565,2.3214-0.8373,2.7023-1.6747c0.3802-0.8373-0.8756-3.3871-1.8651-4.3766
		c-0.5872-0.5871-0.4772-1.4264-0.2906-2.0141c0.8082-0.2438,1.2887-0.5841,0.8612-1.3164
		c-1.1989-2.055-4.9097-2.2264-6.8501-1.9408c-0.0164,0.0023-0.0359,0.0105-0.053,0.0134c-0.3757-0.0203-0.8037,0.0664-1.218,0.2794
		c-0.4194,0.2153-0.7421,0.518-0.9436,0.8394c-0.021,0.0151-0.042,0.0284-0.0629,0.0438c-0.4122,0.0435-0.8698,0.2451-1.2683,0.5985
		c-0.3214,0.2847-0.5452,0.6191-0.6715,0.9493c-0.0111,0.0095-0.0229,0.0193-0.0339,0.0288
		c-0.3993,0.038-0.843,0.2209-1.2383,0.5412c-0.5432,0.4398-0.8456,1.0213-0.8489,1.5154
		c-0.0032,0.0933-0.0071,0.1855-0.0032,0.2828c-0.5288,0.0916-1.0203,0.4051-1.3142,0.9136c-0.1865,0.3233-0.265,0.678-0.252,1.0229
		c-0.5288,0.0912-1.0203,0.4051-1.3142,0.9136c-0.0942,0.163-0.1523,0.3354-0.1943,0.5092
		c-0.3501,0.003-0.7375,0.0942-1.1125,0.2903c-0.6223,0.3256-1.0339,0.8393-1.1328,1.325
		c-0.1375,0.0143-0.2769,0.0366-0.4189,0.0743c-0.619,0.1646-1.1079,0.52-1.3428,0.9241c-0.3496-0.0822-0.7593-0.0822-1.1814,0.0301
		c-0.4332,0.1155-0.7971,0.3269-1.0608,0.5805c-0.292-0.2111-0.6729-0.3688-1.1086-0.4264
		c-0.5177-0.0684-1.002,0.0144-1.3652,0.2006c-0.3018-0.254-0.7284-0.4434-1.2205-0.5085
		c-0.5845-0.0772-1.1238,0.0409-1.4968,0.2808c-0.015-0.0013-0.0308-0.0029-0.0458-0.0046c-0.324-0.355-0.9044-0.5945-1.574-0.5945
		c-0.483,0-0.9188,0.1263-1.2474,0.3285c-0.0308-0.0026-0.0615-0.0056-0.0923-0.0082c-0.333-0.3233-0.8906-0.5359-1.5228-0.5359
		c-0.3816,0-0.7357,0.0775-1.0302,0.2094c-0.3325-0.3243-0.8914-0.5377-1.5249-0.5377c-0.5785,0-1.0884,0.181-1.4272,0.4584
		c-0.3345-0.2258-0.7985-0.3661-1.3123-0.3661c-0.4685,0-0.8906,0.1198-1.2159,0.3112c-0.3259-0.1915-0.748-0.3112-1.2159-0.3112
		c-0.6591,0-1.2336,0.2317-1.5603,0.5779c-0.7833-0.6149-2.4751-0.0334-3.8795,1.3707c-1.4581,1.4585-2.0432,3.2386-1.3057,3.9761
		C99.5856,317.2002,99.9286,317.2872,100.3251,317.2712z"/>
	<path d="M131.4657,334.6475l0.0073-0.1378c-0.0112-0.0242-0.0193-0.0499-0.0305-0.0741L131.4657,334.6475z"/>
	<path d="M117.359,350.4271c0.1257-0.4951,0.4731-1.9355,0.7042-3.6591l0.9385-4.9038c0.0341-0.176,0.0465-0.3553,0.0367-0.5344
		l-0.1289-2.4257c0.8527-1.5344,1.1523-3.5887,1.6582-5.4617c0.4058-1.5036,0.4524-3.0981,0.2043-4.5739
		c0.3965,0.016,0.7395-0.071,0.9718-0.3033c0.7375-0.7376,0.1525-2.5177-1.3057-3.9761c-1.4044-1.4041-3.0962-1.9856-3.8795-1.3707
		c-0.3267-0.3463-0.9012-0.5779-1.5603-0.5779c-0.4679,0-0.89,0.1198-1.2159,0.3112c-0.3253-0.1914-0.7474-0.3112-1.2159-0.3112
		c-0.5137,0-0.9778,0.1404-1.3123,0.3661c-0.3389-0.2775-0.8488-0.4584-1.4272-0.4584c-0.6335,0-1.1924,0.2133-1.5249,0.5376
		c-0.2944-0.1318-0.6486-0.2094-1.0302-0.2094c-0.6322,0-1.1898,0.2127-1.5228,0.536c-0.0308,0.0026-0.0615,0.0056-0.0923,0.0082
		c-0.3286-0.2022-0.7644-0.3286-1.2474-0.3286c-0.6696,0-1.25,0.2396-1.574,0.5946c-0.015,0.0016-0.0306,0.0032-0.0458,0.0046
		c-0.373-0.2399-0.9124-0.358-1.4968-0.2808c-0.4921,0.0651-0.9187,0.2546-1.2205,0.5085c-0.3633-0.1862-0.8475-0.269-1.3652-0.2006
		c-0.4358,0.0576-0.8167,0.2153-1.1086,0.4263c-0.2637-0.2536-0.6276-0.465-1.0608-0.5804
		c-0.4221-0.1122-0.8318-0.1122-1.1814-0.0302c-0.2349-0.4041-0.7238-0.7595-1.3428-0.9241
		c-0.1421-0.0376-0.2815-0.0599-0.4189-0.0743c-0.0989-0.4856-0.5105-0.9993-1.1328-1.325c-0.375-0.196-0.7625-0.2873-1.1125-0.2902
		c-0.042-0.1738-0.1001-0.3462-0.1943-0.5092c-0.2939-0.5085-0.7854-0.8223-1.3142-0.9136c0.0131-0.3449-0.0654-0.6996-0.252-1.0229
		c-0.2939-0.5085-0.7854-0.822-1.3142-0.9136c0.0039-0.0972,0-0.1895-0.0032-0.2827c-0.0033-0.4941-0.3057-1.0756-0.8489-1.5154
		c-0.3953-0.3204-0.839-0.5033-1.2383-0.5413c-0.011-0.0095-0.0228-0.0193-0.0339-0.0287
		c-0.1263-0.3302-0.3501-0.6646-0.6715-0.9493c-0.3986-0.3535-0.8561-0.555-1.2683-0.5985
		c-0.0209-0.0154-0.0419-0.0288-0.0629-0.0439c-0.2015-0.3213-0.5242-0.624-0.9436-0.8393c-0.4143-0.213-0.8423-0.2997-1.218-0.2795
		c-0.0171-0.0029-0.0366-0.0111-0.053-0.0134c-1.9404-0.2856-5.6511-0.1142-6.8501,1.9408
		c-0.4275,0.7324,0.053,1.0726,0.8612,1.3165c0.1865,0.5876,0.2965,1.427-0.2906,2.014c-0.9895,0.9896-2.2454,3.5393-1.8651,4.3766
		c0.3809,0.8374,1.5228,2.1312,2.7023,1.6747c0.4058-0.157,0.9829-0.4457,1.5693-0.7772c0.0183,0.0442,0.0269,0.0848,0.0483,0.1299
		c1.0845,2.2838,3.0256,2.5121,3.0256,4.967c0,0.411,0.2114,0.4911,0.5569,0.3292c-0.1721,2.4575-0.3018,6.5468,0.4523,9.1548
		c0.441,1.5245,1.3698,2.4633,2.5792,3.0445l0.5432,9.5317c0.0588,1.0233,0.8914,1.8308,1.9155,1.8574
		c0.0176,0.0006,0.0354,0.0006,0.0522,0.0006c1.0021,0,1.8483-0.7546,1.9575-1.7559l0.9523-8.7081
		c2.661,0.0491,5.3993-0.1335,7.2631,0.4869c4.3684,1.4536,7.3142-2.7958,14.6283-1.1184c0.4725,0.1086,0.9137,0.1878,1.3279,0.2421
		c0.1224,0.34,0.2238,0.6387,0.2977,0.8596c0.292,0.8649,0.2239,2.4905,0.0073,4.1188l-0.6329,3.3073
		c-0.2251,1.1764,0.5249,2.3191,1.6945,2.5799c0.1622,0.0363,0.3245,0.0536,0.4843,0.0536
		C116.2046,352.0956,117.1039,351.4264,117.359,350.4271z"/>
	<path d="M64.5919,350.4271c0.1256-0.4951,0.4731-1.9355,0.7041-3.6591l0.9385-4.9038c0.0341-0.176,0.0465-0.3553,0.0366-0.5344
		l-0.1289-2.4257c0.8528-1.5344,1.1526-3.5887,1.6584-5.4617c0.4058-1.5036,0.4521-3.0981,0.2041-4.5739
		c0.3967,0.016,0.7395-0.071,0.9719-0.3033c0.7375-0.7376,0.1525-2.5177-1.3057-3.9761c-1.4044-1.4041-3.0962-1.9856-3.8796-1.3707
		c-0.3264-0.3463-0.9011-0.5779-1.5601-0.5779c-0.468,0-0.8901,0.1198-1.2161,0.3112c-0.3252-0.1914-0.7473-0.3112-1.2159-0.3112
		c-0.5138,0-0.9778,0.1404-1.3121,0.3661c-0.3391-0.2775-0.8489-0.4584-1.4275-0.4584c-0.6334,0-1.1924,0.2133-1.5248,0.5376
		c-0.2946-0.1318-0.6486-0.2094-1.0302-0.2094c-0.6322,0-1.1897,0.2127-1.5229,0.536c-0.0308,0.0026-0.0615,0.0056-0.0923,0.0082
		c-0.3284-0.2022-0.7644-0.3286-1.2473-0.3286c-0.6694,0-1.25,0.2396-1.574,0.5946c-0.015,0.0016-0.0308,0.0032-0.0458,0.0046
		c-0.373-0.2399-0.9122-0.358-1.4967-0.2808c-0.4922,0.0651-0.9189,0.2546-1.2206,0.5085c-0.3632-0.1862-0.8475-0.269-1.3651-0.2006
		c-0.4359,0.0576-0.8169,0.2153-1.1086,0.4263c-0.2638-0.2536-0.6277-0.465-1.0609-0.5804
		c-0.4222-0.1122-0.8319-0.1122-1.1813-0.0302c-0.235-0.4041-0.7239-0.7595-1.343-0.9241c-0.142-0.0376-0.2814-0.0599-0.4188-0.0743
		c-0.0988-0.4856-0.5104-0.9993-1.1328-1.325c-0.375-0.196-0.7625-0.2873-1.1127-0.2902c-0.0417-0.1738-0.1001-0.3462-0.1943-0.5092
		c-0.2938-0.5085-0.7853-0.8223-1.3141-0.9136c0.0131-0.3449-0.0654-0.6996-0.252-1.0229c-0.2938-0.5085-0.7853-0.822-1.3141-0.9136
		c0.0039-0.0972,0-0.1895-0.0034-0.2827c-0.0032-0.4941-0.3055-1.0756-0.8488-1.5154c-0.3953-0.3204-0.839-0.5033-1.2382-0.5413
		c-0.0112-0.0095-0.0229-0.0193-0.0341-0.0287c-0.1263-0.3302-0.3502-0.6646-0.6715-0.9493
		c-0.3986-0.3535-0.856-0.555-1.2683-0.5985c-0.021-0.0154-0.0419-0.0288-0.0627-0.0439c-0.2017-0.3213-0.5243-0.624-0.9438-0.8393
		c-0.4143-0.213-0.8423-0.2997-1.2179-0.2795c-0.017-0.0029-0.0366-0.0111-0.053-0.0134c-1.9406-0.2856-5.6512-0.1142-6.8502,1.9408
		c-0.4272,0.7324,0.053,1.0726,0.8613,1.3165c0.1865,0.5876,0.2964,1.427-0.2905,2.014c-0.9896,0.9896-2.2455,3.5393-1.8652,4.3766
		c0.3809,0.8374,1.5229,2.1312,2.7021,1.6747c0.4058-0.157,0.983-0.4457,1.5695-0.7772c0.0183,0.0442,0.0267,0.0848,0.0485,0.1299
		c1.0844,2.2838,3.0254,2.5121,3.0254,4.967c0,0.411,0.2114,0.4911,0.557,0.3292c-0.1721,2.4575-0.3016,6.5468,0.4523,9.1548
		c0.441,1.5245,1.3698,2.4633,2.5791,3.0445l0.5432,9.5317c0.059,1.0233,0.8914,1.8308,1.9156,1.8574
		c0.0177,0.0006,0.0353,0.0006,0.0524,0.0006c1.002,0,1.8481-0.7546,1.9574-1.7559l0.9523-8.7081
		c2.6609,0.0491,5.3992-0.1335,7.2631,0.4869c4.3685,1.4536,7.3141-2.7958,14.6283-1.1184
		c0.4725,0.1086,0.9136,0.1878,1.3279,0.2421c0.1223,0.34,0.2239,0.6387,0.2979,0.8596c0.2917,0.8649,0.2238,2.4905,0.0071,4.1188
		l-0.6328,3.3073c-0.2251,1.1764,0.5249,2.3191,1.6943,2.5799c0.1624,0.0363,0.3247,0.0536,0.4844,0.0536
		C63.4374,352.0956,64.3365,351.4264,64.5919,350.4271z"/>
	<path d="M200.4465,323.8169c-0.1721,2.4575-0.3016,6.5468,0.4523,9.1548c0.441,1.5245,1.3698,2.4634,2.5791,3.0446l0.5432,9.5317
		c0.0588,1.0233,0.8914,1.8308,1.9155,1.8573c0.0178,0.0007,0.0354,0.0007,0.0525,0.0007c1.002,0,1.8481-0.7546,1.9574-1.7559
		l0.9523-8.7081c2.6609,0.0491,5.3992-0.1335,7.2631,0.4869c4.3685,1.4536,7.3141-2.7958,14.6283-1.1185
		c0.4725,0.1086,0.9136,0.1879,1.3279,0.2422c0.1223,0.34,0.2239,0.6387,0.2979,0.8596c0.2917,0.8649,0.2238,2.4905,0.0071,4.1188
		l-0.6328,3.3073c-0.2251,1.1764,0.5249,2.3191,1.6943,2.5798c0.1624,0.0364,0.3247,0.0537,0.4844,0.0537
		c0.9915,0,1.8906-0.6692,2.146-1.6685c0.1255-0.4951,0.4731-1.9355,0.7041-3.6591l0.9385-4.9038
		c0.0341-0.176,0.0464-0.3553,0.0366-0.5344l-0.1289-2.4257c0.8528-1.5344,1.1526-3.5887,1.6584-5.4617
		c0.4058-1.5036,0.4521-3.0981,0.2041-4.574c0.3966,0.0161,0.7395-0.071,0.9719-0.3033c0.7375-0.7376,0.1525-2.5177-1.3057-3.9761
		c-1.4044-1.4041-3.0962-1.9856-3.8796-1.3708c-0.3265-0.3462-0.9011-0.5779-1.5602-0.5779c-0.4679,0-0.89,0.1198-1.2159,0.3112
		c-0.3252-0.1914-0.7473-0.3112-1.2159-0.3112c-0.5138,0-0.9778,0.1404-1.3121,0.3662c-0.3391-0.2775-0.8489-0.4584-1.4275-0.4584
		c-0.6334,0-1.1924,0.2133-1.5249,0.5376c-0.2944-0.1318-0.6484-0.2094-1.03-0.2094c-0.6322,0-1.1897,0.2127-1.5229,0.536
		c-0.0308,0.0026-0.0615,0.0056-0.0923,0.0082c-0.3285-0.2023-0.7644-0.3286-1.2473-0.3286c-0.6694,0-1.25,0.2395-1.574,0.5945
		c-0.015,0.0016-0.0308,0.0033-0.0458,0.0046c-0.373-0.2398-0.9124-0.358-1.4967-0.2807c-0.4922,0.0651-0.9189,0.2546-1.2206,0.5085
		c-0.3632-0.1862-0.8475-0.269-1.3652-0.2006c-0.4359,0.0576-0.8168,0.2153-1.1085,0.4264c-0.2639-0.2536-0.6277-0.465-1.061-0.5805
		c-0.4221-0.1122-0.8318-0.1122-1.1812-0.0301c-0.235-0.4041-0.7239-0.7595-1.343-0.9241c-0.142-0.0377-0.2814-0.0599-0.4188-0.0743
		c-0.0988-0.4856-0.5104-0.9993-1.1329-1.325c-0.375-0.196-0.7623-0.2873-1.1125-0.2902c-0.0417-0.1738-0.1001-0.3463-0.1943-0.5092
		c-0.2938-0.5085-0.7854-0.8223-1.3141-0.9136c0.0131-0.3449-0.0656-0.6996-0.2521-1.0229c-0.2937-0.5085-0.7853-0.822-1.314-0.9136
		c0.0039-0.0972,0-0.1895-0.0034-0.2827c-0.0032-0.4941-0.3055-1.0756-0.8488-1.5154c-0.3953-0.3204-0.839-0.5033-1.2382-0.5413
		c-0.0112-0.0095-0.0229-0.0193-0.0342-0.0288c-0.1262-0.3301-0.3501-0.6646-0.6714-0.9493
		c-0.3986-0.3534-0.856-0.5549-1.2683-0.5984c-0.021-0.0154-0.042-0.0288-0.0629-0.0439c-0.2015-0.3214-0.5242-0.624-0.9437-0.8393
		c-0.4143-0.2131-0.8423-0.2997-1.2179-0.2795c-0.017-0.0029-0.0367-0.0111-0.0531-0.0134
		c-1.9404-0.2856-5.6511-0.1142-6.8501,1.9408c-0.4272,0.7323,0.053,1.0726,0.8613,1.3164
		c0.1865,0.5877,0.2964,1.4271-0.2905,2.0141c-0.9896,0.9895-2.2455,3.5392-1.8652,4.3766
		c0.3809,0.8373,1.5229,2.1312,2.7021,1.6747c0.4058-0.1571,0.983-0.4457,1.5693-0.7772c0.0184,0.0442,0.0269,0.0847,0.0486,0.1299
		c1.0844,2.2837,3.0254,2.5121,3.0254,4.967C199.8895,323.8987,200.101,323.9789,200.4465,323.8169z"/>
	<path d="M141.1639,318.1814c-0.3345-0.2258-0.7985-0.3661-1.3123-0.3661c-0.4685,0-0.8906,0.1198-1.2159,0.3112
		c-0.3258-0.1914-0.748-0.3112-1.2159-0.3112c-0.6591,0-1.2336,0.2316-1.5603,0.5779c-0.7833-0.6149-2.4751-0.0334-3.8795,1.3707
		c-1.4581,1.4584-2.0432,3.2385-1.3055,3.9761c0.2322,0.2323,0.5752,0.3193,0.9718,0.3033
		c-0.248,1.4758-0.2015,3.0703,0.2042,4.5739c0.5059,1.873,0.8057,3.9274,1.6583,5.4617l-0.1289,2.4257
		c-0.0099,0.179,0.0026,0.3583,0.0366,0.5344l0.9385,4.9038c0.2311,1.7235,0.5785,3.1639,0.7042,3.6591
		c0.2551,0.9993,1.1544,1.6685,2.146,1.6685c0.1597,0,0.3219-0.0173,0.4843-0.0536c1.1696-0.2608,1.9196-1.4035,1.6943-2.5799
		l-0.6329-3.3073c-0.2166-1.6283-0.2847-3.2539,0.0073-4.1188c0.074-0.2209,0.1753-0.5197,0.2977-0.8596
		c0.4143-0.0543,0.8553-0.1335,1.3279-0.2422c5.3719-1.2319,8.3871,0.7277,11.3405,1.2823c0.7804-0.386,1.5688-0.5975,2.2946-0.5975
		c0.184,0,0.3646,0.0131,0.5399,0.0389c0.5498-0.2425,1.1721-0.373,1.8232-0.373c0.4182,0,0.8274,0.0546,1.2161,0.1609
		c0.3881-0.1063,0.7971-0.1609,1.2159-0.1609s0.8319,0.0556,1.2225,0.162c0.4719-0.1669,0.9863-0.2543,1.5171-0.2543
		c0.655,0,1.2872,0.1339,1.8428,0.3818c0.2344-0.0356,0.4727-0.0536,0.7122-0.0536c0.6223,0,1.2244,0.1211,1.7598,0.3462
		c0.3535-0.0864,0.7239-0.1306,1.1028-0.1306c0.2262,0,0.4415,0.0369,0.6587,0.0674l0.0663-1.1638
		c1.2094-0.5812,2.1381-1.52,2.5792-3.0445c0.7539-2.608,0.6243-6.6973,0.4521-9.1548c0.3456,0.162,0.5569,0.0818,0.5569-0.3292
		c0-2.4548,1.9412-2.6832,3.0256-4.967c0.0215-0.0452,0.03-0.0857,0.0483-0.1299c0.5864,0.3315,1.1637,0.6201,1.5695,0.7772
		c1.1793,0.4565,2.3213-0.8374,2.7023-1.6747c0.3801-0.8374-0.8757-3.3871-1.8652-4.3766c-0.587-0.587-0.4771-1.4264-0.2905-2.0141
		c0.8081-0.2438,1.2886-0.584,0.8612-1.3164c-1.199-2.055-4.9098-2.2264-6.8502-1.9408c-0.0164,0.0023-0.0359,0.0105-0.053,0.0134
		c-0.3756-0.0203-0.8037,0.0665-1.2179,0.2795c-0.4196,0.2153-0.7422,0.518-0.9437,0.8393
		c-0.021,0.0151-0.0419,0.0285-0.0627,0.0439c-0.4124,0.0435-0.8699,0.2451-1.2684,0.5985
		c-0.3213,0.2847-0.5452,0.6191-0.6715,0.9493c-0.011,0.0095-0.0228,0.0193-0.0339,0.0287c-0.3992,0.038-0.843,0.2209-1.2383,0.5413
		c-0.5432,0.4398-0.8455,1.0212-0.8489,1.5154c-0.0032,0.0933-0.0071,0.1855-0.0032,0.2827
		c-0.5288,0.0916-1.0203,0.4051-1.3142,0.9136c-0.1865,0.3233-0.265,0.678-0.252,1.0229c-0.5288,0.0913-1.0203,0.4051-1.3141,0.9136
		c-0.0942,0.163-0.1525,0.3354-0.1945,0.5092c-0.3501,0.0029-0.7375,0.0942-1.1125,0.2902
		c-0.6223,0.3256-1.0339,0.8394-1.1328,1.325c-0.1375,0.0144-0.2769,0.0366-0.4188,0.0743c-0.6191,0.1646-1.108,0.52-1.3429,0.9241
		c-0.3496-0.0821-0.7593-0.0821-1.1814,0.0301c-0.4331,0.1155-0.7971,0.3269-1.0608,0.5805
		c-0.2919-0.2111-0.6729-0.3688-1.1086-0.4263c-0.5177-0.0684-1.002,0.0144-1.3652,0.2006
		c-0.3016-0.2539-0.7284-0.4434-1.2205-0.5085c-0.5845-0.0773-1.1238,0.0409-1.4968,0.2808
		c-0.015-0.0013-0.0308-0.003-0.0458-0.0046c-0.324-0.355-0.9044-0.5946-1.574-0.5946c-0.483,0-0.9188,0.1263-1.2474,0.3286
		c-0.0308-0.0026-0.0615-0.0056-0.0923-0.0082c-0.333-0.3233-0.8906-0.536-1.5228-0.536c-0.3815,0-0.7356,0.0776-1.0302,0.2094
		c-0.3324-0.3243-0.8914-0.5376-1.5249-0.5376C142.0128,317.723,141.5029,317.9039,141.1639,318.1814z"/>
	<path d="M168.5448,339.5164c-0.324-0.355-0.9045-0.5946-1.574-0.5946c-0.483,0-0.9189,0.1263-1.2474,0.3286
		c-0.0308-0.0026-0.0615-0.0056-0.0923-0.0082c-0.3331-0.3233-0.8907-0.536-1.5228-0.536c-0.3816,0-0.7357,0.0776-1.0303,0.2094
		c-0.3324-0.3243-0.8914-0.5376-1.5248-0.5376c-0.5785,0-1.0884,0.181-1.4274,0.4584c-0.3345-0.2258-0.7983-0.3661-1.3123-0.3661
		c-0.4685,0-0.8906,0.1198-1.2158,0.3112c-0.3259-0.1914-0.748-0.3112-1.2161-0.3112c-0.6589,0-1.2336,0.2317-1.5602,0.5779
		c-0.7833-0.6149-2.4752-0.0334-3.8795,1.3707c-1.4583,1.4584-2.0432,3.2386-1.3057,3.9761
		c0.2323,0.2323,0.5752,0.3193,0.9718,0.3033c-0.248,1.4758-0.2015,3.0703,0.2042,4.5739c0.5059,1.873,0.8057,3.9274,1.6584,5.4617
		l-0.129,2.4257c-0.0099,0.179,0.0026,0.3583,0.0367,0.5344l0.9385,4.9038c0.231,1.7235,0.5785,3.1639,0.7041,3.6591
		c0.2552,0.9993,1.1545,1.6685,2.146,1.6685c0.1597,0,0.322-0.0173,0.4843-0.0536c1.1696-0.2608,1.9196-1.4035,1.6945-2.5798
		l-0.6329-3.3073c-0.2167-1.6282-0.2847-3.2539,0.0072-4.1188c0.074-0.2209,0.1754-0.5197,0.2979-0.8596
		c0.4142-0.0543,0.8552-0.1335,1.3279-0.2421c7.3141-1.6774,10.2598,2.572,14.6282,1.1184
		c1.8639-0.6204,4.6022-0.4378,7.2632-0.4869l0.9521,8.7081c0.1094,1.0013,0.9556,1.7559,1.9575,1.7559
		c0.0171,0,0.0347,0,0.0524-0.0006c1.0242-0.0266,1.8566-0.8341,1.9155-1.8574l0.5432-9.5317
		c1.2094-0.5812,2.1381-1.52,2.5792-3.0445c0.7539-2.608,0.6243-6.6973,0.4521-9.1548c0.3456,0.1619,0.557,0.0818,0.557-0.3292
		c0-2.4548,1.941-2.6832,3.0255-4.967c0.0216-0.0451,0.03-0.0857,0.0483-0.1299c0.5864,0.3315,1.1637,0.6201,1.5695,0.7772
		c1.1793,0.4565,2.3214-0.8373,2.7023-1.6747c0.3801-0.8373-0.8757-3.3871-1.8652-4.3766c-0.587-0.587-0.4771-1.4264-0.2905-2.014
		c0.8082-0.2438,1.2886-0.5841,0.8612-1.3165c-1.1989-2.0549-4.9097-2.2264-6.8501-1.9407
		c-0.0165,0.0023-0.036,0.0104-0.0531,0.0134c-0.3756-0.0203-0.8036,0.0665-1.2179,0.2795
		c-0.4196,0.2153-0.7421,0.518-0.9437,0.8394c-0.021,0.015-0.0419,0.0284-0.0627,0.0438c-0.4124,0.0435-0.8699,0.2451-1.2683,0.5985
		c-0.3214,0.2847-0.5452,0.6191-0.6715,0.9493c-0.0111,0.0095-0.0229,0.0193-0.0341,0.0288
		c-0.3992,0.0379-0.843,0.2208-1.2383,0.5412c-0.5432,0.4398-0.8455,1.0213-0.8488,1.5154
		c-0.0033,0.0933-0.0072,0.1855-0.0033,0.2827c-0.5288,0.0916-1.0203,0.4051-1.3142,0.9136
		c-0.1865,0.3233-0.2649,0.678-0.252,1.0229c-0.5288,0.0913-1.0203,0.4051-1.3141,0.9136c-0.0942,0.163-0.1525,0.3354-0.1943,0.5092
		c-0.3502,0.0029-0.7377,0.0942-1.1127,0.2902c-0.6223,0.3256-1.0339,0.8394-1.1328,1.325
		c-0.1375,0.0144-0.2769,0.0367-0.4188,0.0743c-0.619,0.1646-1.108,0.52-1.3429,0.9241c-0.3495-0.0821-0.7592-0.0821-1.1813,0.0302
		c-0.4332,0.1155-0.7972,0.3269-1.0609,0.5805c-0.2919-0.2111-0.6727-0.3688-1.1086-0.4264
		c-0.5176-0.0684-1.002,0.0144-1.3652,0.2006c-0.3016-0.2539-0.7283-0.4434-1.2205-0.5085
		c-0.5845-0.0772-1.1238,0.0409-1.4968,0.2808C168.5756,339.5196,168.5597,339.518,168.5448,339.5164z"/>
	<rect x="133.4108" y="371.8727" width="55.8701" height="1.3544"/>
	<polygon points="145.9393,354.0959 115.3331,354.0959 115.121,354.0959 62.5659,354.0959 62.3539,354.0959 10.6661,354.0959 
		10.6661,355.4504 145.9393,355.4504 	"/>
	<rect x="192.978" y="354.0959" width="9.6178" height="1.3544"/>
	<rect y="357.8206" width="145.9393" height="1.3544"/>
	<path d="M139.6318,238.6378c-1.4376-0.0554-2.4828,0.939-2.5265,0.9813c-0.1931,0.1868-0.1982,0.4938-0.0122,0.6879
		c0.0127,0.0133,0.026,0.0256,0.0398,0.0372c0.188,0.1567,0.4681,0.1504,0.6497-0.0222c0.0077-0.0074,0.8025-0.752,1.8202-0.7085
		c0.6516,0.0276,1.2775,0.3744,1.8588,1.0314c0.1786,0.2011,0.4872,0.2203,0.689,0.0417c0.2019-0.1789,0.2202-0.4872,0.0415-0.689
		C141.4242,239.1308,140.563,238.6733,139.6318,238.6378z"/>
	<path d="M143.5966,239.0854c0.2084-0.1708,0.2388-0.4782,0.068-0.6868c-1.094-1.3339-2.3419-2.0692-3.7101-2.1848
		c-2.0825-0.1762-3.6519,1.1646-3.7179,1.2219c-0.203,0.1763-0.2245,0.4834-0.0485,0.687c0.0177,0.0204,0.0366,0.0391,0.0569,0.0558
		c0.1799,0.1501,0.4474,0.1523,0.6309-0.0052c0.0132-0.0114,1.3385-1.1319,3.0059-0.9861c1.092,0.0953,2.1108,0.7102,3.0278,1.8303
		C143.0817,239.2253,143.3881,239.256,143.5966,239.0854z"/>
	<path d="M110.9943,283.2242c1.3188,0.5748,2.6542,0.029,2.7104,0.0056c0.2478-0.1037,0.3643-0.3879,0.2615-0.6363
		c-0.0068-0.017-0.0148-0.0333-0.0234-0.0491c-0.1179-0.2144-0.3813-0.3105-0.613-0.2158c-0.01,0.0041-1.0212,0.4083-1.9534-0.0026
		c-0.5969-0.2629-1.0535-0.8137-1.356-1.6373c-0.093-0.2523-0.3735-0.3824-0.6265-0.2896
		c-0.2531,0.0931-0.3824,0.3736-0.2896,0.6266C109.5043,282.1126,110.1399,282.8522,110.9943,283.2242z"/>
	<path d="M107.4645,281.3642c-0.2563,0.0833-0.3965,0.3585-0.3135,0.6149c0.5334,1.6406,1.4282,2.7796,2.6605,3.3854
		c1.8754,0.9221,3.8253,0.2444,3.9076,0.2151c0.2532-0.0903,0.3849-0.3685,0.2952-0.6221c-0.009-0.0255-0.02-0.0497-0.0327-0.0728
		c-0.1129-0.2053-0.3613-0.3047-0.5895-0.2248c-0.0165,0.0058-1.6586,0.5671-3.1586-0.1755
		c-0.9824-0.4862-1.7076-1.4297-2.1541-2.8068C107.9948,281.4212,107.7206,281.2811,107.4645,281.3642z"/>
</g>
</svg>
