<?xml version="1.0" encoding="utf-8"?>
<!-- Generator: Adobe Illustrator 24.0.2, SVG Export Plug-In . SVG Version: 6.00 Build 0)  -->
<svg version="1.1" id="Layer_1" xmlns="http://www.w3.org/2000/svg" xmlns:xlink="http://www.w3.org/1999/xlink" x="0px" y="0px"
	 viewBox="0 0 120.7543 240.5341" enable-background="new 0 0 120.7543 240.5341" xml:space="preserve">
<g>
	<path d="M70.7857,55.9562c7.8478,0,22.8032-20.5588,22.8032-33.153C93.589,10.209,83.3809,0,70.7857,0
		C58.1925,0,47.9825,10.209,47.9825,22.8032C47.9825,35.3974,62.9378,55.9562,70.7857,55.9562z M77.771,26.7484
		c3.0193-2.9423,7.0828-3.6695,9.0759-1.6242c1.9932,2.0453,1.1612,6.0886-1.8582,9.0309s-10.8713,2.8994-10.8713,2.8994
		S74.7516,29.6907,77.771,26.7484z M54.7247,25.1242c1.9931-2.0453,6.0565-1.3181,9.0759,1.6242s3.6537,10.3061,3.6537,10.3061
		s-7.8521,0.0429-10.8714-2.8994S52.7316,27.1695,54.7247,25.1242z"  stroke="darkorange" fill="darkorange"/>
	<path d="M6.1212,56.6094l15.0792,40.2774c0.2874,0.7592,0.7704,1.4808,1.4296,2.0471c2.1024,1.8062,5.2709,1.5661,7.0771-0.5363
		l0.1426-0.166L49.416,75.4571c-0.0021,0.0844-0.0101,0.1669-0.0101,0.252v44.7094c-0.0381,0.361-0.0605,0.7266-0.0593,1.098
		l0.3903,114.7626c0.0148,2.1597,1.6606,4.0221,3.8575,4.235c2.3469,0.2274,4.4338-1.4908,4.6613-3.8377l8.8953-91.795h7.164
		l8.8953,91.795c0.2158,2.149,2.0277,3.85,4.235,3.8575c2.3578,0.0081,4.2758-1.8969,4.2839-4.2548l0.3207-94.3004
		c0.0278,0.0154,0.0502,0.0367,0.0786,0.0515c2.0223,1.0575,4.5189,0.2755,5.5764-1.7468l22.4906-43.0077
		c0.8651-1.6606,0.7432-3.7476-0.4862-5.3181l-0.1329-0.1699L94.732,60.0487c-1.2115-1.5393-3.1835-2.4302-5.2679-2.1635
		l-0.1331,0.017l-18.5463,2.3735l-18.5463-2.3735l-0.1427-0.0192c-1.9437-0.2435-3.9629,0.5109-5.2582,2.1656L27.2481,85.0745
		L14.2402,54.1949c0.8937-0.3144,1.7755-0.6391,2.6263-0.9689c3.4448,3.4045,6.9342,4.9366,9.5699,3.7797
		c4.9341-2.1659,5.0069-12.8682-0.0153-24.3093c-4.7192-10.7508-9.1224-11.1849-13.7303-9.4011l-0.9798-2.2321
		c1.8484-0.9333,4.0479-2.4305,3.5187-3.6372c-0.5287-1.2051-3.12-0.5989-5.0585,0.1294l-0.4194-0.9555
		c0.9437-0.4735,1.7804-0.9948,2.4077-1.5093c0.9976-0.8184,1.3711-1.5347,1.1108-2.1284
		c-0.5287-1.2043-3.1203-0.5991-5.0586,0.1293l-0.718-1.6357c0.9881-0.8798,1.3573-2.3176,0.7968-3.5945
		C7.594,6.2744,5.7431,5.5527,4.1563,6.2493C2.5697,6.9457,1.848,8.7967,2.5445,10.3834c0.5605,1.2769,1.8687,1.9785,3.1851,1.8466
		l0.7178,1.6354c-1.8487,0.9331-4.0481,2.4301-3.5189,3.6368c0.2183,0.4966,0.7866,0.686,1.5151,0.686
		c1.0402,0,2.4035-0.3867,3.5434-0.8155l0.4199,0.9565c-1.8487,0.9331-4.0481,2.4301-3.5189,3.6368
		c0.2183,0.4966,0.7866,0.686,1.5151,0.686c1.0401,0,2.4034-0.3866,3.5435-0.8152L10.927,24.07
		c-4.4319,2.1845-7.093,5.7192-2.374,16.4698c1.1482,2.6158,2.4525,4.9952,3.8339,7.1056c-0.3984,0.2068-0.7979,0.4178-1.197,0.6324
		c-1.1-0.8812-2.6113-1.1945-4.0248-0.6653c-1.908,0.7143-2.9661,2.6882-2.6041,4.6241c-2.9138,1.965-4.8791,3.723-4.5183,4.5449
		C0.392,57.5775,2.8615,57.3633,6.1212,56.6094z M109.6444,95.8159l-17.5635,37.0464l0.0335-9.8541
		c0.0318-0.4895,0.05-0.916,0.05-1.2462V75.709c0-0.0847-0.0079-0.1668-0.01-0.2509L109.6444,95.8159z M13.8255,17.7189
		c0.2549,0,0.4204,0.0327,0.4824,0.0869c0.009,0.3198-1.0121,1.3376-2.9985,2.3424l-0.7359-1.6764
		C12.0493,17.9182,13.2048,17.7189,13.8255,17.7189z M11.8661,13.2551c0.2549,0,0.4204,0.0327,0.4824,0.0869
		c0.009,0.3198-1.012,1.3374-2.9987,2.3419L8.6142,14.008C10.0899,13.4543,11.2453,13.2551,11.8661,13.2551z M3.8504,17.1227
		c-0.009-0.3203,1.0122-1.3376,2.9987-2.3425l0.7366,1.678C5.5023,17.2407,4.0634,17.3073,3.8504,17.1227z M5.8099,21.5866
		c-0.009-0.3203,1.0121-1.3376,2.9987-2.3425l0.7368,1.6786C7.4619,21.705,6.0241,21.7716,5.8099,21.5866z M8.6036,31.8902
		c-0.8456-1.9264,0.5493-4.4371,3.1558-5.9237l1.7256,3.9312l1.7641-0.7744l-1.7216-3.9218
		c2.8572-0.9105,5.6472-0.2482,6.4924,1.6773c0.9348,2.1295-0.8631,4.9777-4.0156,6.3615
		C12.8518,34.6242,9.5384,34.0197,8.6036,31.8902z" stroke="darkorange" fill="darkorange"/>
</g>
</svg>
