<?xml version="1.0" encoding="UTF-8" standalone="no"?>
<!-- Created with Inkscape (http://www.inkscape.org/) -->

<svg
   version="1.1"
   id="svg3687"
   xml:space="preserve"
   width="682.66669"
   height="682.66669"
   viewBox="0 0 682.66669 682.66669"
   xmlns="http://www.w3.org/2000/svg"
   xmlns:svg="http://www.w3.org/2000/svg"><defs
     id="defs3691"><clipPath
       clipPathUnits="userSpaceOnUse"
       id="clipPath3701"><path
         d="M 0,512 H 512 V 0 H 0 Z"
         id="path3699" /></clipPath></defs><g
     id="g3693"
     transform="matrix(1.3333333,0,0,-1.3333333,0,682.66667)"><g
       id="g3695"><g
         id="g3697"
         clip-path="url(#clipPath3701)"><g
           id="g3703"
           transform="translate(196,15)"><path
             d="m 0,0 h -20 c -11.046,0 -20,8.954 -20,20 v 80 c 0,11.046 8.954,20 20,20 H 0 c 11.046,0 20,-8.954 20,-20 V 20 C 20,8.954 11.046,0 0,0 Z"
             style="fill:none;stroke:#000000;stroke-width:30;stroke-linecap:round;stroke-linejoin:round;stroke-miterlimit:10;stroke-dasharray:none;stroke-opacity:1"
             id="path3705" /></g><g
           id="g3707"
           transform="translate(46,135)"><path
             d="M 0,0 V -120"
             style="fill:none;stroke:#000000;stroke-width:30;stroke-linecap:round;stroke-linejoin:round;stroke-miterlimit:10;stroke-dasharray:none;stroke-opacity:1"
             id="path3709" /></g><g
           id="g3711"
           transform="translate(16,15)"><path
             d="M 0,0 H 60"
             style="fill:none;stroke:#000000;stroke-width:30;stroke-linecap:round;stroke-linejoin:round;stroke-miterlimit:10;stroke-dasharray:none;stroke-opacity:1"
             id="path3713" /></g><g
           id="g3715"
           transform="translate(16,135)"><path
             d="M 0,0 H 30"
             style="fill:none;stroke:#000000;stroke-width:30;stroke-linecap:round;stroke-linejoin:round;stroke-miterlimit:10;stroke-dasharray:none;stroke-opacity:1"
             id="path3717" /></g><g
           id="g3719"
           transform="translate(476,15)"><path
             d="m 0,0 h -20 c -11.046,0 -20,8.954 -20,20 v 80 c 0,11.046 8.954,20 20,20 H 0 c 11.046,0 20,-8.954 20,-20 V 20 C 20,8.954 11.046,0 0,0 Z"
             style="fill:none;stroke:#000000;stroke-width:30;stroke-linecap:round;stroke-linejoin:round;stroke-miterlimit:10;stroke-dasharray:none;stroke-opacity:1"
             id="path3721" /></g><g
           id="g3723"
           transform="translate(326,135)"><path
             d="M 0,0 V -120"
             style="fill:none;stroke:#000000;stroke-width:30;stroke-linecap:round;stroke-linejoin:round;stroke-miterlimit:10;stroke-dasharray:none;stroke-opacity:1"
             id="path3725" /></g><g
           id="g3727"
           transform="translate(296,15)"><path
             d="M 0,0 H 60"
             style="fill:none;stroke:#000000;stroke-width:30;stroke-linecap:round;stroke-linejoin:round;stroke-miterlimit:10;stroke-dasharray:none;stroke-opacity:1"
             id="path3729" /></g><g
           id="g3731"
           transform="translate(296,135)"><path
             d="M 0,0 H 30"
             style="fill:none;stroke:#000000;stroke-width:30;stroke-linecap:round;stroke-linejoin:round;stroke-miterlimit:10;stroke-dasharray:none;stroke-opacity:1"
             id="path3733" /></g><g
           id="g3735"
           transform="translate(196,196)"><path
             d="m 0,0 h -20 c -11.046,0 -20,8.954 -20,20 v 80 c 0,11.046 8.954,20 20,20 H 0 c 11.046,0 20,-8.954 20,-20 V 20 C 20,8.954 11.046,0 0,0 Z"
             style="fill:none;stroke:#000000;stroke-width:30;stroke-linecap:round;stroke-linejoin:round;stroke-miterlimit:10;stroke-dasharray:none;stroke-opacity:1"
             id="path3737" /></g><g
           id="g3739"
           transform="translate(46,316)"><path
             d="M 0,0 V -120"
             style="fill:none;stroke:#000000;stroke-width:30;stroke-linecap:round;stroke-linejoin:round;stroke-miterlimit:10;stroke-dasharray:none;stroke-opacity:1"
             id="path3741" /></g><g
           id="g3743"
           transform="translate(16,196)"><path
             d="M 0,0 H 60"
             style="fill:none;stroke:#000000;stroke-width:30;stroke-linecap:round;stroke-linejoin:round;stroke-miterlimit:10;stroke-dasharray:none;stroke-opacity:1"
             id="path3745" /></g><g
           id="g3747"
           transform="translate(16,316)"><path
             d="M 0,0 H 30"
             style="fill:none;stroke:#000000;stroke-width:30;stroke-linecap:round;stroke-linejoin:round;stroke-miterlimit:10;stroke-dasharray:none;stroke-opacity:1"
             id="path3749" /></g><g
           id="g3751"
           transform="translate(336,196)"><path
             d="m 0,0 h -20 c -11.046,0 -20,8.954 -20,20 v 80 c 0,11.046 8.954,20 20,20 H 0 c 11.046,0 20,-8.954 20,-20 V 20 C 20,8.954 11.046,0 0,0 Z"
             style="fill:none;stroke:#000000;stroke-width:30;stroke-linecap:round;stroke-linejoin:round;stroke-miterlimit:10;stroke-dasharray:none;stroke-opacity:1"
             id="path3753" /></g><g
           id="g3755"
           transform="translate(466,316)"><path
             d="M 0,0 V -120"
             style="fill:none;stroke:#000000;stroke-width:30;stroke-linecap:round;stroke-linejoin:round;stroke-miterlimit:10;stroke-dasharray:none;stroke-opacity:1"
             id="path3757" /></g><g
           id="g3759"
           transform="translate(436,196)"><path
             d="M 0,0 H 60"
             style="fill:none;stroke:#000000;stroke-width:30;stroke-linecap:round;stroke-linejoin:round;stroke-miterlimit:10;stroke-dasharray:none;stroke-opacity:1"
             id="path3761" /></g><g
           id="g3763"
           transform="translate(436,316)"><path
             d="M 0,0 H 30"
             style="fill:none;stroke:#000000;stroke-width:30;stroke-linecap:round;stroke-linejoin:round;stroke-miterlimit:10;stroke-dasharray:none;stroke-opacity:1"
             id="path3765" /></g><g
           id="g3767"
           transform="translate(56,377)"><path
             d="m 0,0 h -20 c -11.046,0 -20,8.954 -20,20 v 80 c 0,11.046 8.954,20 20,20 H 0 c 11.046,0 20,-8.954 20,-20 V 20 C 20,8.954 11.046,0 0,0 Z"
             style="fill:none;stroke:#000000;stroke-width:30;stroke-linecap:round;stroke-linejoin:round;stroke-miterlimit:10;stroke-dasharray:none;stroke-opacity:1"
             id="path3769" /></g><g
           id="g3771"
           transform="translate(186,497)"><path
             d="M 0,0 V -120"
             style="fill:none;stroke:#000000;stroke-width:30;stroke-linecap:round;stroke-linejoin:round;stroke-miterlimit:10;stroke-dasharray:none;stroke-opacity:1"
             id="path3773" /></g><g
           id="g3775"
           transform="translate(156,377)"><path
             d="M 0,0 H 60"
             style="fill:none;stroke:#000000;stroke-width:30;stroke-linecap:round;stroke-linejoin:round;stroke-miterlimit:10;stroke-dasharray:none;stroke-opacity:1"
             id="path3777" /></g><g
           id="g3779"
           transform="translate(156,497)"><path
             d="M 0,0 H 30"
             style="fill:none;stroke:#000000;stroke-width:30;stroke-linecap:round;stroke-linejoin:round;stroke-miterlimit:10;stroke-dasharray:none;stroke-opacity:1"
             id="path3781" /></g><g
           id="g3783"
           transform="translate(476,377)"><path
             d="m 0,0 h -20 c -11.046,0 -20,8.954 -20,20 v 80 c 0,11.046 8.954,20 20,20 H 0 c 11.046,0 20,-8.954 20,-20 V 20 C 20,8.954 11.046,0 0,0 Z"
             style="fill:none;stroke:#000000;stroke-width:30;stroke-linecap:round;stroke-linejoin:round;stroke-miterlimit:10;stroke-dasharray:none;stroke-opacity:1"
             id="path3785" /></g><g
           id="g3787"
           transform="translate(326,497)"><path
             d="M 0,0 V -120"
             style="fill:none;stroke:#000000;stroke-width:30;stroke-linecap:round;stroke-linejoin:round;stroke-miterlimit:10;stroke-dasharray:none;stroke-opacity:1"
             id="path3789" /></g><g
           id="g3791"
           transform="translate(296,377)"><path
             d="M 0,0 H 60"
             style="fill:none;stroke:#000000;stroke-width:30;stroke-linecap:round;stroke-linejoin:round;stroke-miterlimit:10;stroke-dasharray:none;stroke-opacity:1"
             id="path3793" /></g><g
           id="g3795"
           transform="translate(296,497)"><path
             d="M 0,0 H 30"
             style="fill:none;stroke:#000000;stroke-width:30;stroke-linecap:round;stroke-linejoin:round;stroke-miterlimit:10;stroke-dasharray:none;stroke-opacity:1"
             id="path3797" /></g></g></g></g></svg>
