<?xml version="1.0" encoding="UTF-8" standalone="no"?>
<!DOCTYPE svg PUBLIC "-//W3C//DTD SVG 1.1//EN" "http://www.w3.org/Graphics/SVG/1.1/DTD/svg11.dtd">
<svg width="100%" height="100%" viewBox="0 0 408 468" version="1.1" xmlns="http://www.w3.org/2000/svg" xmlns:xlink="http://www.w3.org/1999/xlink" xml:space="preserve" xmlns:serif="http://www.serif.com/" style="fill-rule:evenodd;clip-rule:evenodd;stroke-linejoin:round;stroke-miterlimit:2;">
    <g transform="matrix(4.16667,0,0,4.16667,0,0)">
        <g id="Artboard1" transform="matrix(1,0,0,1,-1.458,-10.6313)">
            <clipPath id="_clip1">
                <rect x="1.458" y="10.631" width="97.774" height="112.152"/>
            </clipPath>
            <g clip-path="url(#_clip1)">
                <rect x="1.458" y="10.631" width="98.93" height="112.152" style="fill:none;"/>
                <clipPath id="_clip2">
                    <rect x="1.458" y="10.631" width="98.93" height="112.152"/>
                </clipPath>
                <g clip-path="url(#_clip2)">
                    <g transform="matrix(1,0,0,1,0.458,0.631324)">
                        <path d="M88,80L99,80L99,124L0,124L0,80L11,80L11,113L88,113L88,80Z" style="fill:rgb(123,80,248);"/>
                        <g transform="matrix(0.902273,0,0,0.858001,2.15,14.4839)">
                            <path d="M22.988,76.73L77.013,88.085L79.284,77.285L25.259,65.925L22.988,76.73ZM30.137,50.861L80.183,74.169L84.845,64.16L34.798,40.852L30.137,50.861ZM43.985,26.308L86.413,61.639L93.479,53.154L51.051,17.824L43.985,26.308ZM71.372,0.192L62.512,6.782L95.46,51.082L104.32,44.493L71.372,0.192ZM22,102L77,102L77,91L22,91L22,102Z" style="fill:rgb(225,70,94);fill-rule:nonzero;"/>
                        </g>
                    </g>
                </g>
            </g>
        </g>
    </g>
</svg>
