<?xml version="1.0" standalone="no"?>
<!DOCTYPE svg PUBLIC "-//W3C//DTD SVG 1.1//EN" "http://www.w3.org/Graphics/SVG/1.1/DTD/svg11.dtd">
<svg version="1.1" xmlns="http://www.w3.org/2000/svg" viewBox="0 0 535.9556193533404 130.54131012950802" width="1607.866858060021" height="391.62393038852406"><!-- svg-source:excalidraw --><metadata></metadata><defs><style class="style-fonts">
      </style></defs><g stroke-linecap="round" transform="translate(11.92339531998914 10.192175279621551) rotate(0 34.811648515684055 17.24978450088338)"><path d="M0 0 C23.67 1.29, 43.99 1.8, 69.62 0 M0 0 C26.38 0.58, 54.1 -0.02, 69.62 0 M69.62 0 C68.01 9.97, 67.95 23.26, 69.62 34.5 M69.62 0 C69.33 10.85, 68.82 22.05, 69.62 34.5 M69.62 34.5 C44.84 33.53, 19.76 33.36, 0 34.5 M69.62 34.5 C52.22 35.04, 35.08 35.06, 0 34.5 M0 34.5 C-2.05 25.29, 0.25 13.82, 0 0 M0 34.5 C0.69 24.31, -0.43 14.43, 0 0" stroke="#2f9e44" stroke-width="2" fill="none"></path></g><g stroke-linecap="round" transform="translate(81.86369943654745 10) rotate(0 14.150342170549038 37.418333718779195)"><path d="M0 0 C9.37 0.19, 15.88 1.66, 28.3 0 M0 0 C10.73 0.63, 19.47 -0.68, 28.3 0 M28.3 0 C28.95 27.48, 30.34 59.04, 28.3 74.84 M28.3 0 C28.94 19.1, 27.77 40.08, 28.3 74.84 M28.3 74.84 C22.94 73.07, 16.24 75.54, 0 74.84 M28.3 74.84 C20.16 74.4, 12.74 75.32, 0 74.84 M0 74.84 C0.99 47.67, 2.03 20.52, 0 0 M0 74.84 C-0.19 58.94, 0.58 42.66, 0 0" stroke="#1971c2" stroke-width="2" fill="none"></path></g><g stroke-linecap="round" transform="translate(39.15315417122065 85.54131012950802) rotate(0 35.34546873685963 17.5)"><path d="M0 0 C21.1 0.48, 44.59 1.95, 70.69 0 M0 0 C21.44 -0.16, 45.08 1.23, 70.69 0 M70.69 0 C71.81 8.49, 71.49 15.21, 70.69 35 M70.69 0 C69.57 10.58, 70.96 19.62, 70.69 35 M70.69 35 C49.2 33.78, 29.46 37.06, 0 35 M70.69 35 C56.41 35.82, 42.1 35.99, 0 35 M0 35 C0.11 23.84, 0.81 16.36, 0 0 M0 35 C-0.11 22.03, -0.25 10.5, 0 0" stroke="#f08c00" stroke-width="2" fill="none"></path></g><g stroke-linecap="round" transform="translate(10 45.28141031031737) rotate(0 14.150342170549038 37.418333718779195)"><path d="M0 0 C9.76 -0.08, 19.79 -1.54, 28.3 0 M0 0 C7.84 -0.05, 15.88 -1.02, 28.3 0 M28.3 0 C29.01 23.64, 29.21 45.58, 28.3 74.84 M28.3 0 C26.79 21.46, 27.87 45.72, 28.3 74.84 M28.3 74.84 C21.95 74.48, 14.85 74.89, 0 74.84 M28.3 74.84 C22.59 74.8, 16.34 74.41, 0 74.84 M0 74.84 C0.34 49.39, -2.39 21.49, 0 0 M0 74.84 C0.29 54.16, 0.91 34.38, 0 0" stroke="#e03131" stroke-width="2" fill="none"></path></g><g stroke-linecap="round"><g transform="translate(138.7600937192533 61.32028394313693) rotate(0 25.26177810111676 0.7866710227517615)"><path d="M0.75 1.04 C9.19 1.42, 42.55 1.64, 50.84 1.77 M-0.32 0.55 C7.94 0.59, 41.58 -0.05, 49.88 -0.19" stroke="#757575" stroke-width="2" fill="none"></path></g><g transform="translate(138.7600937192533 61.32028394313693) rotate(0 25.26177810111676 0.7866710227517615)"><path d="M26.54 8.78 C35.72 5.74, 41.91 2.27, 49.88 -0.19 M26.54 8.78 C33.96 5.34, 42.97 2.03, 49.88 -0.19" stroke="#757575" stroke-width="2" fill="none"></path></g><g transform="translate(138.7600937192533 61.32028394313693) rotate(0 25.26177810111676 0.7866710227517615)"><path d="M26.23 -8.32 C35.44 -5.94, 41.72 -3.98, 49.88 -0.19 M26.23 -8.32 C33.63 -6.12, 42.74 -3.77, 49.88 -0.19" stroke="#757575" stroke-width="2" fill="none"></path></g></g><mask></mask><g stroke-linecap="round" transform="translate(217.21586967033818 43.50912717601477) rotate(0 34.811648515684055 17.5)"><path d="M0 0 C17.28 0.87, 36.9 1.41, 69.62 0 M0 0 C25.72 -0.71, 52.36 -0.46, 69.62 0 M69.62 0 C69.07 7.29, 68.73 19.31, 69.62 35 M69.62 0 C69.1 12.5, 70.55 23.81, 69.62 35 M69.62 35 C42.86 33.75, 19.21 34.93, 0 35 M69.62 35 C43.02 35.6, 16.57 35.14, 0 35 M0 35 C0 24.09, -1.08 15.33, 0 0 M0 35 C-0.62 25.62, 0.09 14.83, 0 0" stroke="#2f9e44" stroke-width="2" fill="none"></path></g><g stroke-linecap="round" transform="translate(313.34845872296 24.46407630237809) rotate(269.7869922099974 17.15897258789778 36.5100238301593)"><path d="M0 0 C7.62 -1.33, 16.87 -0.12, 34.32 0 M0 0 C12.97 0.89, 25.47 0.95, 34.32 0 M34.32 0 C32.98 22.98, 34.02 48.76, 34.32 73.02 M34.32 0 C33.83 25.25, 34.09 52.01, 34.32 73.02 M34.32 73.02 C23.57 73.05, 14.59 74.91, 0 73.02 M34.32 73.02 C22.12 72.01, 10.38 73.5, 0 73.02 M0 73.02 C-1.48 55.52, 0.7 36.1, 0 0 M0 73.02 C0.64 57.36, 0.88 41.99, 0 0" stroke="#1971c2" stroke-width="2" fill="none"></path></g><g stroke-linecap="round" transform="translate(374.5811433016561 42.44093484568111) rotate(0 35.34546873685963 17.5)"><path d="M0 0 C17.37 1.09, 29.8 1.19, 70.69 0 M0 0 C19.87 -0.32, 38.36 0.58, 70.69 0 M70.69 0 C71.3 15.13, 68.85 25.85, 70.69 35 M70.69 0 C69.47 8.18, 69.61 17.1, 70.69 35 M70.69 35 C51.56 36.19, 32.65 37.02, 0 35 M70.69 35 C54.13 34.13, 38.6 33.45, 0 35 M0 35 C-1.57 26.66, -0.61 16.9, 0 0 M0 35 C0.33 24.43, 0.15 14.85, 0 0" stroke="#f08c00" stroke-width="2" fill="none"></path></g><g stroke-linecap="round" transform="translate(472.22308369416305 22.599793994244465) rotate(269.7869922099974 17.15897258789778 36.5100238301593)"><path d="M0 0 C10.62 1.78, 24.66 1.01, 34.32 0 M0 0 C9.21 -0.81, 18.88 0.09, 34.32 0 M34.32 0 C32.76 26.97, 32.48 49.46, 34.32 73.02 M34.32 0 C34.89 26.21, 34.79 52.65, 34.32 73.02 M34.32 73.02 C24.77 74.29, 12.24 74.86, 0 73.02 M34.32 73.02 C25.47 72.24, 18.08 72.07, 0 73.02 M0 73.02 C-0.8 49.56, 0.52 27.52, 0 0 M0 73.02 C-0.33 52.52, 0.28 32.27, 0 0" stroke="#e03131" stroke-width="2" fill="none"></path></g></svg>