<?xml version="1.0" encoding="utf-8"?>
<!-- Generator: Adobe Illustrator 24.0.2, SVG Export Plug-In . SVG Version: 6.00 Build 0)  -->
<svg version="1.1" id="Layer_1" xmlns="http://www.w3.org/2000/svg" xmlns:xlink="http://www.w3.org/1999/xlink" x="0px" y="0px"
	 viewBox="0 0 372.9387 347.0008" enable-background="new 0 0 372.9387 347.0008" xml:space="preserve">
<g>
	<path d="M249.3102,211.2517v-3.1679h-2.4442c-0.4197,0.6581-0.9044,1.3009-1.4474,1.8829c-0.4166,0.4577-0.901,0.8846-1.4199,1.285
		H249.3102z"/>
	<path d="M319.1237,201.9979l0.1357,0.5466c0.0762,0.3203,0.1367,0.6367,0.1904,0.9575c0.0938,0.6033,0.2021,1.4805,0.1416,2.6165
		c-0.0986,1.5991-0.4902,3.0129-1.1963,4.3577c-0.1318,0.2612-0.2874,0.5196-0.4534,0.7755h2.5536v-0.0001l0.0001,0.0001
		l8.0737,5.2258h-10.9359l-2.9544-2.0717c-0.1719,0.1028-0.3444,0.204-0.5192,0.2923c-1.4512,0.7712-2.7617,1.0193-3.6152,1.1355
		c-0.3467,0.0399-0.6519,0.0638-0.9433,0.0795l0.7604,0.5645H300.069v8.6139c0,0.3691-0.0176,0.8384-0.0498,1.3757l-0.0454,13.3127
		h63.8478l9.1171-14.1923l-55.5969-30.1392c0.1962,0.6746,0.3964,1.3486,0.5827,2.0249L319.1237,201.9979z"/>
	<path d="M249.3102,207.9556v-6.0072c-0.2588,0.7849-0.5146,1.5769-0.7656,2.3757l-0.2676,0.8027
		c-0.1094,0.3297-0.2349,0.6493-0.3694,0.9661L249.3102,207.9556z"/>
	<path d="M70.6649,216.4775h-8.086l1.7695-1.3137v-0.0001l4.4044-3.2698l0.0001,0.0001l0.8653-0.6424h1.491l0.5294-6.2262
		l-4.3613,3.0583h-9.938l0.0001-0.0001h-0.0001l6.7108-4.3437v0.0001h7.6978l0.225-2.6464h-3.8342l4.0575-2.6263l0.902-10.6094
		h-3.4993L0,225.5876l9.1171,14.1923h59.5665L70.6649,216.4775z M52.4448,211.2516L52.4448,211.2516l10.3146,0.0001l-7.4523,5.2258
		H44.3711L52.4448,211.2516z"/>
	<path d="M249.2516,224.8593c-0.001-0.4231,0.0186-0.8501,0.0586-1.3013v-7.0804h-4.5048l-2.5899-4.0834
		c-0.1785,0.0944-0.3517,0.1966-0.5352,0.2828c-1.5322,0.72-2.915,0.9648-3.8213,1.0864l-0.1113,0.0134
		c-0.5488,0.0581-1.1025,0.0876-1.6445,0.0876c-0.0116,0-0.0217-0.0012-0.0332-0.0012l1.451,2.6143h-10.9218l-2.2801-5.2258h1.8959
		c-1.4536-0.6454-2.7919-1.2955-4.0132-1.8969c-0.8252-0.4058-1.6299-0.8025-2.4336-1.177
		c-1.4375-0.6787-2.4902-1.1328-3.3916-1.4626c-0.0793,0.2496-0.1915,0.481-0.2928,0.7186l0.2321,0.65h-0.5307
		c-0.7139,1.3342-1.7826,2.421-3.0746,3.1679h4.7365v-0.0001v0.0001l1.8661,5.2258h-10.9202l-1.0054-4.218
		c-0.0004-0.0001-0.0009-0.0001-0.0013-0.0001c-4.3809-0.6797-7.376-4.6602-6.8174-9.0618c0.2333-1.8215,0.629-4.8423,2.7454-8.0267
		l-0.7436-3.1195h3.743c0.6534-0.4893,1.3346-0.9363,2.0569-1.2852c1.623-0.8047,3.498-1.2749,5.5352-1.3792
		c0.3096-0.012,0.5625-0.0166,0.8115-0.0166c2.6699,0,4.833,0.5486,6.6504,1.063c1.9766,0.5847,3.7217,1.2642,5.3203,1.9133
		c0.9316,0.3799,1.8438,0.7673,2.7354,1.146c0.372,0.1581,0.7355,0.3118,1.0985,0.4648l-1.209-1.9063h3.7304
		c0.4364-1.4219,0.8821-2.8222,1.3409-4.1934h-98.8411l0.3564,4.1934h7.7261h0.0001l-1.9833,3.1269h-5.4771l0.1914,2.252h3.8572
		l-2.3235,3.6635h-1.2222l0.9681,11.389l0.6833-1.231v0.0001l0.0001-0.0001h10.3011l-2.28,5.2258h-8.3649l1.9809,23.3023h109.3451
		L249.2516,224.8593z M140.0783,208.0838l1.3344-2.4041v-0.0001l1.0765-1.9396v0.0001l0.0001-0.0001h9.4093l-1.8951,4.3437H140.0783
		z M155.4933,211.2517h10.2997l-1.2455,5.2258h-10.9202h-0.0001l1.866-5.2259l0.0001,0.0003L155.4933,211.2517z M200.2754,211.2517
		l0.8317,5.2258h-10.9217l-0.2111-5.2258H200.2754L200.2754,211.2517L200.2754,211.2517z M199.08,203.7401l0.6913,4.3436h-9.925
		l-0.1755-4.3436H199.08L199.08,203.7401L199.08,203.7401z M198.6588,201.0937h-9.0949l-0.148-3.6635h8.6599L198.6588,201.0937z
		 M197.2197,192.0514l0.4976,3.1268h-8.3925l-0.1263-3.1268H197.2197z M175.7203,192.0514h8.02l-0.1263,3.1268h-8.3913l0,0
		L175.7203,192.0514z M174.8644,197.4302v0.0003V197.4302h8.6587l-0.148,3.6635h-9.0936L174.8644,197.4302z M173.8603,203.7401
		v0.0004V203.7401l9.408,0.0001l-0.1755,4.3437h-9.9236v-0.0001h-0.0001L173.8603,203.7401z M172.665,211.2516L172.665,211.2516
		l10.2997,0.0001l-0.2111,5.2258h-10.9201h-0.0001L172.665,211.2516z M162.3492,192.0514v0.0001V192.0514h8.0201l-0.7453,3.1268
		h-8.3913h-0.0001L162.3492,192.0514z M160.4285,197.4302v0.0001V197.4302h8.6588l-0.8732,3.6635h-9.0937h-0.0001L160.4285,197.4302
		z M158.1755,203.7401h9.4079l-1.0353,4.3437h-9.9236v-0.0001h-0.0001L158.1755,203.7401l-0.0001,0.0001L158.1755,203.7401z
		 M148.9769,192.0514v0.0002l0.0001-0.0002h8.0212l-1.3643,3.1268h-8.3925h-0.0001L148.9769,192.0514z M145.9914,197.4302v0.0002
		l0.0001-0.0002h8.6599l-1.5983,3.6635h-9.095l0.6978-1.2572v-0.0001L145.9914,197.4302z"/>
	<path d="M84.5061,160.3042c0.2793,0,0.5605,0.0117,0.8438,0.0359c0.1611,0.0137,0.3193,0.0313,0.4766,0.052l1.6589,0.2302
		c-5.6938-7.7995-9.9675-17.6837-9.9675-24.7462c0-14.7793,12.0234-26.8032,26.8027-26.8032s26.8037,12.0239,26.8037,26.8032
		c0,7.0625-4.2736,16.9467-9.9677,24.7462l1.6151-0.2241c0.4502-0.0625,0.9102-0.0945,1.3643-0.0945
		c4.8984,0,9.1016,3.6631,9.7754,8.5203c0.0234,0.1641,0.0459,0.3679,0.0596,0.5378l0.1463,1.7208h107.0524
		c0.0646-0.1297,0.1284-0.2611,0.1934-0.3901c0.9092-1.8018,1.7266-3.3086,2.5723-4.7437c0.4609-0.7874,0.9658-1.6025,1.4951-2.4128
		l0.9033-1.3242l0.1563-0.2153c0.2705-0.3767,0.5186-0.72,1.0225-1.3259c1.9287-2.24,4.6641-3.4937,7.5508-3.4937
		c0.1586,0,0.3166,0.0234,0.4755,0.031c-4.4963-7.1207-7.6515-15.2663-7.6515-21.3318c0-14.7793,12.0234-26.8032,26.8027-26.8032
		s26.8037,12.0239,26.8037,26.8032c0,6.0615-3.1509,14.2003-7.6425,21.3176c0.153-0.0073,0.3066-0.0162,0.4572-0.0162
		c2.8145,0,5.501,1.2021,7.3936,3.304l0.0508,0.05l0.1211,0.1467c0.5244,0.6331,0.7891,1.0012,1.0762,1.4016l0.2588,0.3628
		l0.8428,1.2515c0.5596,0.8623,1.085,1.7219,1.6455,2.6877c0.8795,1.5281,1.6981,3.075,2.5039,4.7009h32.5607V0H32.1771v171.0826
		h42.3473l0.1477-1.7374C75.1018,164.2759,79.4221,160.3042,84.5061,160.3042z M289.4993,27.2579
		c4.5057-0.3747,5.8516-1.7208,6.2268-6.2266h0.2031c0.3752,4.5058,1.721,5.8519,6.2268,6.2266v0.2037
		c-4.5058,0.3749-5.8516,1.7208-6.2268,6.2265h-0.2031c-0.3752-4.5057-1.7211-5.8516-6.2268-6.2265V27.2579z M217.9359,142.7277
		c-4.5058,0.3749-5.8516,1.7208-6.2269,6.2265h-0.2031c-0.3752-4.5057-1.721-5.8516-6.2267-6.2265v-0.2037
		c4.5057-0.3747,5.8516-1.7208,6.2267-6.2266h0.2031c0.3752,4.5058,1.7211,5.8519,6.2269,6.2266V142.7277z M243.8074,50.6422
		c4.0737,0,7.3762,3.3024,7.3762,7.3762s-3.3024,7.3762-7.3762,7.3762s-7.3762-3.3024-7.3762-7.3762
		S239.7337,50.6422,243.8074,50.6422z M186.4694,44.6973c22.5596,0,40.9128,18.3533,40.9128,40.9128
		c0,22.5596-18.3533,40.9128-40.9128,40.9128c-22.5595,0-40.9128-18.3533-40.9128-40.9128
		C145.5566,63.0505,163.9099,44.6973,186.4694,44.6973z M128.8204,36.5056c4.5057-0.3747,5.8516-1.7208,6.2268-6.2266h0.2031
		c0.3752,4.5058,1.721,5.8519,6.2268,6.2266v0.2037c-4.5058,0.3749-5.8516,1.7208-6.2268,6.2265h-0.2031
		c-0.3752-4.5057-1.7211-5.8516-6.2268-6.2265V36.5056z M72.8283,84.7156h-0.2031c-0.3752-4.5057-1.7211-5.8516-6.2268-6.2265
		v-0.2037c4.5057-0.3747,5.8516-1.7208,6.2268-6.2266h0.2031c0.3752,4.5058,1.7211,5.8519,6.2269,6.2266v0.2037
		C74.5494,78.864,73.2036,80.2099,72.8283,84.7156z"/>
	<path d="M186.4692,122.1722c20.1927,0,36.5622-16.3694,36.5622-36.5622c0-2.2142-0.2078-4.3786-0.5849-6.4843l-2.7752,2.9824
		l-0.4166-4.6864l-1.7704-3.2284h-1.5621l-2.6035,4.2698l-0.5207,3.0201l-2.6036-2.6035l-1.7704-4.4781l-5.3112-0.4166
		l-3.2284-2.6035l-2.187,0.6248l1.864,3.9842l3.9116,1.1575l-0.7768,2.0441l-3.0201,0.8331l-2.8688-0.9612l-3.1714-5.5997
		l-2.8118,0.4166l0.8331,4.9988l5.3112,3.1242h3.8533l-2.4994,5.9361l-2.2911,1.5621l-1.8746,1.8745l1.0414,5.5195l-2.4994,1.5621
		l-0.9373,5.3112l-5.5195,0.5207l-2.6036-2.4994l-2.7076-3.1242l-0.9373-2.916l0.3124-4.8947l-1.5621-2.6035l-2.4994-4.1657
		l-3.2284,0.4166l-4.374-3.3325l-0.1041-4.374l0.6248-4.0615l2.2911-3.2284l4.9988-0.9373l3.0201-0.3124l0.4166,1.458l4.6864,1.3538
		l5.5195,1.0414l1.1456-1.9787c0,0-0.9373-2.187-1.2497-2.0828c-0.3124,0.1041-3.7491-2.4995-3.7491-2.4995l-2.916-1.3538
		c0,0-5.1259-0.3325-5.4384-0.02c-0.3124,0.3124-3.622,2.6236-3.622,2.6236l-0.4166-1.8746l2.6036-2.2911l4.8947-2.187
		l4.1656,0.3124l4.1656-1.458l-1.2497-1.7704l-2.916,1.3538l-2.3953-0.729l2.3953-2.7077l3.9574-1.5621l4.0615,0.5207l3.2284-0.5207
		l2.5234-2.5234c-3.9884-1.493-8.3047-2.3144-12.8143-2.3144c-20.1927,0-36.5622,16.3694-36.5622,36.5621
		C149.907,105.8028,166.2764,122.1722,186.4692,122.1722z"/>
	<path d="M115.3558,161.4269c6.1537-7.1357,11.7684-17.8349,11.7684-25.5509c0-12.5945-10.208-22.8032-22.8037-22.8032
		c-12.5928,0-22.8027,10.2087-22.8027,22.8032c0,7.716,5.6148,18.4152,11.7682,25.5509l11.0345,1.5308L115.3558,161.4269z"/>
	<path d="M71.3167,256.0293c-0.1826,2.1895,1.3887,4.165,3.5898,4.4482c2.2637,0.291,4.335-1.3076,4.626-3.5713l3.4434-26.7632
		l7.6777,112.8779c0.1533,2.1543,1.916,3.9063,4.1221,3.9775c2.3564,0.0757,4.3281-1.7734,4.4043-4.1299l2.9473-91.52h4.2832
		l2.9463,91.52c0.0762,2.1582,1.7754,3.9722,3.9766,4.1221c2.3525,0.1602,4.3896-1.6172,4.5498-3.9697l7.5771-111.4082
		c0.0703-0.6519,0.126-1.2539,0.166-1.7825l3.4824,27.0759c0.2842,2.1787,2.2373,3.7783,4.4482,3.5903
		c2.2744-0.1934,3.9609-2.1934,3.7676-4.4673l-7.3408-86.3452c-0.0078-0.0967-0.0205-0.2129-0.0342-0.3101
		c-0.4463-3.2148-3.4141-5.46-6.6289-5.0137l-0.127,0.0176l-18.873,2.6182l-18.873-2.6182l-0.1465-0.0205
		c-0.0957-0.0127-0.1924-0.0234-0.29-0.0317c-3.2344-0.2749-6.0791,2.124-6.3535,5.3584L71.3167,256.0293z"/>
	<path d="M274.6901,159.8053l13.8311-1.9192c4.9582-6.833,8.9724-15.4874,8.9724-22.0101c0-12.5945-10.208-22.8032-22.8037-22.8032
		c-12.5928,0-22.8027,10.2087-22.8027,22.8032c0,6.5228,4.0142,15.1772,8.9724,22.0102L274.6901,159.8053z"/>
	<path d="M300.7341,165.9283l-0.8428-1.2515c-0.335-0.4604-0.5449-0.7793-1.0986-1.4482l-0.002-0.002
		c-1.2646-1.4468-3.2354-2.2778-5.2813-1.9941l-0.0537,0.0073l-18.7656,2.6038l-18.7656-2.6038l-0.0908-0.0127
		c-1.9053-0.25-3.8965,0.4346-5.2451,1.9995v0.0005c-0.5215,0.6274-0.7139,0.918-1.0234,1.3423l-0.7852,1.1523
		c-0.4932,0.7559-0.96,1.5093-1.3984,2.2583c-0.8848,1.501-1.6846,3.0034-2.4463,4.5127c-1.5205,3.0166-2.832,6.0664-4.043,9.1357
		c-2.3486,5.979-4.2715,12.0354-5.9121,18.1338c-0.4082-0.0786-0.8662-0.1899-1.3633-0.3423
		c-2.5107-0.7808-5.3926-2.127-8.4336-3.3672c-1.5381-0.6245-3.1348-1.2466-4.9043-1.7705
		c-1.7773-0.5029-3.7031-0.9941-6.1689-0.9004c-1.2227,0.0625-2.623,0.3037-4,0.9863c-1.3711,0.6621-2.5938,1.7485-3.3906,2.8945
		c-1.5957,2.3394-1.9355,4.5093-2.1826,6.438c-0.2803,2.2104,1.248,4.2622,3.4639,4.606c2.2539,0.3501,4.3652-1.1938,4.7148-3.4478
		l0.0186-0.1196c0.1826-1.1797,0.583-2.1973,0.8574-2.4448c0.1328-0.1338,0.1553-0.0952,0.2119-0.1108
		c0.0498-0.0122,0.2441-0.0444,0.5947-0.0356c0.7061,0.0088,1.9023,0.2842,3.1289,0.73c1.2422,0.4409,2.5713,1.0322,3.9297,1.6738
		c2.7539,1.2827,5.5234,2.8149,8.9873,4.1279c0.8818,0.3228,1.8213,0.6299,2.9082,0.8701c1.0947,0.2271,2.3594,0.4199,3.9746,0.249
		c0.8262-0.1108,1.7188-0.3037,2.6533-0.7427c0.916-0.4302,1.8281-1.0654,2.5137-1.8179c0.6895-0.7393,1.207-1.5547,1.5469-2.291
		c0.1865-0.3823,0.3281-0.7422,0.4424-1.0869l0.2461-0.7373c1.8516-5.8823,3.9756-11.6509,6.4414-17.1812
		c0.6836-1.5266,1.3994-3.0303,2.1396-4.511v42.3186c-0.0371,0.3604-0.0596,0.7251-0.0586,1.0959l0.3896,114.7625
		c0.0146,2.1597,1.6611,4.022,3.8574,4.2349c2.3477,0.2275,4.4346-1.4907,4.6611-3.8374l8.8955-91.7949h7.1641l8.8955,91.7949
		c0.2158,2.1489,2.0273,3.8501,4.2354,3.8574c2.3574,0.0078,4.2754-1.897,4.2832-4.2549l0.3857-113.2725
		c0.0313-0.4888,0.0498-0.9146,0.0498-1.2441v-17.6941c1.2988,0.6184,2.6162,1.2407,3.9766,1.8547
		c1.6689,0.7363,3.3262,1.4741,5.4365,2.1074c0.5391,0.1553,1.1113,0.3042,1.8027,0.4214c0.7031,0.104,1.4678,0.2314,2.7197,0.0894
		c0.624-0.085,1.4131-0.2441,2.3516-0.7422c0.9316-0.4707,1.9678-1.4614,2.498-2.5132c0.5547-1.0552,0.6992-2.002,0.7432-2.709
		c0.0381-0.7153-0.0205-1.2759-0.0938-1.7476c-0.0381-0.229-0.0801-0.4551-0.127-0.6538l-0.1201-0.4858l-0.1689-0.6401
		l-0.3398-1.2808l-0.6797-2.5625c-0.4697-1.7056-0.9854-3.4033-1.4775-5.1064c-1.0645-3.3906-2.168-6.7773-3.459-10.1294
		c-1.2617-3.3584-2.667-6.688-4.2822-9.9849c-0.8057-1.6489-1.6699-3.2886-2.6123-4.9253
		C301.7624,167.5714,301.2673,166.7516,300.7341,165.9283z M235.8444,199.8654c0.082-0.0215,0.1426-0.0308,0.1699-0.0229
		C236.0349,199.8502,235.9665,199.8624,235.8444,199.8654z M289.7565,171.1202l0.0186,0.0215l-0.0059-0.002v-0.0005
		C289.7653,171.1344,289.7497,171.1149,289.7565,171.1202z M302.5182,196.7482l1.207,3.562
		c-2.4775-0.9854-5.0322-2.0959-7.6563-3.186v-15.6543c0.9824,1.9546,1.9287,3.9414,2.8008,5.9814
		C300.1979,190.4806,301.3737,193.6061,302.5182,196.7482z M308.7946,201.9327c0.2041-0.0066,0.1309,0.021,0.0068,0.001
		C308.7995,201.9337,308.7966,201.933,308.7946,201.9327z"/>
</g>
</svg>
