<?xml version="1.0" encoding="utf-8"?>
<!-- Generator: Adobe Illustrator 24.0.2, SVG Export Plug-In . SVG Version: 6.00 Build 0)  -->
<svg version="1.1" id="Layer_1" xmlns="http://www.w3.org/2000/svg" xmlns:xlink="http://www.w3.org/1999/xlink" x="0px" y="0px"
	 viewBox="0 0 469.138 237.5041" enable-background="new 0 0 469.138 237.5041" xml:space="preserve">
<g>
	<path d="M68.6868,45.4433c-5.6973,1.7669-10.3425,2.3127-13.9739,1.6255c1.1796,5.1041,4.0906,9.8374,8.6045,13.2327
		c0.6235,0.4692,1.2637,0.9009,1.9167,1.2976l11.4995-0.3792C71.9876,53.7979,69.7139,48.4025,68.6868,45.4433z"/>
	<path d="M71.8233,44.385c1.0288,2.9368,3.4761,8.7077,8.7754,16.7073l9.8196-0.3239c1.9414-1.359,3.7075-3.0376,5.2095-5.0338
		c4.6649-6.1996,5.725-13.9849,3.5474-20.8571c-4.0901,0.4786-9.9698,1.48-12.303,2.7024
		C81.2614,40.5179,76.2622,42.7738,71.8233,44.385z"/>
	<path d="M85.2331,11.5454c-13.1757-5.824-28.578,0.1357-34.402,13.3113C48.0271,31.2,40.3738,58.5403,85.4798,34.9223
		c3.2214-1.6868,10.3726-2.6727,13.5076-3.0386c1.7672,0.3068,3.3704,0.4481,4.642,0.4255
		c1.6681-0.0296,2.7661-0.3392,2.9009-0.9279c0.1271-0.5549-1.4977-2.0253-3.7637-3.5566c-1.194-0.8069-2.5607-1.6255-3.9556-2.3419
		C96.3423,19.4767,91.6414,14.3781,85.2331,11.5454z"/>
	<path d="M29.4131,181.4716L2.5479,216.83c-4.1768,5.4971-3.1064,13.3389,2.3906,17.5156c2.2607,1.7178,4.917,2.5479,7.5527,2.5479
		c3.7734,0,7.5039-1.7021,9.9629-4.9385l29.6006-38.959c1.7676-2.3262,2.6641-5.1982,2.5342-8.1172l-0.5872-13.2186
		l-26.2654-27.9401L29.4131,181.4716z"/>
	<path d="M25.8919,138.1677c0.3564,0.5178,0.7417,1.0217,1.1855,1.4937l35.4736,37.7354l9.9629,49.5029
		c1.1943,5.9365,6.4102,10.0371,12.2402,10.0361c0.8174,0,1.6475-0.0801,2.4795-0.248c6.7686-1.3613,11.1504-7.9521,9.7881-14.7197
		l-10.666-53c-0.46-2.2861-1.5498-4.3975-3.1465-6.0957l-26.2769-27.9519c0.0811-1.4924,0.0669-3.2036-0.0503-5.1841
		c-0.7039-5.2497-0.7341-10.7687-0.3662-16.3009c0.1387-2.0861,0.3374-4.1719,0.5767-6.2482
		c-0.2534-0.2982-0.4954-0.6084-0.7163-0.938l-18.25-27.25c-3.1592-4.7197-1.8916-11.1309,2.8262-14.291
		c1.7041-1.1396,3.6836-1.7422,5.7246-1.7422c1.0118,0,1.9966,0.1636,2.9398,0.4438l0.0497-1.2973l11.3076-0.3729
		c-1.7551-3.6077-4.5413-6.3414-8.217-7.2582c-2.2036-0.549-4.6633-0.6432-7.1862-0.2354c-1.13,0.0331-2.2511,0.3063-3.2875,0.8151
		c-6.2078,2.0894-12.2993,7.3397-15.4736,16.5707c-5.0557,14.988-7.1576,26.0952-6.8461,39.923
		c0.1078,4.7836,0.4998,9.8878,1.1644,15.5975C22.0779,132.039,23.7591,135.5883,25.8919,138.1677z"/>
	<path d="M107.5073,81.2522c-0.7743,0-1.3644-0.0214-1.8346-0.0551c0.1229,1.1839,0.0502,2.3915-0.2487,3.5805
		c-0.6365,2.5345-2.1832,4.6809-4.36,6.1008c-0.0919,0.2463-0.1824,0.4911-0.2706,0.7332l-0.6914,1.8975l-2.4717-0.5529
		l-19.9235,11.9214l1.6144,1.5897c1.5352,1.5117,3.5635,2.2998,5.6152,2.2998c1.3125,0,2.6348-0.3223,3.8428-0.9844l26.9236-14.7526
		c-1.1543-3.5655-2.4866-8.7465-3.2805-11.9478C111.0308,81.1633,109.1265,81.2522,107.5073,81.2522z"/>
	<path d="M128.4502,76.9228c-0.4746-0.8663-1.0915-1.6021-1.7983-2.2107c0.1879,2.4282,0.8083,5.9913,1.7386,9.9903
		C129.7053,82.3729,129.8301,79.4412,128.4502,76.9228z"/>
	<path d="M51.8826,64.3411c0,0-0.0007,0.0198-0.0017,0.0495c1.322,0.7737,2.4821,1.83,3.3625,3.1438l12.2288,18.2623
		c3.7595-1.613,7.9119-3.777,11.8867-5.9138l10.7878-6.455c1.5996-0.957,3.4248-1.4619,5.2803-1.4619
		c3.6074,0,6.9971,1.9209,8.8467,5.0127c0.355,0.5931,0.6462,1.212,0.8732,1.8487c2.1423,0.3573,9.0505-0.1667,9.0505-0.1667
		s3.53,14.6002,4.8563,16.678c1.325,2.0776,9.1221-2.4368,9.1221-2.4368s-5.932-20.0621-3.0832-22.7015
		c0.5049-0.4673,0.8481-1.2548,1.0769-2.2298l4.1287-0.0389l0.0166,1.8297l49.0964-2.5418l-0.0134-1.4367l25.561-0.236
		l-0.0432-4.701l-25.5605,0.2352l-0.0133-1.4382l-49.1354-1.6389l0.0171,1.8304l-3.8573,0.0339
		c-0.2404-2.8201-0.6309-5.089-0.6309-5.089l-25.8788-1.3307l-4.094,9.4449L51.8826,64.3411z M102.0684,58.0556l19.1426,0.6162
		l-0.0645,1.999l-19.1426-0.6162L102.0684,58.0556z"/>
	<polygon points="239.6592,58.1002 251.6155,46.6002 233.542,51.3502 236.6848,42.8502 220.5181,52.0168 221.5181,45.0168 
		209.3516,59.3502 209.3013,60.6913 217.1848,55.2668 216.3516,60.6835 229.0181,52.8502 227.1848,57.5168 236.6848,54.8502 
		232.5181,59.8502 242.5181,60.8502 234.1848,64.0168 240.0181,70.0168 231.0181,67.8502 235.6848,77.8502 220.3516,69.6835 
		220.6848,75.3502 209.0921,66.268 208.9766,69.3502 222.4766,84.7252 223.6016,75.2252 242.9959,86.1002 236.3225,73.6002 
		252.6848,75.5168 240.4934,65.8502 260.5181,60.3502 	"/>
	<path d="M99.5423,89.132c3.792-2.2686,5.0264-7.1816,2.7578-10.9727c-2.2676-3.791-7.1807-5.0254-10.9727-2.7578L67.3509,89.7483
		L53.3323,68.8147c-2.46-3.6709-7.4277-4.6523-11.0996-2.1953c-3.6709,2.459-4.6533,7.4277-2.1953,11.0996l18.25,27.25
		c1.5381,2.2959,4.0684,3.5488,6.6543,3.5488c1.3994,0,2.8164-0.3682,4.1006-1.1357L99.5423,89.132z"/>
	<path d="M416.5713,56.843c4.3862,6.5077,29.793,7.4188,40.2363,0.3799c10.4436-7.0389,13.204-21.2096,6.1646-31.6539
		c-7.0385-10.4427-21.2104-13.2034-31.6541-6.1644C420.8747,26.4434,412.1852,50.3354,416.5713,56.843z M444.6956,46.3111
		c4.1274,0.8593,7.0015,3.8224,6.4194,6.6182c-0.5822,2.7959-4.3999,4.3658-8.5273,3.5065
		c-4.1274-0.8593-8.4803-7.3943-8.4803-7.3943S440.5681,45.4519,444.6956,46.3111z M426.7117,32.8808
		c0.7522-4.1482,3.6401-7.0978,6.4502-6.5882c2.8098,0.5096,4.4779,4.2856,3.7256,8.4338
		c-0.7524,4.1482-6.5042,8.7899-6.5042,8.7899S425.9593,37.029,426.7117,32.8808z"/>
	<path d="M368.0863,237.4915c2.3501-0.1806,4.1088-2.2321,3.9282-4.5821l-5.0782-66.0872l47.0549-32.8561
		c0.245-0.1722,0.4988-0.366,0.7319-0.563c1.751-1.4803,2.8562-3.4352,3.308-5.5151l19.5219-44.8594l21.51,17.4622l1.5247,43.1511
		c0.0809,2.1985,1.8821,3.972,4.1034,3.9861c2.282,0.0144,4.1437-1.8239,4.1582-4.1059l0.2887-45.5916
		c0.0027-1.3235-0.5339-2.6619-1.5924-3.6199l-0.1808-0.1636l-25.3862-22.9765c-0.5846-0.5248-1.3129-0.9459-2.1194-1.175
		l-0.1461-0.0415l-17.9857-5.1108l-16.1188-9.4753l-0.1177-0.0697c-0.9724-0.5727-2.1274-0.856-3.3368-0.7435l-33.7465,3.1379
		l-4.3798-42.1616c-0.2307-2.1912-2.153-3.838-4.3723-3.6968c-2.2773,0.145-4.0061,2.1086-3.8612,4.3861l3.0172,47.4186
		c0.1735,2.6987,2.4779,4.7778,5.1912,4.6547l0.2222-0.0101l33.1163-1.5017l-4.7225,11.2152l8.8291,3.7123l-1.6666,4.1667
		l-3.6666,3.3333h-6l-2.856,1.5172l-7.4984,17.8076l-42.8049,2.7106l-0.9025,0.0565c-2.2549,0.1603-4.3827,1.4329-5.5402,3.5675
		l-24.5809,45.3341c-1.0039,1.8467-0.5171,4.1979,1.2233,5.4792c1.9009,1.3995,4.5764,0.9931,5.9761-0.9078l27.8419-37.8161
		l46.5355,1.1064c0.098,0.002,0.2015-0.0053,0.3032-0.006c0.3168,0.3622,0.6324,0.7209,0.9481,1.0772l-33.6661,28.4624
		l-0.4906,0.4135c-1.7113,1.4548-2.6436,3.742-2.2615,6.1217l11.2041,69.7795
		C363.8996,236.0764,365.8603,237.6625,368.0863,237.4915z"/>
	<path d="M318.9259,29.2993c-2.9824,6.4695-5.5497,14.0267-4.1509,14.7859c1.5223,0.8261,7.2356-6.6738,11.1113-13.1235
		c4.8087,0.5776,8.5048-0.3511,9.8776-2.8811c2.5703-4.7361-3.9337-13.2358-14.9156-19.1954
		c-10.3192-5.5999-14.0636-3.2432-16.6105,0.9909l-2.1431-1.163c0.8883-1.8703,1.7078-4.4011,0.5498-5.03
		c-0.5674-0.3091-1.3135,0.002-2.2129,0.9292c-0.5652,0.5822-1.1543,1.3723-1.7052,2.2729l-0.9166-0.4974
		c0.8879-1.8705,1.7078-4.4023,0.5505-5.03c-1.1514-0.6269-2.8318,1.4391-3.9172,3.2029l-1.5702-0.8521
		c0.2412-1.3008-0.3486-2.663-1.5743-3.3282c-1.5229-0.8265-3.4277-0.2619-4.2542,1.2612c-0.8267,1.523-0.262,3.4277,1.2611,4.2543
		c1.2257,0.6651,2.6893,0.4173,3.6484-0.4939l1.5699,0.8519c-0.8878,1.8704-1.7075,4.4016-0.5503,5.0302
		c0.1445,0.0786,0.2979,0.1147,0.457,0.1147c1.1105,0,2.511-1.7747,3.4601-3.3178l0.9166,0.4974
		c-0.4552,0.9526-0.7966,1.8776-0.9763,2.6685c-0.2861,1.2583-0.1426,2.0532,0.4277,2.3623
		c0.1416,0.0771,0.2939,0.1152,0.457,0.1152c0.4922,0,1.0811-0.3496,1.7559-1.0449c0.5653-0.5822,1.1544-1.3722,1.7048-2.2728
		l2.142,1.1624c-2.1622,4.443-2.097,8.867,8.2223,14.467C314.0515,27.3989,316.5408,28.479,318.9259,29.2993z M302.1494,4.5478
		c0.2026,0.2473,0.0203,1.6773-0.9329,3.6887l-1.6111-0.8743C300.7701,5.4713,301.8506,4.5611,302.1494,4.5478z M297.8575,2.2226
		c0.002,0,0.0049,0,0.0078,0c0.2026,0.2473,0.0194,1.6775-0.9333,3.6887l-1.6116-0.8745
		C296.4771,3.1569,297.5633,2.2226,297.8575,2.2226z M293.4766,10.4194c-0.0029,0-0.0049,0-0.0078,0
		c-0.2026-0.2473-0.0195-1.6772,0.9331-3.6889l1.6112,0.8743C294.856,9.4845,293.7699,10.4194,293.4766,10.4194z M297.7617,12.7446
		c-0.0029,0-0.0059,0-0.0078-0.0005c-0.2035-0.2469-0.0211-1.6765,0.9324-3.6887l1.6113,0.8745
		C299.1411,11.8093,298.0551,12.7446,297.7617,12.7446z M306.2779,19.172c-1.8481-1.003-2.2754-3.8385-1.1296-6.6097l3.7645,2.0429
		l0.9189-1.6934l-3.7736-2.0478c1.6991-2.4734,4.3174-3.6537,6.1665-2.6503c2.0441,1.1093,2.3699,4.4617,0.7278,7.4877
		C311.3102,18.7274,308.3219,20.2812,306.2779,19.172z"/>
	<path d="M438.9329,8.2084c-2.1934-0.9056-4.1904-0.974-5.937-0.2024c-2.6973,1.1905-3.7278,3.9611-3.7704,4.0783
		c-0.1876,0.5175,0.0792,1.0875,0.5961,1.2775c0.0353,0.0132,0.0708,0.0239,0.1067,0.0327
		c0.4868,0.1198,0.9973-0.1439,1.1761-0.6248c0.0077-0.0208,0.8019-2.1062,2.715-2.941c1.2247-0.5349,2.689-0.4589,4.3501,0.2283
		c0.5096,0.2098,1.0952-0.0323,1.3062-0.5425C439.6866,9.0037,439.4434,8.4195,438.9329,8.2084z"/>
	<path d="M440.699,5.2663c0.2302-0.502,0.0099-1.0952-0.4921-1.3258c-3.2135-1.4728-6.1725-1.705-8.796-0.6879
		c-3.9932,1.5475-5.678,5.4273-5.7478,5.5921c-0.2153,0.5072,0.0212,1.0919,0.5281,1.3086c0.051,0.0215,0.1028,0.0388,0.155,0.0517
		c0.4663,0.1147,0.9609-0.1216,1.157-0.5767c0.0142-0.0328,1.4474-3.2875,4.6487-4.5179c2.0964-0.8062,4.5256-0.5898,7.2212,0.6485
		C439.8767,5.9868,440.4688,5.7678,440.699,5.2663z"/>
	<path d="M333.4065,14.6682c0.0221-0.002,2.2468-0.1779,3.8208,1.1929c1.0081,0.8774,1.5667,2.233,1.6576,4.0285
		c0.0287,0.5503,0.4984,0.9756,1.0499,0.9476c0.5518-0.0283,0.9756-0.4985,0.9475-1.0502
		c-0.1216-2.3698-0.9155-4.2036-2.3611-5.4511c-2.2312-1.9269-5.1763-1.6709-5.3004-1.6592
		c-0.548,0.0522-0.9486,0.5375-0.8988,1.086c0.0032,0.0375,0.0087,0.0742,0.016,0.1104
		C332.4385,14.3645,332.8954,14.7127,333.4065,14.6682z"/>
	<path d="M334.7022,10.0683c0.0356-0.0013,3.5906-0.1009,6.074,2.2644c1.6268,1.5489,2.4722,3.8364,2.5083,6.8026
		c0.0098,0.5529,0.4612,0.9939,1.0129,0.987c0.5522-0.007,0.9939-0.4603,0.9872-1.0126c-0.0461-3.5348-1.1042-6.3077-3.1473-8.2426
		c-3.1091-2.9448-7.3367-2.8047-7.5156-2.7973c-0.5505,0.0228-0.9774,0.4871-0.9561,1.0379
		c0.0024,0.0554,0.009,0.1096,0.0198,0.1622C333.7815,9.7404,334.2069,10.0861,334.7022,10.0683z"/>
	<polygon points="391.2292,83.8248 388.8189,79.6068 386.2185,80.1847 383.3958,80.812 383.3958,85.8333 385.4622,86.4238 
		386.2078,86.6368 	"/>
	<polygon points="384.9695,48.3109 385.2116,44.6267 382.7776,44.9893 381.3936,46.9267 382.2571,48.0117 	"/>
	<polygon points="345.8074,82.1471 348.5199,82.4462 349.3974,80.2243 346.328,79.1247 344.944,81.062 	"/>
	<polygon points="364.7097,79.9531 362.3599,80.3367 362.1988,81.714 363.8982,83.849 366.6824,81.4243 	"/>
	<polygon points="357.9119,101.383 355.9392,99.9118 353.5894,100.2954 353.4281,101.6727 356.6221,103.839 	"/>
	<polygon points="326.3648,98.7788 328.0642,100.9138 330.8484,98.4891 328.8758,97.018 326.5259,97.4015 	"/>
	<polygon points="341.2591,50.7745 341.1844,53.5023 344.876,53.4403 344.3141,51.0443 342.2693,49.8246 	"/>
	<polygon points="380.0721,92.4711 375.8238,90.6818 373.4119,94.0796 374.9287,95.9738 379.677,96.4828 	"/>
</g>
</svg>
