<?xml version="1.0" encoding="utf-8"?>
<!-- Generator: Adobe Illustrator 24.0.2, SVG Export Plug-In . SVG Version: 6.00 Build 0)  -->
<svg version="1.1" id="Layer_1" xmlns="http://www.w3.org/2000/svg" xmlns:xlink="http://www.w3.org/1999/xlink" x="0px" y="0px"
	 viewBox="0 0 297.7346 375.6635" enable-background="new 0 0 297.7346 375.6635" xml:space="preserve">
<g>
	<path d="M80.0166,277.6469c-2.4619-2.4493-6.4465-2.4393-8.895,0.0214c-2.4524,2.4644-2.4438,6.4462,0.0205,8.8965
		c2.4609,2.4503,6.4448,2.4419,8.894-0.0198C82.4856,284.0839,82.4792,280.0992,80.0166,277.6469z"/>
	<path d="M74.3159,332.8076c0.405,0.17,0.8254,0.2504,1.239,0.2504c1.2542,0,2.4448-0.7396,2.9602-1.9681l6.2427-14.8842
		l3.0447-1.8937l-1.4751,3.2398c-0.3931,0.8638-0.3838,1.8572,0.0259,2.7133c0.4089,0.8561,1.1765,1.4872,2.0962,1.7234
		l15.9639,4.1019c1.7124,0.4402,3.4639-0.5923,3.9055-2.3091c0.4412-1.7161-0.593-3.4648-2.3091-3.9058l-12.2561-3.1492
		l4.2854-9.4152c0.2483-0.546,0.3235-1.1321,0.2578-1.699c0-0.7733-0.1582-1.6453-0.542-2.6443
		c-2.6804-5.6517-4.9753-8.5483-9.5813-12.3214c-2.9153-2.363-6.0256-2.1213-7.9141-0.8624
		c-0.2969,0.1406-0.571,0.3403-0.7983,0.6061l-5.6248,6.574l-7.1763-4.928c-1.095-0.7527-2.5935-0.4739-3.3455,0.6213
		c-0.7527,1.0954-0.4746,2.5934,0.6211,3.3456l8.96,6.1531c0.4143,0.2847,0.8899,0.4228,1.3606,0.4228
		c0.6824,0,1.3567-0.2891,1.8298-0.8419l4.1318-4.8289c0.1841,0.2125,0.3774,0.4173,0.5864,0.6053
		c2.2104,2.3629,5.3477,5.4679,7.5227,8.9149l-7.8274,4.8693c-0.5647,0.3515-1.0063,0.8698-1.2632,1.4833l-6.6384,15.8271
		C71.9128,330.2419,72.6819,332.1222,74.3159,332.8076z"/>
	<path d="M33.9983,277.6469c-2.4619-2.4493-6.4465-2.4393-8.895,0.0214c-2.4524,2.4644-2.4438,6.4462,0.0205,8.8965
		c2.4609,2.4503,6.4448,2.4419,8.894-0.0198C36.467,284.0839,36.4609,280.0992,33.9983,277.6469z"/>
	<path d="M47.9478,318.5764c0.5281-0.5306,1.1172-0.9755,1.7446-1.3474l-1.957-0.5029l4.2854-9.4152
		c0.2483-0.546,0.3235-1.1321,0.2578-1.699c0-0.7733-0.1582-1.6453-0.542-2.6443c-2.6807-5.6517-4.9756-8.5483-9.5813-12.3214
		c-2.9153-2.363-6.0256-2.1213-7.9143-0.8624c-0.2969,0.1406-0.5708,0.3403-0.7981,0.6061l-5.6248,6.574l-7.1764-4.928
		c-1.0951-0.7527-2.5934-0.4739-3.3453,0.6213c-0.7527,1.0954-0.4747,2.5934,0.6211,3.3456l8.96,6.1531
		c0.4143,0.2847,0.8899,0.4228,1.3606,0.4228c0.6821,0,1.3567-0.2891,1.8296-0.8419l4.1318-4.8289
		c0.1841,0.2125,0.3777,0.4173,0.5869,0.6053c2.2102,2.3629,5.3472,5.4679,7.5225,8.9149l-7.8271,4.8693
		c-0.5649,0.3515-1.0066,0.8698-1.2637,1.4833l-6.6382,15.8271c-0.6855,1.634,0.0837,3.5142,1.7178,4.1996
		c0.4048,0.17,0.8254,0.2504,1.239,0.2504c1.2542,0,2.4446-0.7396,2.9602-1.9681l6.2427-14.8842l3.0444-1.8937l-1.4749,3.2398
		c-0.3931,0.8638-0.3838,1.8572,0.0259,2.7133c0.4089,0.8561,1.1765,1.4872,2.0962,1.7234l3.1985,0.8218
		C45.9829,321.2214,46.771,319.7589,47.9478,318.5764z"/>
	<path d="M203.2544,339.1867l-0.1289-0.2832c-0.1179-0.2593-0.2085-0.5291-0.2849-0.8032H74.7698
		c0.2544,0.3522,0.501,0.7159,0.7446,1.0864H203.2544z"/>
	<polygon points="285.8445,339.1867 285.8445,338.1003 273.8254,338.1003 275.5718,339.1867 	"/>
	<path d="M255.6392,338.9035c-0.1179-0.2593-0.2085-0.5291-0.2849-0.8032h-34.0425l1.7463,1.0864h32.71L255.6392,338.9035z"/>
	<rect x="89.7578" y="332.5958" width="109.5413" height="1.0864"/>
	<path d="M58.7332,343.2346l-0.9297,1.0864h2.1899c-0.3494-0.3752-0.6899-0.7354-1.0225-1.0864H58.7332z"/>
	<path d="M77.8215,343.2346c0.1768,0.3518,0.3542,0.7137,0.5327,1.0864h127.2368l-0.4944-1.0864H77.8215z"/>
	<polygon points="44.9539,343.2346 12.3767,343.2346 12.3767,344.321 46.5359,344.321 	"/>
	<polygon points="297.7346,344.321 297.7346,343.2346 279.1814,343.2346 279.6372,344.321 	"/>
	<polygon points="226.6677,343.2346 227.1233,344.321 258.1047,344.321 257.6104,343.2346 	"/>
	<path d="M264.7961,286.4319c2.4644-2.4503,2.4729-6.4321,0.0205-8.8965c-2.4487-2.4607-6.4331-2.4706-8.895-0.0214
		c-2.4626,2.4523-2.469,6.437-0.0195,8.8981C258.3513,288.8738,262.3352,288.8822,264.7961,286.4319z"/>
	<path d="M227.8818,321.3943c-0.0598,0.1171-0.1218,0.2332-0.1672,0.3571l2.2249,2.6005l5.3921-3.7024
		c0.8054-0.5538,1.7468-0.8463,2.7227-0.8463c1.5876,0,3.0713,0.7808,3.969,2.0878c0.261,0.3797,0.4414,0.7938,0.5828,1.2192
		l4.8828-1.2546c0.9197-0.2362,1.6873-0.8673,2.0959-1.7234c0.4097-0.8561,0.4192-1.8495,0.0259-2.7133l-1.4749-3.2399
		l3.0447,1.8938l5.9265,14.13c1.3164-2.4814,2.6516-4.4666,4.3018-6.3326l-4.707-11.2224
		c-0.2568-0.6135-0.6985-1.1318-1.2634-1.4833l-7.8271-4.8693c2.175-3.447,5.312-6.5519,7.5225-8.9149
		c0.2092-0.188,0.4026-0.3928,0.5867-0.6053l4.1318,4.8289c0.4731,0.5528,1.1475,0.8419,1.8298,0.8419
		c0.4707,0,0.9463-0.1381,1.3606-0.4228l8.9597-6.1531c1.0959-0.7521,1.374-2.2502,0.6213-3.3456
		c-0.752-1.0952-2.2505-1.3741-3.3455-0.6213l-7.1763,4.928l-5.625-6.5741c-0.2271-0.2657-0.5012-0.4655-0.7981-0.6061
		c-1.8884-1.2589-4.9988-1.5005-7.9143,0.8624c-4.6055,3.773-6.9006,6.6696-9.5811,12.3214c-0.3838,0.999-0.542,1.871-0.542,2.6443
		c-0.0659,0.5669,0.0093,1.153,0.2578,1.6989l4.2852,9.4152l-8.0994,2.0812c-0.0598,0.063-0.113,0.1304-0.175,0.1918
		C232.2952,320.4744,230.1572,321.3669,227.8818,321.3943z"/>
	<path d="M223.2678,54.5128c-2.6379-14.8887-30.6855-26.6614-65.2576-27.079V12.7084c2.6628-0.8111,4.6008-3.2849,4.6008-6.213
		c0-3.5873-2.9082-6.4954-6.4956-6.4954c-3.5872,0-6.4954,2.9081-6.4954,6.4954c0,2.928,1.9382,5.4019,4.6008,6.2129v14.7255
		c-34.5723,0.4177-62.6196,12.1903-65.2576,27.079c17.811-3.2504,41.345-5.2284,67.1521-5.2284S205.4568,51.2624,223.2678,54.5128z"
		/>
	<path d="M156.1155,94.4221c55.5732,0,100.624-9.1679,100.624-20.4771c0-0.7062-0.1758-1.404-0.5188-2.0917
		c-5.1484-10.3266-48.0022-18.3853-100.1052-18.3853c-52.1028,0-94.9565,8.0587-100.105,18.3853
		c-0.343,0.6877-0.5188,1.3856-0.5188,2.0917C55.4917,85.2542,100.5425,94.4221,156.1155,94.4221z M156.1155,80.4221
		c-8.7097,0-15.7705-1.0906-15.7705-2.4358c0-1.3453,7.0608-2.4358,15.7705-2.4358c8.71,0,15.7708,1.0905,15.7708,2.4358
		C171.8862,79.3315,164.8254,80.4221,156.1155,80.4221z M156.1155,66.0184c25.7192,0,46.5688,3.5489,46.5688,7.9266
		c0,2.1148-4.875,4.0347-12.8047,5.4559c2.8997-0.9636,4.5479-2.0651,4.5479-3.2357c0-3.7798-17.1528-6.8441-38.312-6.8441
		c-21.1589,0-38.3118,3.0642-38.3118,6.8441c0,1.1706,1.6482,2.2722,4.5479,3.2357c-7.9297-1.4213-12.8049-3.3411-12.8049-5.4559
		C109.5466,69.5673,130.3962,66.0184,156.1155,66.0184z"/>
	
		<rect x="142.7479" y="108.0314" transform="matrix(0.2022 -0.9794 0.9794 0.2022 7.7614 227.8894)" width="1.9998" height="2.2994"/>
	
		<rect x="107.4335" y="273.7227" transform="matrix(0.2026 -0.9793 0.9793 0.2026 -181.8866 326.3844)" width="4.0533" height="2.2996"/>
	
		<rect x="105.791" y="281.6607" transform="matrix(0.2026 -0.9793 0.9793 0.2026 -190.9699 331.1059)" width="4.0533" height="2.2996"/>
	
		<rect x="115.6467" y="234.0331" transform="matrix(0.2026 -0.9793 0.9793 0.2026 -136.4705 302.777)" width="4.0528" height="2.2996"/>
	
		<rect x="110.7189" y="257.847" transform="matrix(0.2026 -0.9793 0.9793 0.2026 -163.7203 316.9416)" width="4.0528" height="2.2996"/>
	
		<rect x="114.0041" y="241.971" transform="matrix(0.2026 -0.9793 0.9793 0.2026 -145.5538 307.4985)" width="4.0528" height="2.2996"/>
	
		<rect x="109.0761" y="265.7848" transform="matrix(0.2026 -0.9793 0.9793 0.2026 -172.8034 321.6629)" width="4.0533" height="2.2996"/>
	
		<rect x="104.1484" y="289.5987" transform="matrix(0.2026 -0.9793 0.9793 0.2026 -200.0532 335.8275)" width="4.0533" height="2.2996"/>
	
		<rect x="112.3615" y="249.909" transform="matrix(0.2026 -0.9793 0.9793 0.2026 -154.6371 312.2201)" width="4.0528" height="2.2996"/>
	
		<rect x="132.0734" y="154.6537" transform="matrix(0.2026 -0.9793 0.9793 0.2026 -45.6374 255.5632)" width="4.0528" height="2.2996"/>
	
		<rect x="123.8593" y="194.3434" transform="matrix(0.2026 -0.9793 0.9793 0.2026 -91.0543 279.1696)" width="4.0533" height="2.2996"/>
	
		<rect x="135.3586" y="138.7777" transform="matrix(0.2026 -0.9793 0.9793 0.2026 -27.4708 246.1202)" width="4.0528" height="2.2996"/>
	
		<rect x="125.5019" y="186.4054" transform="matrix(0.2026 -0.9793 0.9793 0.2026 -81.9711 274.4481)" width="4.0533" height="2.2996"/>
	
		<rect x="137.0012" y="130.8397" transform="matrix(0.2026 -0.9793 0.9793 0.2026 -18.3876 241.3987)" width="4.0528" height="2.2996"/>
	
		<rect x="133.716" y="146.7157" transform="matrix(0.2026 -0.9793 0.9793 0.2026 -36.5541 250.8417)" width="4.0528" height="2.2996"/>
	
		<rect x="130.4306" y="162.5914" transform="matrix(0.2026 -0.9793 0.9793 0.2026 -54.7204 260.2845)" width="4.0533" height="2.2996"/>
	
		<rect x="127.1445" y="178.4674" transform="matrix(0.2026 -0.9793 0.9793 0.2026 -72.8878 269.7266)" width="4.0533" height="2.2996"/>
	
		<rect x="128.788" y="170.5294" transform="matrix(0.2026 -0.9793 0.9793 0.2026 -63.8037 265.0061)" width="4.0533" height="2.2996"/>
	
		<rect x="120.5744" y="210.2191" transform="matrix(0.2026 -0.9793 0.9793 0.2026 -109.2207 288.6125)" width="4.0528" height="2.2996"/>
	
		<rect x="118.9318" y="218.1571" transform="matrix(0.2026 -0.9793 0.9793 0.2026 -118.3039 293.334)" width="4.0528" height="2.2996"/>
	
		<rect x="122.2168" y="202.2813" transform="matrix(0.2026 -0.9793 0.9793 0.2026 -100.1376 283.8912)" width="4.0533" height="2.2996"/>
	
		<rect x="138.6438" y="122.9017" transform="matrix(0.2026 -0.9793 0.9793 0.2026 -9.3043 236.6772)" width="4.0528" height="2.2996"/>
	
		<rect x="140.2863" y="114.9637" transform="matrix(0.2026 -0.9793 0.9793 0.2026 -0.221 231.9556)" width="4.0528" height="2.2996"/>
	
		<rect x="117.2893" y="226.0951" transform="matrix(0.2026 -0.9793 0.9793 0.2026 -127.3872 298.0555)" width="4.0528" height="2.2996"/>
	<rect x="103.7405" y="296.5313" transform="matrix(0.2026 -0.9793 0.9793 0.2026 -207.9861 339.9509)" width="2" height="2.2996"/>
	<rect x="168.3241" y="108.1812" transform="matrix(0.9793 -0.2026 0.2026 0.9793 -18.6083 36.6069)" width="2.2996" height="2"/>
	
		<rect x="187.828" y="201.4045" transform="matrix(0.9793 -0.2026 0.2026 0.9793 -37.2996 42.5107)" width="2.2996" height="4.0533"/>
	
		<rect x="177.9715" y="153.7771" transform="matrix(0.9793 -0.2026 0.2026 0.9793 -27.8565 39.5307)" width="2.2996" height="4.0528"/>
	
		<rect x="197.6834" y="249.0324" transform="matrix(0.9793 -0.2026 0.2026 0.9793 -46.7506 45.5016)" width="2.2996" height="4.0528"/>
	
		<rect x="192.7557" y="225.2185" transform="matrix(0.9793 -0.2026 0.2026 0.9793 -42.027 44.0089)" width="2.2996" height="4.0528"/>
	
		<rect x="189.4706" y="209.3425" transform="matrix(0.9793 -0.2026 0.2026 0.9793 -38.878 43.0138)" width="2.2996" height="4.0528"/>
	
		<rect x="179.6141" y="161.7146" transform="matrix(0.9793 -0.2026 0.2026 0.9793 -29.4279 40.0231)" width="2.2996" height="4.0533"/>
	
		<rect x="191.1131" y="217.2805" transform="matrix(0.9793 -0.2026 0.2026 0.9793 -40.4525 43.5113)" width="2.2996" height="4.0528"/>
	
		<rect x="186.1854" y="193.4665" transform="matrix(0.9793 -0.2026 0.2026 0.9793 -35.7253 42.0132)" width="2.2996" height="4.0533"/>
	
		<rect x="194.3983" y="233.1564" transform="matrix(0.9793 -0.2026 0.2026 0.9793 -43.6015 44.5065)" width="2.2996" height="4.0528"/>
	
		<rect x="184.5428" y="185.5285" transform="matrix(0.9793 -0.2026 0.2026 0.9793 -34.1509 41.5158)" width="2.2996" height="4.0533"/>
	
		<rect x="182.9002" y="177.5905" transform="matrix(0.9793 -0.2026 0.2026 0.9793 -32.5766 41.0183)" width="2.2996" height="4.0533"/>
	
		<rect x="196.0409" y="241.0944" transform="matrix(0.9793 -0.2026 0.2026 0.9793 -45.1761 45.004)" width="2.2996" height="4.0528"/>
	
		<rect x="181.2567" y="169.6525" transform="matrix(0.9793 -0.2026 0.2026 0.9793 -31.0023 40.5206)" width="2.2996" height="4.0533"/>
	
		<rect x="176.3289" y="145.8391" transform="matrix(0.9793 -0.2026 0.2026 0.9793 -26.282 39.0331)" width="2.2996" height="4.0528"/>
	
		<rect x="174.6864" y="137.9011" transform="matrix(0.9793 -0.2026 0.2026 0.9793 -24.7075 38.5356)" width="2.2996" height="4.0528"/>
	
		<rect x="199.326" y="256.9704" transform="matrix(0.9793 -0.2026 0.2026 0.9793 -48.3251 45.9991)" width="2.2996" height="4.0528"/>
	
		<rect x="171.4012" y="122.0251" transform="matrix(0.9793 -0.2026 0.2026 0.9793 -21.5584 37.5405)" width="2.2996" height="4.0528"/>
	
		<rect x="200.9686" y="264.9079" transform="matrix(0.9793 -0.2026 0.2026 0.9793 -49.8942 46.4905)" width="2.2996" height="4.0533"/>
	
		<rect x="169.7586" y="114.0871" transform="matrix(0.9793 -0.2026 0.2026 0.9793 -19.9839 37.0429)" width="2.2996" height="4.0528"/>
	
		<rect x="173.0438" y="129.9631" transform="matrix(0.9793 -0.2026 0.2026 0.9793 -23.1329 38.038)" width="2.2996" height="4.0528"/>
	
		<rect x="204.2538" y="280.7839" transform="matrix(0.9793 -0.2026 0.2026 0.9793 -53.0428 47.4855)" width="2.2996" height="4.0533"/>
	
		<rect x="202.6112" y="272.8459" transform="matrix(0.9793 -0.2026 0.2026 0.9793 -51.4685 46.988)" width="2.2996" height="4.0533"/>
	
		<rect x="205.8963" y="288.7219" transform="matrix(0.9793 -0.2026 0.2026 0.9793 -54.6172 47.983)" width="2.2996" height="4.0533"/>
	<rect x="207.3319" y="296.6812" transform="matrix(0.9793 -0.2026 0.2026 0.9793 -55.9963 48.4221)" width="2.2996" height="2"/>
	<path d="M195.2273,348.7825h-34.9336v1.0864h33.6392C194.303,349.4477,194.738,349.0803,195.2273,348.7825z"/>
	<rect x="93.1377" y="348.7825" width="44.8123" height="1.0864"/>
	<rect y="348.7825" width="44.8123" height="1.0864"/>
	<path d="M165.4907,213.9359c-0.0024,0.0182-0.0037,0.0363-0.0039,0.0543c-0.0044,0.2447,0.1763,0.459,0.4246,0.4922
		c0.0107,0.0013,1.0889,0.1538,1.6931,0.9738c0.387,0.525,0.5093,1.23,0.3618,2.0948c-0.0447,0.2652,0.1338,0.5176,0.3994,0.5629
		c0.2659,0.0451,0.5178-0.1339,0.563-0.3996c0.1936-1.1417,0.0103-2.0994-0.5459-2.8472c-0.8582-1.1547-2.2881-1.3454-2.3486-1.353
		C165.7678,213.4807,165.5254,213.6693,165.4907,213.9359z"/>
	<path d="M166.625,211.8613c-0.0046,0.0266-0.0073,0.0531-0.0078,0.0793c-0.0042,0.2343,0.1619,0.4442,0.3997,0.4883
		c0.0171,0.0032,1.7209,0.3331,2.6526,1.7234c0.6106,0.9105,0.7703,2.0898,0.4724,3.5065c-0.054,0.2644,0.1143,0.5224,0.3779,0.5777
		s0.5222-0.1138,0.5776-0.3776c0.3533-1.6885,0.1438-3.1217-0.624-4.2602c-1.1682-1.7328-3.1968-2.1149-3.2827-2.1303
		C166.926,211.4208,166.6733,211.5966,166.625,211.8613z"/>
	<path d="M151.6479,242.4365c0.0017-0.0182,0.0022-0.0364,0.002-0.0544c-0.0054-0.2447-0.1941-0.4518-0.4436-0.4751
		c-0.0107-0.001-1.0942-0.1109-1.73-0.9066c-0.4075-0.5094-0.5571-1.209-0.4438-2.079c0.0342-0.2668-0.1543-0.512-0.4214-0.5468
		c-0.2676-0.0346-0.512,0.1541-0.5469,0.4214c-0.1484,1.1484,0.0723,2.0982,0.6575,2.8235
		c0.9028,1.1201,2.3391,1.2545,2.3999,1.2598C151.3892,242.9022,151.624,242.7042,151.6479,242.4365z"/>
	<path d="M146.4539,238.3368c-0.2656-0.0449-0.5173,0.1342-0.5623,0.3999c-0.2869,1.7012-0.021,3.125,0.7908,4.2324
		c1.2356,1.6855,3.2776,1.9877,3.364,1.9997c0.2664,0.0372,0.512-0.1484,0.5498-0.4147c0.0037-0.0268,0.0051-0.0534,0.0046-0.0796
		c-0.0049-0.2343-0.1792-0.4374-0.4185-0.4722c-0.0171-0.0025-1.7327-0.2653-2.7183-1.6179
		c-0.6458-0.8858-0.8518-2.0579-0.6099-3.4852C146.8977,238.6329,146.7195,238.3817,146.4539,238.3368z"/>
	<path d="M174.7673,260.5483c1.4124,0.2734,2.5967-0.5505,2.6462-0.5856c0.2192-0.1552,0.271-0.458,0.1165-0.678
		c-0.0103-0.0151-0.0215-0.0293-0.0334-0.0428c-0.1619-0.1835-0.4399-0.2198-0.6455-0.0768
		c-0.0088,0.0062-0.9075,0.6212-1.9067,0.4234c-0.6399-0.1263-1.2056-0.5643-1.6804-1.3021c-0.1458-0.226-0.448-0.2918-0.6746-0.146
		c-0.2266,0.1461-0.2917,0.448-0.1458,0.6747C173.0708,259.7885,173.8523,260.3716,174.7673,260.5483z"/>
	<path d="M170.9167,259.5029c-0.2319,0.1371-0.3088,0.4363-0.1719,0.6684c0.8784,1.4847,2,2.4012,3.335,2.7237
		c2.0313,0.4908,3.7864-0.5956,3.8604-0.6422c0.2273-0.1434,0.2952-0.4436,0.1523-0.6715
		c-0.0144-0.0229-0.0303-0.0443-0.0479-0.0639c-0.1548-0.1757-0.4189-0.2186-0.6243-0.0908
		c-0.0146,0.0092-1.4951,0.9152-3.1208,0.5175c-1.0647-0.2603-1.9783-1.0229-2.7144-2.2695
		C171.4468,259.4429,171.1487,259.366,170.9167,259.5029z"/>
	<path d="M153.5876,225.3798c-0.4358-1.2775-1.6377-2.1342-2.9873-2.1301l-18.5784,0.0561
		c-0.9675,0.0028-1.8318,0.4421-2.4065,1.1309c-0.458,0.5483-0.7327,1.2548-0.7305,2.0251c0.0051,1.7378,1.4185,3.1421,3.156,3.137
		l16.3206-0.0491l3.1511,9.2267c0.1106,0.3245,0.2805,0.6085,0.4758,0.8687c0.1206,0.243,0.291,0.4662,0.5127,0.6513
		l12.5989,10.5212l-4.1445,8.3378c-0.2971,0.5984-0.2705,1.3073,0.072,1.8815l5.9189,9.9359
		c0.5557,0.9334,1.7627,1.2389,2.6958,0.683c0.9346-0.5555,1.2388-1.7628,0.6826-2.6956l-5.3696-9.0148l4.2913-8.6334l6.2361-7.4677
		l5.9092-6.3224c0.2988-0.3171,0.4775-0.7182,0.5203-1.148l1.0339-10.3917c0.1077-1.0809-0.6814-2.0442-1.762-2.1519
		c-0.6736-0.0672-1.302,0.2147-1.7053,0.6976c-0.2439,0.2919-0.406,0.6578-0.4463,1.0646l-0.9683,9.73l-4.1399,4.4293
		l-11.9844-10.0079l3.2815-10.3575c0.4751-1.4997-0.2305-3.1198-1.6523-3.7936l-12.1052-5.7363
		c-1.3232-0.6277-2.8643-0.2502-3.7615,0.8241c-0.1675,0.2005-0.3123,0.4249-0.429,0.6716
		c-0.7441,1.5703-0.0745,3.4467,1.4961,4.1907l9.6235,4.5606l-3.1802,10.0377L153.5876,225.3798z"/>
	<path d="M182.8684,255.0839c2.0833-2.4947,1.75-6.2069-0.7454-8.2905c-2.4954-2.0838-6.2073-1.7499-8.2908,0.7448
		c-2.0837,2.4954-1.7505,6.2075,0.7449,8.2913C177.0725,257.9131,180.7844,257.5793,182.8684,255.0839z"/>
	<path d="M58.5486,320.2524c-2.4617-2.4493-6.4463-2.4393-8.8948,0.0213c-2.4524,2.4644-2.4438,6.4462,0.0203,8.8965
		c2.4612,2.4503,6.4448,2.4419,8.8943-0.0198C61.0176,326.6895,61.0115,322.7047,58.5486,320.2524z"/>
	<path d="M51.428,344.7615c0.4143,0.2847,0.8896,0.4228,1.3604,0.4228c0.6824,0,1.3567-0.289,1.8298-0.8418l4.1318-4.829
		c0.1841,0.2125,0.3777,0.4173,0.5867,0.6053c2.2104,2.363,5.3474,5.4679,7.5227,8.9149l-7.8274,4.8693
		c-0.5647,0.3515-1.0066,0.8699-1.2634,1.4833l-6.6384,15.8272c-0.6853,1.6339,0.084,3.5142,1.7178,4.1996
		c0.405,0.1699,0.8257,0.2504,1.2393,0.2504c1.2539,0,2.4446-0.7396,2.96-1.9682l6.2427-14.8841l3.0447-1.8938l-1.4749,3.2399
		c-0.3931,0.8638-0.3838,1.8572,0.0259,2.7133c0.4087,0.8561,1.1765,1.4873,2.0959,1.7234l15.9641,4.1019
		c1.7124,0.4402,3.4636-0.5924,3.9055-2.3091c0.4409-1.7162-0.593-3.4648-2.3091-3.9058l-12.2561-3.1492l4.2854-9.4153
		c0.2483-0.5459,0.3235-1.132,0.2576-1.6989c0-0.7733-0.1582-1.6453-0.542-2.6443c-2.6804-5.6518-4.9753-8.5483-9.5811-12.3214
		c-2.9155-2.363-6.0259-2.1213-7.9143-0.8624c-0.2969,0.1406-0.571,0.3403-0.7981,0.6061l-5.6248,6.5741l-7.1765-4.928
		c-1.095-0.7527-2.5933-0.4739-3.3452,0.6213c-0.7529,1.0955-0.4749,2.5934,0.6211,3.3456L51.428,344.7615z"/>
	<path d="M232.2126,317.1611c2.4641-2.4503,2.4727-6.4321,0.0203-8.8965c-2.4485-2.4607-6.4331-2.4706-8.8948-0.0214
		c-2.4629,2.4523-2.469,6.437-0.0198,8.8981C225.7678,319.603,229.7515,319.6115,232.2126,317.1611z"/>
	<path d="M209.6008,347.3226l-12.2561,3.1492c-1.7161,0.441-2.75,2.1897-2.3091,3.9058c0.4419,1.7168,2.1931,2.7493,3.9055,2.3091
		l15.9641-4.1019c0.9194-0.2361,1.687-0.8672,2.0959-1.7234c0.4097-0.8561,0.4189-1.8495,0.0259-2.7133l-1.4749-3.2398
		l3.0447,1.8937l6.2427,14.8842c0.5154,1.2286,1.7061,1.9681,2.96,1.9681c0.4136,0,0.8342-0.0804,1.2393-0.2504
		c1.6338-0.6854,2.4031-2.5656,1.7178-4.1996l-6.6384-15.8271c-0.2571-0.6135-0.6987-1.1318-1.2634-1.4833l-7.8274-4.8693
		c2.1753-3.447,5.3123-6.5519,7.5227-8.9149c0.209-0.188,0.4026-0.3928,0.5867-0.6053l4.1318,4.8289
		c0.4729,0.5528,1.1475,0.8419,1.8298,0.8419c0.4707,0,0.946-0.1381,1.3604-0.4228l8.96-6.1531
		c1.0959-0.7521,1.374-2.2502,0.6211-3.3456c-0.752-1.0952-2.2502-1.3741-3.3452-0.6213l-7.1765,4.928l-5.6248-6.574
		c-0.2271-0.2657-0.5012-0.4655-0.7981-0.6061c-1.8884-1.2589-4.999-1.5005-7.9143,0.8624
		c-4.6057,3.7731-6.9006,6.6697-9.5811,12.3214c-0.3838,0.9991-0.542,1.8711-0.542,2.6443c-0.0659,0.567,0.0093,1.153,0.2576,1.699
		L209.6008,347.3226z"/>
	<path d="M284.7263,317.1611c2.4644-2.4503,2.4729-6.4321,0.0205-8.8965c-2.4487-2.4607-6.4331-2.4706-8.895-0.0214
		c-2.4626,2.4523-2.469,6.437-0.0195,8.8981C278.2815,319.603,282.2654,319.6115,284.7263,317.1611z"/>
	<path d="M258.1135,333.564c-0.3838,0.9991-0.542,1.8711-0.542,2.6443c-0.0659,0.567,0.0093,1.153,0.2578,1.699l4.2852,9.4152
		l-12.2559,3.1492c-1.7163,0.441-2.7502,2.1897-2.3091,3.9058c0.4417,1.7168,2.1931,2.7493,3.9053,2.3091l15.9641-4.1019
		c0.9197-0.2361,1.6873-0.8672,2.0959-1.7234c0.4097-0.8561,0.4192-1.8495,0.0259-2.7133l-1.4749-3.2398l3.0447,1.8937
		l6.2427,14.8842c0.5154,1.2286,1.7061,1.9681,2.96,1.9681c0.4136,0,0.8342-0.0804,1.2393-0.2504
		c1.6338-0.6854,2.4031-2.5656,1.7178-4.1996l-6.6384-15.8271c-0.2568-0.6135-0.6985-1.1318-1.2634-1.4833l-7.8271-4.8693
		c2.175-3.447,5.312-6.5519,7.5225-8.9149c0.2092-0.188,0.4026-0.3928,0.5867-0.6053l4.1318,4.8289
		c0.4731,0.5528,1.1475,0.8419,1.8298,0.8419c0.4707,0,0.9463-0.1381,1.3606-0.4228l8.9597-6.1531
		c1.0959-0.7521,1.374-2.2502,0.6213-3.3456c-0.752-1.0952-2.2505-1.3741-3.3455-0.6213l-7.1763,4.928l-5.625-6.574
		c-0.2271-0.2657-0.5012-0.4655-0.7981-0.6061c-1.8884-1.2589-4.9988-1.5005-7.9143,0.8624
		C263.0891,325.0157,260.7939,327.9123,258.1135,333.564z"/>
</g>
</svg>
